<svg width="40" height="40" viewBox="0 0 40 40" fill="none" xmlns="http://www.w3.org/2000/svg">
<path d="M26.25 15.001H17.125C17.0563 15.001 17 15.0572 17 15.126V16.001C17 16.0697 17.0563 16.126 17.125 16.126H26.25C26.3188 16.126 26.375 16.0697 26.375 16.001V15.126C26.375 15.0572 26.3188 15.001 26.25 15.001ZM26.25 19.4385H17.125C17.0563 19.4385 17 19.4947 17 19.5635V20.4385C17 20.5072 17.0563 20.5635 17.125 20.5635H26.25C26.3188 20.5635 26.375 20.5072 26.375 20.4385V19.5635C26.375 19.4947 26.3188 19.4385 26.25 19.4385ZM26.25 23.876H17.125C17.0563 23.876 17 23.9322 17 24.001V24.876C17 24.9447 17.0563 25.001 17.125 25.001H26.25C26.3188 25.001 26.375 24.9447 26.375 24.876V24.001C26.375 23.9322 26.3188 23.876 26.25 23.876ZM13.625 15.5635C13.625 15.6784 13.6476 15.7922 13.6916 15.8983C13.7356 16.0045 13.8 16.1009 13.8813 16.1822C13.9625 16.2634 14.059 16.3279 14.1652 16.3719C14.2713 16.4158 14.3851 16.4385 14.5 16.4385C14.6149 16.4385 14.7287 16.4158 14.8348 16.3719C14.941 16.3279 15.0375 16.2634 15.1187 16.1822C15.2 16.1009 15.2644 16.0045 15.3084 15.8983C15.3524 15.7922 15.375 15.6784 15.375 15.5635C15.375 15.4486 15.3524 15.3348 15.3084 15.2286C15.2644 15.1225 15.2 15.026 15.1187 14.9448C15.0375 14.8635 14.941 14.7991 14.8348 14.7551C14.7287 14.7111 14.6149 14.6885 14.5 14.6885C14.3851 14.6885 14.2713 14.7111 14.1652 14.7551C14.059 14.7991 13.9625 14.8635 13.8813 14.9448C13.8 15.026 13.7356 15.1225 13.6916 15.2286C13.6476 15.3348 13.625 15.4486 13.625 15.5635ZM13.625 20.001C13.625 20.1159 13.6476 20.2297 13.6916 20.3358C13.7356 20.442 13.8 20.5384 13.8813 20.6197C13.9625 20.7009 14.059 20.7654 14.1652 20.8094C14.2713 20.8533 14.3851 20.876 14.5 20.876C14.6149 20.876 14.7287 20.8533 14.8348 20.8094C14.941 20.7654 15.0375 20.7009 15.1187 20.6197C15.2 20.5384 15.2644 20.442 15.3084 20.3358C15.3524 20.2297 15.375 20.1159 15.375 20.001C15.375 19.8861 15.3524 19.7723 15.3084 19.6661C15.2644 19.56 15.2 19.4635 15.1187 19.3823C15.0375 19.301 14.941 19.2366 14.8348 19.1926C14.7287 19.1486 14.6149 19.126 14.5 19.126C14.3851 19.126 14.2713 19.1486 14.1652 19.1926C14.059 19.2366 13.9625 19.301 13.8813 19.3823C13.8 19.4635 13.7356 19.56 13.6916 19.6661C13.6476 19.7723 13.625 19.8861 13.625 20.001ZM13.625 24.4385C13.625 24.5534 13.6476 24.6672 13.6916 24.7733C13.7356 24.8795 13.8 24.9759 13.8813 25.0572C13.9625 25.1384 14.059 25.2029 14.1652 25.2469C14.2713 25.2908 14.3851 25.3135 14.5 25.3135C14.6149 25.3135 14.7287 25.2908 14.8348 25.2469C14.941 25.2029 15.0375 25.1384 15.1187 25.0572C15.2 24.9759 15.2644 24.8795 15.3084 24.7733C15.3524 24.6672 15.375 24.5534 15.375 24.4385C15.375 24.3236 15.3524 24.2098 15.3084 24.1036C15.2644 23.9975 15.2 23.901 15.1187 23.8198C15.0375 23.7385 14.941 23.6741 14.8348 23.6301C14.7287 23.5861 14.6149 23.5635 14.5 23.5635C14.3851 23.5635 14.2713 23.5861 14.1652 23.6301C14.059 23.6741 13.9625 23.7385 13.8813 23.8198C13.8 23.901 13.7356 23.9975 13.6916 24.1036C13.6476 24.2098 13.625 24.3236 13.625 24.4385Z" fill="#001234"/>
</svg>
