<svg width="36" height="36" viewBox="0 0 36 36" fill="none" xmlns="http://www.w3.org/2000/svg">
<path d="M15.75 6.7146C15.75 7.31134 15.9871 7.88363 16.409 8.30559C16.831 8.72755 17.4033 8.9646 18 8.9646C18.5967 8.9646 19.169 8.72755 19.591 8.30559C20.0129 7.88363 20.25 7.31134 20.25 6.7146C20.25 6.11786 20.0129 5.54557 19.591 5.12361C19.169 4.70165 18.5967 4.4646 18 4.4646C17.4033 4.4646 16.831 4.70165 16.409 5.12361C15.9871 5.54557 15.75 6.11786 15.75 6.7146ZM15.75 17.9646C15.75 18.5613 15.9871 19.1336 16.409 19.5556C16.831 19.9775 17.4033 20.2146 18 20.2146C18.5967 20.2146 19.169 19.9775 19.591 19.5556C20.0129 19.1336 20.25 18.5613 20.25 17.9646C20.25 17.3679 20.0129 16.7956 19.591 16.3736C19.169 15.9517 18.5967 15.7146 18 15.7146C17.4033 15.7146 16.831 15.9517 16.409 16.3736C15.9871 16.7956 15.75 17.3679 15.75 17.9646ZM15.75 29.2146C15.75 29.8113 15.9871 30.3836 16.409 30.8056C16.831 31.2275 17.4033 31.4646 18 31.4646C18.5967 31.4646 19.169 31.2275 19.591 30.8056C20.0129 30.3836 20.25 29.8113 20.25 29.2146C20.25 28.6179 20.0129 28.0456 19.591 27.6236C19.169 27.2017 18.5967 26.9646 18 26.9646C17.4033 26.9646 16.831 27.2017 16.409 27.6236C15.9871 28.0456 15.75 28.6179 15.75 29.2146Z" fill="#262626"/>
</svg>
