<svg width="36" height="36" viewBox="0 0 36 36" fill="none" xmlns="http://www.w3.org/2000/svg">
<path d="M32.4625 13.2614C32.6392 13.2614 32.7839 13.1168 32.7839 12.94V10.5293C32.7839 10.3525 32.6392 10.2079 32.4625 10.2079H25.8732V3.53823C25.8732 3.36144 25.7285 3.2168 25.5517 3.2168H22.9803C22.8035 3.2168 22.6589 3.36144 22.6589 3.53823V10.2079H13.4982V3.53823C13.4982 3.36144 13.3535 3.2168 13.1767 3.2168H10.6053C10.4285 3.2168 10.2839 3.36144 10.2839 3.53823V10.2079H3.53388C3.35709 10.2079 3.21245 10.3525 3.21245 10.5293V12.94C3.21245 13.1168 3.35709 13.2614 3.53388 13.2614H10.2839V22.7436H3.53388C3.35709 22.7436 3.21245 22.8882 3.21245 23.065V25.4757C3.21245 25.6525 3.35709 25.7972 3.53388 25.7972H10.2839V32.4668C10.2839 32.6436 10.4285 32.7882 10.6053 32.7882H13.1767C13.3535 32.7882 13.4982 32.6436 13.4982 32.4668V25.7972H22.6589V32.4668C22.6589 32.6436 22.8035 32.7882 22.9803 32.7882H25.5517C25.7285 32.7882 25.8732 32.6436 25.8732 32.4668V25.7972H32.4625C32.6392 25.7972 32.7839 25.6525 32.7839 25.4757V23.065C32.7839 22.8882 32.6392 22.7436 32.4625 22.7436H25.8732V13.2614H32.4625ZM22.6589 22.7436H13.4982V13.2614H22.6589V22.7436Z" fill="#262626"/>
</svg>
