<svg width="36" height="36" viewBox="0 0 36 36" fill="none" xmlns="http://www.w3.org/2000/svg">
<path d="M33.9756 31.7659L23.5413 21.3316C25.1604 19.2383 26.0363 16.6789 26.0363 13.9869C26.0363 10.7646 24.7788 7.74317 22.5046 5.46505C20.2305 3.18692 17.2011 1.93335 13.9828 1.93335C10.7645 1.93335 7.735 3.19094 5.4609 5.46505C3.18277 7.73915 1.9292 10.7646 1.9292 13.9869C1.9292 17.2052 3.18679 20.2347 5.4609 22.5088C7.735 24.7869 10.7604 26.0405 13.9828 26.0405C16.6747 26.0405 19.2301 25.1646 21.3234 23.5494L31.7578 33.9798C31.7884 34.0104 31.8247 34.0347 31.8647 34.0512C31.9047 34.0678 31.9475 34.0763 31.9908 34.0763C32.0341 34.0763 32.0769 34.0678 32.1169 34.0512C32.1569 34.0347 32.1932 34.0104 32.2238 33.9798L33.9756 32.232C34.0062 32.2014 34.0305 32.1651 34.0471 32.1251C34.0637 32.0851 34.0722 32.0423 34.0722 31.999C34.0722 31.9557 34.0637 31.9128 34.0471 31.8728C34.0305 31.8329 34.0062 31.7965 33.9756 31.7659ZM20.3471 20.3512C18.6435 22.0508 16.3854 22.9869 13.9828 22.9869C11.5801 22.9869 9.32206 22.0508 7.61848 20.3512C5.91893 18.6476 4.98277 16.3896 4.98277 13.9869C4.98277 11.5842 5.91893 9.32219 7.61848 7.62264C9.32206 5.92308 11.5801 4.98692 13.9828 4.98692C16.3854 4.98692 18.6475 5.91906 20.3471 7.62264C22.0466 9.32621 22.9828 11.5842 22.9828 13.9869C22.9828 16.3896 22.0466 18.6517 20.3471 20.3512Z" fill="#262626"/>
</svg>
