<svg width="45" height="45" viewBox="0 0 45 45" fill="none" xmlns="http://www.w3.org/2000/svg">
<g id="icons/article-image-right">
<rect id="icon-bg" width="45" height="45" rx="2" fill="#A5E7EB"/>
<g id="page" filter="url(#filter0_d_1_507)">
<path d="M9 41H36V12L28 5H9V41Z" fill="white"/>
<path d="M35.25 12.3403V40.25H9.75V5.75H27.7182L35.25 12.3403Z" stroke="#333333" stroke-width="1.5"/>
</g>
<g id="image">
<path id="Rectangle 22" d="M21.5 23C21.5 22.1716 22.1716 21.5 23 21.5H31C31.8284 21.5 32.5 22.1716 32.5 23V29C32.5 29.8284 31.8284 30.5 31 30.5H23C22.1716 30.5 21.5 29.8284 21.5 29V23Z" fill="#B6E3FC" stroke="#333333"/>
<path id="Vector 1" d="M24.1184 27.8255C23.9404 27.7499 23.7347 27.7838 23.5904 27.9125L21.6673 29.6268C21.5124 29.7648 21.4589 29.9842 21.5328 30.178C21.6066 30.3719 21.7925 30.5 22 30.5H32C32.2761 30.5 32.5 30.2761 32.5 30V27.7143C32.5 27.5717 32.4391 27.4359 32.3327 27.3411L30.4096 25.6268C30.2125 25.451 29.9127 25.4589 29.7251 25.6448L26.5019 28.8372L24.1184 27.8255Z" fill="#44D500" stroke="#333333" stroke-linejoin="round"/>
<circle id="Ellipse 1" cx="26" cy="25" r="1.5" fill="#FFD12D" stroke="#333333"/>
</g>
<rect id="Rectangle 23" x="13" y="13" width="12" height="2" rx="1" fill="#B4B4B4"/>
<rect id="Rectangle 24" x="13" y="17" width="19" height="2" rx="1" fill="#B4B4B4"/>
<rect id="Rectangle 25" x="13" y="21" width="6" height="2" rx="1" fill="#B4B4B4"/>
<rect id="Rectangle 26" x="13" y="25" width="6" height="2" rx="1" fill="#B4B4B4"/>
<rect id="Rectangle 27" x="13" y="29" width="6" height="2" rx="1" fill="#B4B4B4"/>
<rect id="Rectangle 28" x="13" y="33" width="16" height="2" rx="1" fill="#B4B4B4"/>
</g>
<defs>
<filter id="filter0_d_1_507" x="9" y="5" width="28" height="37" filterUnits="userSpaceOnUse" color-interpolation-filters="sRGB">
<feFlood flood-opacity="0" result="BackgroundImageFix"/>
<feColorMatrix in="SourceAlpha" type="matrix" values="0 0 0 0 0 0 0 0 0 0 0 0 0 0 0 0 0 0 127 0" result="hardAlpha"/>
<feOffset dx="1" dy="1"/>
<feComposite in2="hardAlpha" operator="out"/>
<feColorMatrix type="matrix" values="0 0 0 0 0 0 0 0 0 0 0 0 0 0 0 0 0 0 0.29 0"/>
<feBlend mode="normal" in2="BackgroundImageFix" result="effect1_dropShadow_1_507"/>
<feBlend mode="normal" in="SourceGraphic" in2="effect1_dropShadow_1_507" result="shape"/>
</filter>
</defs>
</svg>
