<svg width="45" height="45" viewBox="0 0 45 45" fill="none" xmlns="http://www.w3.org/2000/svg">
<g id="icons/financial-report">
<rect id="icon-bg" width="45" height="45" rx="2" fill="#A5E7EB"/>
<g id="page" filter="url(#filter0_d_1_920)">
<path d="M9 41H36V12L28 5H9V41Z" fill="white"/>
<path d="M35.25 12.3403V40.25H9.75V5.75H27.7182L35.25 12.3403Z" stroke="#333333" stroke-width="1.5"/>
</g>
<rect id="Rectangle 24" x="13" y="35" width="19" height="2" rx="1" fill="#B4B4B4"/>
<g id="table">
<rect id="Rectangle 47" x="22" y="22" width="5" height="3" fill="#FF2B2B"/>
<rect id="Rectangle 48" x="17" y="26" width="5" height="3" fill="#9FF577"/>
<rect id="Rectangle 49" x="27" y="29" width="4" height="3" fill="#9FF577"/>
<rect id="Rectangle 46" x="13.5" y="18.5" width="18" height="14" rx="0.5" stroke="#424242"/>
<path id="Vector 3" d="M17.5 19V32" stroke="#474747"/>
<path id="Vector 4" d="M22 19V32" stroke="#474747"/>
<path id="Vector 6" d="M31 22L14 22" stroke="#474747"/>
<path id="Vector 7" d="M31 25.5L14 25.5" stroke="#474747"/>
<path id="Vector 8" d="M31 29L14 29" stroke="#474747"/>
<path id="Vector 5" d="M27 19V32" stroke="#474747"/>
</g>
<rect id="Rectangle 25" x="13" y="10" width="12" height="2" rx="1" fill="#B4B4B4"/>
<rect id="Rectangle 26" x="13" y="14" width="12" height="2" rx="1" fill="#B4B4B4"/>
</g>
<defs>
<filter id="filter0_d_1_920" x="9" y="5" width="28" height="37" filterUnits="userSpaceOnUse" color-interpolation-filters="sRGB">
<feFlood flood-opacity="0" result="BackgroundImageFix"/>
<feColorMatrix in="SourceAlpha" type="matrix" values="0 0 0 0 0 0 0 0 0 0 0 0 0 0 0 0 0 0 127 0" result="hardAlpha"/>
<feOffset dx="1" dy="1"/>
<feComposite in2="hardAlpha" operator="out"/>
<feColorMatrix type="matrix" values="0 0 0 0 0 0 0 0 0 0 0 0 0 0 0 0 0 0 0.29 0"/>
<feBlend mode="normal" in2="BackgroundImageFix" result="effect1_dropShadow_1_920"/>
<feBlend mode="normal" in="SourceGraphic" in2="effect1_dropShadow_1_920" result="shape"/>
</filter>
</defs>
</svg>
