<svg width="45" height="45" viewBox="0 0 45 45" fill="none" xmlns="http://www.w3.org/2000/svg">
<g id="icons/formal-letter">
<rect id="icon-bg" width="45" height="45" rx="2" fill="#A5E7EB"/>
<g id="page" filter="url(#filter0_d_1_893)">
<path d="M9 41H36V11L31 5H9V41Z" fill="white"/>
<path d="M35.25 11.2715V40.25H9.75V5.75H30.6487L35.25 11.2715Z" stroke="#333333" stroke-width="1.5"/>
</g>
<rect id="Rectangle 23" x="16" y="15" width="12" height="2" rx="1" fill="#B4B4B4"/>
<rect id="Rectangle 25" x="13" y="20" width="19" height="2" rx="1" fill="#B4B4B4"/>
<rect id="Rectangle 26" x="13" y="24" width="19" height="2" rx="1" fill="#B4B4B4"/>
<rect id="Rectangle 27" x="13" y="28" width="19" height="2" rx="1" fill="#B4B4B4"/>
<rect id="Rectangle 28" x="22" y="33" width="10" height="2" rx="1" fill="#B4B4B4"/>
<g id="badge">
<g id="Star 1" filter="url(#filter1_d_1_893)">
<path d="M35 3L36.9919 4.52723L39.4995 4.63769L40.0437 7.088L41.8937 8.78446L40.7355 11.0113L41.0622 13.5L38.7436 14.4614L37.3941 16.5778L35 15.824L32.6059 16.5778L31.2564 14.4614L28.9378 13.5L29.2645 11.0113L28.1063 8.78446L29.9563 7.088L30.5005 4.63769L33.0081 4.52723L35 3Z" fill="#FFD12D"/>
<path d="M35.4563 2.40481C35.1871 2.1984 34.8129 2.1984 34.5437 2.40481L32.7391 3.78835L30.4675 3.88842C30.1286 3.90334 29.8419 4.14391 29.7683 4.47508L29.2753 6.69485L27.5994 8.2317C27.3494 8.46098 27.2844 8.82955 27.441 9.13052L28.4901 11.1479L28.1942 13.4024C28.1501 13.7387 28.3372 14.0629 28.6505 14.1928L30.751 15.0638L31.9735 16.9811C32.1559 17.2671 32.5075 17.3951 32.8311 17.2932L35 16.6103L37.1689 17.2932C37.4925 17.3951 37.8441 17.2671 38.0265 16.9811L39.249 15.0638L41.3495 14.1928C41.6628 14.0629 41.8499 13.7387 41.8058 13.4024L41.5099 11.1479L42.559 9.13052C42.7156 8.82955 42.6506 8.46098 42.4006 8.2317L40.7247 6.69485L40.2317 4.47508C40.1581 4.14391 39.8714 3.90334 39.5325 3.88842L37.2609 3.78835L35.4563 2.40481Z" stroke="#333333" stroke-width="1.5" stroke-linejoin="round"/>
</g>
<path id="Vector 2" d="M32 11L34.5 13L38.5 8" stroke="#333333" stroke-width="1.5" stroke-linecap="round" stroke-linejoin="round"/>
</g>
</g>
<defs>
<filter id="filter0_d_1_893" x="9" y="5" width="28" height="37" filterUnits="userSpaceOnUse" color-interpolation-filters="sRGB">
<feFlood flood-opacity="0" result="BackgroundImageFix"/>
<feColorMatrix in="SourceAlpha" type="matrix" values="0 0 0 0 0 0 0 0 0 0 0 0 0 0 0 0 0 0 127 0" result="hardAlpha"/>
<feOffset dx="1" dy="1"/>
<feComposite in2="hardAlpha" operator="out"/>
<feColorMatrix type="matrix" values="0 0 0 0 0 0 0 0 0 0 0 0 0 0 0 0 0 0 0.29 0"/>
<feBlend mode="normal" in2="BackgroundImageFix" result="effect1_dropShadow_1_893"/>
<feBlend mode="normal" in="SourceGraphic" in2="effect1_dropShadow_1_893" result="shape"/>
</filter>
<filter id="filter1_d_1_893" x="26.6063" y="1.5" width="16.7875" height="17.578" filterUnits="userSpaceOnUse" color-interpolation-filters="sRGB">
<feFlood flood-opacity="0" result="BackgroundImageFix"/>
<feColorMatrix in="SourceAlpha" type="matrix" values="0 0 0 0 0 0 0 0 0 0 0 0 0 0 0 0 0 0 127 0" result="hardAlpha"/>
<feOffset dy="1"/>
<feComposite in2="hardAlpha" operator="out"/>
<feColorMatrix type="matrix" values="0 0 0 0 1 0 0 0 0 1 0 0 0 0 1 0 0 0 1 0"/>
<feBlend mode="normal" in2="BackgroundImageFix" result="effect1_dropShadow_1_893"/>
<feBlend mode="normal" in="SourceGraphic" in2="effect1_dropShadow_1_893" result="shape"/>
</filter>
</defs>
</svg>
