<svg width="45" height="45" viewBox="0 0 45 45" fill="none" xmlns="http://www.w3.org/2000/svg">
<g id="icons/rich-table">
<rect id="icon-bg" width="45" height="45" rx="2" fill="#F3D1F4"/>
<g id="table-border" filter="url(#filter0_d_1_775)">
<path d="M8 40H37C38.1046 40 39 39.1046 39 38V8C39 6.89543 38.1046 6 37 6H31H7.9994C6.89484 6 6 6.89543 6 8V38C6 39.1046 6.89543 40 8 40Z" fill="white"/>
<path d="M37 39.25H8C7.30964 39.25 6.75 38.6904 6.75 38V8C6.75 7.30935 7.30934 6.75 7.9994 6.75H31H37C37.6904 6.75 38.25 7.30964 38.25 8V38C38.25 38.6904 37.6904 39.25 37 39.25Z" stroke="black" stroke-width="1.5"/>
</g>
<rect id="Rectangle 29" x="17" y="8" width="1" height="30" fill="#A8A8A8"/>
<rect id="Rectangle 35" x="37" y="19" width="1" height="29" transform="rotate(90 37 19)" fill="#A8A8A8"/>
<rect id="Rectangle 36" x="37" y="25" width="1" height="29" transform="rotate(90 37 25)" fill="#A8A8A8"/>
<rect id="Rectangle 37" x="37" y="31" width="1" height="29" transform="rotate(90 37 31)" fill="#A8A8A8"/>
<rect id="Rectangle 30" x="27" y="8" width="1" height="30" fill="#A8A8A8"/>
<rect id="Rectangle 34" x="37" y="13" width="1" height="29" transform="rotate(90 37 13)" fill="#6D6D6D"/>
<g id="Rectangle 31">
<rect x="8" y="8" width="9" height="5" fill="#B6E3FC"/>
<rect x="8" y="8" width="9" height="5" fill="#B6E3FC"/>
</g>
<rect id="Rectangle 32" x="18" y="8" width="9" height="5" fill="#B6FCC5"/>
<rect id="Rectangle 33" x="28" y="8" width="9" height="5" fill="#FCB6E8"/>
</g>
<defs>
<filter id="filter0_d_1_775" x="6" y="6" width="34" height="35" filterUnits="userSpaceOnUse" color-interpolation-filters="sRGB">
<feFlood flood-opacity="0" result="BackgroundImageFix"/>
<feColorMatrix in="SourceAlpha" type="matrix" values="0 0 0 0 0 0 0 0 0 0 0 0 0 0 0 0 0 0 127 0" result="hardAlpha"/>
<feOffset dx="1" dy="1"/>
<feComposite in2="hardAlpha" operator="out"/>
<feColorMatrix type="matrix" values="0 0 0 0 0 0 0 0 0 0 0 0 0 0 0 0 0 0 0.29 0"/>
<feBlend mode="normal" in2="BackgroundImageFix" result="effect1_dropShadow_1_775"/>
<feBlend mode="normal" in="SourceGraphic" in2="effect1_dropShadow_1_775" result="shape"/>
</filter>
</defs>
</svg>
