<svg width="760" height="165" viewBox="0 0 760 165" fill="none" xmlns="http://www.w3.org/2000/svg">
<rect width="760" height="165" fill="white"/>
<path d="M31.6971 138.14C30.8225 138.14 30.0171 137.938 29.2811 137.532C28.5451 137.127 27.9531 136.53 27.5051 135.74C27.0678 134.94 26.8491 133.959 26.8491 132.796C26.8491 131.644 27.0731 130.663 27.5211 129.852C27.9798 129.031 28.5825 128.407 29.3291 127.98C30.0865 127.543 30.9025 127.324 31.7771 127.324C32.4491 127.324 33.0518 127.463 33.5851 127.74C34.1185 128.007 34.5611 128.322 34.9131 128.684L33.6651 130.188C33.3985 129.943 33.1158 129.746 32.8171 129.596C32.5291 129.436 32.1985 129.356 31.8251 129.356C31.3558 129.356 30.9238 129.49 30.5291 129.756C30.1451 130.023 29.8358 130.407 29.6011 130.908C29.3771 131.41 29.2651 132.012 29.2651 132.716C29.2651 133.783 29.4945 134.615 29.9531 135.212C30.4118 135.81 31.0251 136.108 31.7931 136.108C32.2198 136.108 32.5985 136.012 32.9291 135.82C33.2705 135.628 33.5691 135.399 33.8251 135.132L35.0731 136.604C34.1985 137.628 33.0731 138.14 31.6971 138.14ZM36.6576 137.948V127.516H39.0096V131.788H39.0736L42.1776 127.516H44.7696L41.6176 131.676L45.3456 137.948H42.7696L40.2256 133.548L39.0096 135.148V137.948H36.6576ZM46.4858 137.948V127.516H53.0138V129.5H48.8378V131.596H52.3898V133.564H48.8378V135.964H53.1738V137.948H46.4858ZM57.7351 138.14C56.7538 138.14 55.9645 137.772 55.3671 137.036C54.7805 136.29 54.4871 135.271 54.4871 133.98C54.4871 133.116 54.6418 132.375 54.9511 131.756C55.2711 131.127 55.6818 130.647 56.1831 130.316C56.6951 129.986 57.2285 129.82 57.7831 129.82C58.2205 129.82 58.5885 129.895 58.8871 130.044C59.1858 130.194 59.4685 130.396 59.7351 130.652L59.6391 129.436V126.732H61.9911V137.948H60.0711L59.9111 137.164H59.8471C59.5698 137.442 59.2445 137.676 58.8711 137.868C58.4978 138.05 58.1191 138.14 57.7351 138.14ZM58.3431 136.22C58.5991 136.22 58.8285 136.167 59.0311 136.06C59.2445 135.954 59.4471 135.767 59.6391 135.5V132.252C59.4365 132.06 59.2178 131.927 58.9831 131.852C58.7591 131.778 58.5405 131.74 58.3271 131.74C57.9538 131.74 57.6231 131.922 57.3351 132.284C57.0471 132.636 56.9031 133.191 56.9031 133.948C56.9031 134.727 57.0258 135.303 57.2711 135.676C57.5271 136.039 57.8845 136.22 58.3431 136.22ZM64.075 137.948V130.012H66.427V137.948H64.075ZM65.243 128.844C64.8483 128.844 64.5283 128.732 64.283 128.508C64.0377 128.284 63.915 127.986 63.915 127.612C63.915 127.239 64.0377 126.94 64.283 126.716C64.5283 126.492 64.8483 126.38 65.243 126.38C65.6377 126.38 65.9577 126.492 66.203 126.716C66.4483 126.94 66.571 127.239 66.571 127.612C66.571 127.986 66.4483 128.284 66.203 128.508C65.9577 128.732 65.6377 128.844 65.243 128.844ZM71.5529 138.14C70.5715 138.14 69.8675 137.858 69.4409 137.292C69.0249 136.727 68.8169 135.986 68.8169 135.068V131.852H67.7289V130.108L68.9449 130.012L69.2169 127.9H71.1689V130.012H73.0729V131.852H71.1689V135.036C71.1689 135.484 71.2595 135.81 71.4409 136.012C71.6329 136.204 71.8835 136.3 72.1929 136.3C72.3209 136.3 72.4489 136.284 72.5769 136.252C72.7155 136.22 72.8382 136.183 72.9449 136.14L73.3129 137.852C73.1102 137.916 72.8595 137.98 72.5609 138.044C72.2729 138.108 71.9369 138.14 71.5529 138.14ZM77.7486 138.14C77.0766 138.14 76.442 137.98 75.8446 137.66C75.258 137.33 74.7833 136.855 74.4206 136.236C74.058 135.607 73.8766 134.855 73.8766 133.98C73.8766 133.095 74.058 132.343 74.4206 131.724C74.7833 131.106 75.258 130.636 75.8446 130.316C76.442 129.986 77.0766 129.82 77.7486 129.82C78.4206 129.82 79.05 129.986 79.6366 130.316C80.2233 130.636 80.698 131.106 81.0606 131.724C81.4233 132.343 81.6046 133.095 81.6046 133.98C81.6046 134.855 81.4233 135.607 81.0606 136.236C80.698 136.855 80.2233 137.33 79.6366 137.66C79.05 137.98 78.4206 138.14 77.7486 138.14ZM77.7486 136.236C78.2286 136.236 78.5913 136.034 78.8366 135.628C79.082 135.212 79.2046 134.663 79.2046 133.98C79.2046 133.287 79.082 132.738 78.8366 132.332C78.5913 131.927 78.2286 131.724 77.7486 131.724C77.258 131.724 76.89 131.927 76.6446 132.332C76.41 132.738 76.2926 133.287 76.2926 133.98C76.2926 134.663 76.41 135.212 76.6446 135.628C76.89 136.034 77.258 136.236 77.7486 136.236ZM83.2156 137.948V130.012H85.1356L85.2956 131.404H85.3596C85.6476 130.871 85.9943 130.476 86.3996 130.22C86.805 129.954 87.2103 129.82 87.6156 129.82C87.8396 129.82 88.0263 129.836 88.1756 129.868C88.325 129.89 88.453 129.927 88.5596 129.98L88.1756 132.012C88.037 131.97 87.8983 131.938 87.7596 131.916C87.6316 131.895 87.4823 131.884 87.3116 131.884C87.013 131.884 86.6983 131.996 86.3676 132.22C86.0476 132.434 85.781 132.807 85.5676 133.34V137.948H83.2156ZM95.7058 138.14C94.8738 138.14 94.1698 138.002 93.5938 137.724C93.0178 137.447 92.5271 137.111 92.1218 136.716L93.1778 135.228C93.4871 135.506 93.8231 135.746 94.1858 135.948C94.5484 136.14 94.9431 136.236 95.3698 136.236C95.8924 136.236 96.3084 136.103 96.6178 135.836C96.9271 135.57 97.0818 135.175 97.0818 134.652C97.0818 134.14 96.9324 133.751 96.6338 133.484C96.3351 133.218 95.9511 133.084 95.4818 133.084C95.1831 133.084 94.9324 133.122 94.7298 133.196C94.5378 133.271 94.2871 133.404 93.9778 133.596L92.9218 132.924L93.2098 127.788H98.9698V129.772H95.2418L95.0658 131.676C95.4178 131.516 95.7964 131.436 96.2018 131.436C96.7884 131.436 97.3218 131.548 97.8018 131.772C98.2924 131.996 98.6871 132.343 98.9858 132.812C99.2844 133.271 99.4338 133.863 99.4338 134.588C99.4338 135.335 99.2578 135.975 98.9058 136.508C98.5644 137.042 98.1111 137.447 97.5458 137.724C96.9804 138.002 96.3671 138.14 95.7058 138.14ZM105.778 137.948L103.794 130.012H106.13L106.898 133.692C106.962 134.087 107.021 134.476 107.074 134.86C107.127 135.244 107.186 135.639 107.25 136.044H107.314C107.389 135.639 107.458 135.239 107.522 134.844C107.597 134.45 107.682 134.066 107.778 133.692L108.658 130.012H110.69L111.586 133.692C111.682 134.087 111.767 134.476 111.842 134.86C111.927 135.244 112.007 135.639 112.082 136.044H112.146C112.221 135.639 112.279 135.244 112.322 134.86C112.375 134.476 112.439 134.087 112.514 133.692L113.266 130.012H115.442L113.538 137.948H110.786L110.066 134.78C109.991 134.407 109.917 134.034 109.842 133.66C109.778 133.287 109.709 132.887 109.634 132.46H109.57C109.495 132.887 109.426 133.287 109.362 133.66C109.309 134.034 109.245 134.407 109.17 134.78L108.466 137.948H105.778ZM116.872 137.948V130.012H119.224V137.948H116.872ZM118.04 128.844C117.645 128.844 117.325 128.732 117.08 128.508C116.835 128.284 116.712 127.986 116.712 127.612C116.712 127.239 116.835 126.94 117.08 126.716C117.325 126.492 117.645 126.38 118.04 126.38C118.435 126.38 118.755 126.492 119 126.716C119.245 126.94 119.368 127.239 119.368 127.612C119.368 127.986 119.245 128.284 119 128.508C118.755 128.732 118.435 128.844 118.04 128.844ZM124.35 138.14C123.368 138.14 122.664 137.858 122.238 137.292C121.822 136.727 121.614 135.986 121.614 135.068V131.852H120.526V130.108L121.742 130.012L122.014 127.9H123.966V130.012H125.87V131.852H123.966V135.036C123.966 135.484 124.056 135.81 124.238 136.012C124.43 136.204 124.68 136.3 124.99 136.3C125.118 136.3 125.246 136.284 125.374 136.252C125.512 136.22 125.635 136.183 125.742 136.14L126.11 137.852C125.907 137.916 125.656 137.98 125.358 138.044C125.07 138.108 124.734 138.14 124.35 138.14ZM127.419 137.948V126.732H129.771V129.484L129.659 130.908C129.957 130.642 130.304 130.396 130.699 130.172C131.104 129.938 131.573 129.82 132.107 129.82C132.971 129.82 133.595 130.108 133.979 130.684C134.373 131.25 134.571 132.028 134.571 133.02V137.948H132.219V133.324C132.219 132.748 132.139 132.354 131.979 132.14C131.829 131.927 131.584 131.82 131.243 131.82C130.944 131.82 130.688 131.89 130.475 132.028C130.261 132.156 130.027 132.343 129.771 132.588V137.948H127.419ZM142.403 132.668L142.147 133.628H144.371L144.131 132.668C143.992 132.146 143.848 131.591 143.699 131.004C143.56 130.418 143.421 129.852 143.283 129.308H143.219C143.091 129.863 142.957 130.434 142.819 131.02C142.691 131.596 142.552 132.146 142.403 132.668ZM138.627 137.948L141.891 127.516H144.723L147.987 137.948H145.491L144.851 135.468H141.667L141.027 137.948H138.627ZM149.126 137.948V127.516H151.478V137.948H149.126ZM60.9338 152.668L60.6778 153.628H62.9018L62.6618 152.668C62.5231 152.146 62.3791 151.591 62.2298 151.004C62.0911 150.418 61.9524 149.852 61.8138 149.308H61.7498C61.6218 149.863 61.4884 150.434 61.3498 151.02C61.2218 151.596 61.0831 152.146 60.9338 152.668ZM57.1578 157.948L60.4218 147.516H63.2538L66.5178 157.948H64.0218L63.3818 155.468H60.1978L59.5578 157.948H57.1578ZM70.0204 158.14C69.4977 158.14 68.959 158.039 68.4044 157.836C67.8604 157.634 67.3857 157.367 66.9804 157.036L68.0364 155.564C68.399 155.831 68.7457 156.039 69.0764 156.188C69.4177 156.327 69.7537 156.396 70.0844 156.396C70.4364 156.396 70.6924 156.338 70.8524 156.22C71.0124 156.092 71.0924 155.927 71.0924 155.724C71.0924 155.543 71.0124 155.394 70.8524 155.276C70.703 155.159 70.5057 155.052 70.2604 154.956C70.015 154.85 69.7537 154.743 69.4764 154.636C69.1564 154.508 68.8364 154.348 68.5164 154.156C68.207 153.964 67.9457 153.719 67.7324 153.42C67.519 153.111 67.4124 152.738 67.4124 152.3C67.4124 151.564 67.6897 150.967 68.2444 150.508C68.8097 150.05 69.5457 149.82 70.4524 149.82C71.0604 149.82 71.5937 149.927 72.0524 150.14C72.5217 150.343 72.9217 150.572 73.2524 150.828L72.1964 152.236C71.919 152.023 71.6417 151.858 71.3644 151.74C71.087 151.623 70.8097 151.564 70.5324 151.564C69.9244 151.564 69.6204 151.772 69.6204 152.188C69.6204 152.444 69.7697 152.642 70.0684 152.78C70.3777 152.908 70.735 153.047 71.1404 153.196C71.4817 153.314 71.8124 153.468 72.1324 153.66C72.463 153.842 72.735 154.087 72.9484 154.396C73.1724 154.695 73.2844 155.09 73.2844 155.58C73.2844 156.295 73.007 156.903 72.4524 157.404C71.8977 157.895 71.087 158.14 70.0204 158.14ZM77.1141 158.14C76.5915 158.14 76.0528 158.039 75.4981 157.836C74.9541 157.634 74.4795 157.367 74.0741 157.036L75.1301 155.564C75.4928 155.831 75.8395 156.039 76.1701 156.188C76.5115 156.327 76.8475 156.396 77.1781 156.396C77.5301 156.396 77.7861 156.338 77.9461 156.22C78.1061 156.092 78.1861 155.927 78.1861 155.724C78.1861 155.543 78.1061 155.394 77.9461 155.276C77.7968 155.159 77.5995 155.052 77.3541 154.956C77.1088 154.85 76.8475 154.743 76.5701 154.636C76.2501 154.508 75.9301 154.348 75.6101 154.156C75.3008 153.964 75.0395 153.719 74.8261 153.42C74.6128 153.111 74.5061 152.738 74.5061 152.3C74.5061 151.564 74.7835 150.967 75.3381 150.508C75.9035 150.05 76.6395 149.82 77.5461 149.82C78.1541 149.82 78.6875 149.927 79.1461 150.14C79.6155 150.343 80.0155 150.572 80.3461 150.828L79.2901 152.236C79.0128 152.023 78.7355 151.858 78.4581 151.74C78.1808 151.623 77.9035 151.564 77.6261 151.564C77.0181 151.564 76.7141 151.772 76.7141 152.188C76.7141 152.444 76.8635 152.642 77.1621 152.78C77.4715 152.908 77.8288 153.047 78.2341 153.196C78.5755 153.314 78.9061 153.468 79.2261 153.66C79.5568 153.842 79.8288 154.087 80.0421 154.396C80.2661 154.695 80.3781 155.09 80.3781 155.58C80.3781 156.295 80.1008 156.903 79.5461 157.404C78.9915 157.895 78.1808 158.14 77.1141 158.14ZM81.8719 157.948V150.012H84.2239V157.948H81.8719ZM83.0399 148.844C82.6452 148.844 82.3252 148.732 82.0799 148.508C81.8345 148.284 81.7119 147.986 81.7119 147.612C81.7119 147.239 81.8345 146.94 82.0799 146.716C82.3252 146.492 82.6452 146.38 83.0399 146.38C83.4345 146.38 83.7545 146.492 83.9999 146.716C84.2452 146.94 84.3679 147.239 84.3679 147.612C84.3679 147.986 84.2452 148.284 83.9999 148.508C83.7545 148.732 83.4345 148.844 83.0399 148.844ZM88.6298 158.14C88.1071 158.14 87.5684 158.039 87.0138 157.836C86.4698 157.634 85.9951 157.367 85.5898 157.036L86.6458 155.564C87.0084 155.831 87.3551 156.039 87.6858 156.188C88.0271 156.327 88.3631 156.396 88.6938 156.396C89.0458 156.396 89.3018 156.338 89.4618 156.22C89.6218 156.092 89.7018 155.927 89.7018 155.724C89.7018 155.543 89.6218 155.394 89.4618 155.276C89.3124 155.159 89.1151 155.052 88.8698 154.956C88.6244 154.85 88.3631 154.743 88.0858 154.636C87.7658 154.508 87.4458 154.348 87.1258 154.156C86.8164 153.964 86.5551 153.719 86.3418 153.42C86.1284 153.111 86.0218 152.738 86.0218 152.3C86.0218 151.564 86.2991 150.967 86.8538 150.508C87.4191 150.05 88.1551 149.82 89.0618 149.82C89.6698 149.82 90.2031 149.927 90.6618 150.14C91.1311 150.343 91.5311 150.572 91.8618 150.828L90.8058 152.236C90.5284 152.023 90.2511 151.858 89.9738 151.74C89.6964 151.623 89.4191 151.564 89.1418 151.564C88.5338 151.564 88.2298 151.772 88.2298 152.188C88.2298 152.444 88.3791 152.642 88.6778 152.78C88.9871 152.908 89.3444 153.047 89.7498 153.196C90.0911 153.314 90.4218 153.468 90.7418 153.66C91.0724 153.842 91.3444 154.087 91.5578 154.396C91.7818 154.695 91.8938 155.09 91.8938 155.58C91.8938 156.295 91.6164 156.903 91.0618 157.404C90.5071 157.895 89.6964 158.14 88.6298 158.14ZM96.131 158.14C95.1497 158.14 94.4457 157.858 94.019 157.292C93.603 156.727 93.395 155.986 93.395 155.068V151.852H92.307V150.108L93.523 150.012L93.795 147.9H95.747V150.012H97.651V151.852H95.747V155.036C95.747 155.484 95.8377 155.81 96.019 156.012C96.211 156.204 96.4617 156.3 96.771 156.3C96.899 156.3 97.027 156.284 97.155 156.252C97.2937 156.22 97.4163 156.183 97.523 156.14L97.891 157.852C97.6883 157.916 97.4377 157.98 97.139 158.044C96.851 158.108 96.515 158.14 96.131 158.14ZM100.888 158.14C100.162 158.14 99.5862 157.911 99.1595 157.452C98.7328 156.983 98.5195 156.412 98.5195 155.74C98.5195 154.908 98.8715 154.258 99.5755 153.788C100.28 153.319 101.416 153.004 102.984 152.844C102.962 152.492 102.856 152.215 102.664 152.012C102.482 151.799 102.173 151.692 101.736 151.692C101.405 151.692 101.069 151.756 100.728 151.884C100.386 152.012 100.024 152.188 99.6395 152.412L98.7915 150.86C99.2928 150.551 99.8262 150.3 100.392 150.108C100.968 149.916 101.565 149.82 102.184 149.82C103.197 149.82 103.976 150.114 104.52 150.7C105.064 151.287 105.336 152.188 105.336 153.404V157.948H103.416L103.256 157.132H103.192C102.861 157.431 102.504 157.676 102.12 157.868C101.746 158.05 101.336 158.14 100.888 158.14ZM101.688 156.316C101.954 156.316 102.184 156.258 102.376 156.14C102.578 156.012 102.781 155.847 102.984 155.644V154.252C102.152 154.359 101.576 154.53 101.256 154.764C100.936 154.988 100.776 155.255 100.776 155.564C100.776 155.82 100.856 156.012 101.016 156.14C101.186 156.258 101.41 156.316 101.688 156.316ZM107.325 157.948V150.012H109.245L109.405 151.02H109.469C109.81 150.7 110.184 150.423 110.589 150.188C111.005 149.943 111.48 149.82 112.013 149.82C112.877 149.82 113.501 150.108 113.885 150.684C114.28 151.25 114.477 152.028 114.477 153.02V157.948H112.125V153.324C112.125 152.748 112.045 152.354 111.885 152.14C111.736 151.927 111.49 151.82 111.149 151.82C110.85 151.82 110.594 151.89 110.381 152.028C110.168 152.156 109.933 152.343 109.677 152.588V157.948H107.325ZM119.537 158.14C118.556 158.14 117.852 157.858 117.425 157.292C117.009 156.727 116.801 155.986 116.801 155.068V151.852H115.713V150.108L116.929 150.012L117.201 147.9H119.153V150.012H121.057V151.852H119.153V155.036C119.153 155.484 119.244 155.81 119.425 156.012C119.617 156.204 119.868 156.3 120.177 156.3C120.305 156.3 120.433 156.284 120.561 156.252C120.7 156.22 120.823 156.183 120.929 156.14L121.297 157.852C121.095 157.916 120.844 157.98 120.545 158.044C120.257 158.108 119.921 158.14 119.537 158.14Z" fill="#7586A4"/>
<rect x="23.41" y="1.55151" width="134.18" height="85.6276" rx="8.5" stroke="#7586A4" stroke-width="3"/>
<path d="M71.2499 87.7552H108.681C109.37 87.7552 109.97 88.2236 110.137 88.8914L111.643 94.9182C111.81 95.5855 112.081 96.222 112.448 96.8041L114.839 100.604C115.468 101.603 114.75 102.903 113.57 102.903H66.3613C65.1811 102.903 64.4631 101.603 65.0918 100.604L67.4834 96.8041C67.8498 96.222 68.1214 95.5855 68.2882 94.9182L69.7947 88.8914C69.9616 88.2236 70.5616 87.7552 71.2499 87.7552Z" stroke="#7586A4" stroke-width="3"/>
<path d="M101.307 35.4646C101.307 35.9537 101.318 36.4315 101.34 36.8982C101.353 37.1973 101.374 37.4946 101.396 37.7907C100.983 37.4924 100.526 37.2625 100.042 37.1097C99.3389 36.8869 98.6061 36.7744 97.8692 36.7762C97.0893 36.7496 96.3155 36.9254 95.6207 37.2872C94.9743 37.6795 94.4932 38.301 94.2697 39.0323C93.9739 39.8546 93.826 40.9993 93.826 42.4663C93.826 44.3484 94.1178 45.7932 94.7015 46.8006C95.2852 47.808 96.2618 48.3117 97.6313 48.312C98.5225 48.3421 99.4048 48.1231 100.182 47.6787C100.765 47.3295 101.281 46.8748 101.703 46.3372L101.977 48.0456H104.506V32.4859H101.306L101.307 35.4646ZM99.8803 45.5006C99.5633 45.5878 99.2357 45.629 98.9073 45.623C98.548 45.6384 98.1919 45.5496 97.8802 45.3671C97.5771 45.1417 97.3686 44.8084 97.2963 44.4335C97.1535 43.7808 97.0918 43.1125 97.1127 42.4442C97.09 41.7349 97.1554 41.0256 97.3074 40.333C97.379 39.9464 97.596 39.6034 97.9124 39.3771C98.2456 39.1998 98.619 39.1155 98.9945 39.1328C99.4547 39.1249 99.9136 39.1847 100.357 39.3104C100.646 39.3987 100.963 39.495 101.308 39.5993V44.7207C101.09 44.8727 100.887 45.008 100.703 45.1229C100.446 45.2853 100.17 45.4123 99.8803 45.5006Z" fill="#7586A4"/>
<path d="M109.106 32.4718L107.722 32.4807C107.088 32.4848 106.773 32.8168 106.777 33.4767L106.785 34.6425C106.789 35.3027 107.108 35.6307 107.742 35.6264L109.125 35.6176C109.76 35.6135 110.075 35.2815 110.071 34.6215L110.064 33.4557C110.06 32.7957 109.74 32.4677 109.106 32.4718Z" fill="#7586A4"/>
<path d="M110.024 37.1114L106.845 37.1319L106.913 48.1266L110.092 48.1061L110.024 37.1114Z" fill="#7586A4"/>
<path d="M116.879 34.0544L113.657 34.0749L113.682 37.0998L111.816 37.2108L111.829 39.2347L113.698 39.2227L113.747 45.2065C113.753 46.1603 114.028 46.8992 114.572 47.4231C115.116 47.9471 115.871 48.2063 116.836 48.2007C117.096 48.1991 117.412 48.1787 117.787 48.1398C118.161 48.1008 118.536 48.047 118.911 47.9784C119.232 47.9232 119.55 47.8441 119.861 47.7414L119.5 45.5437L118.117 45.5525C117.797 45.5849 117.477 45.4969 117.218 45.3052C117.117 45.1914 117.04 45.0575 116.993 44.912C116.945 44.7665 116.928 44.6126 116.942 44.4599L116.91 39.2025L119.894 39.1833L119.88 37.0489L116.897 37.068L116.879 34.0544Z" fill="#7586A4"/>
<path d="M129.895 37.261C129.086 36.8917 128.01 36.7114 126.67 36.72C125.344 36.7285 124.275 36.9226 123.463 37.3022C122.671 37.6602 122.044 38.3138 121.712 39.1283C121.356 39.9666 121.184 41.0897 121.192 42.4976C121.2 43.8757 121.388 44.9817 121.753 45.816C122.094 46.6248 122.73 47.2675 123.527 47.6087C124.343 47.97 125.415 48.1465 126.74 48.1381C128.081 48.1296 129.155 47.9393 129.959 47.5676C130.746 47.2147 131.366 46.5635 131.689 45.7525C132.036 44.914 132.207 43.8056 132.197 42.4272C132.189 41.0192 132.006 39.8984 131.647 39.0647C131.313 38.2564 130.686 37.6103 129.895 37.261ZM128.686 44.4961C128.648 44.7005 128.569 44.8948 128.454 45.0675C128.34 45.2402 128.193 45.3877 128.021 45.5013C127.613 45.6853 127.172 45.7818 126.726 45.7847C126.279 45.7876 125.837 45.6968 125.427 45.518C125.254 45.4067 125.105 45.2611 124.988 45.0899C124.872 44.9187 124.791 44.7253 124.751 44.5213C124.597 43.8514 124.527 43.1645 124.543 42.4768C124.518 41.7823 124.579 41.0873 124.725 40.4084C124.764 40.2031 124.843 40.0078 124.957 39.8339C125.072 39.6596 125.218 39.51 125.389 39.3935C125.795 39.2024 126.236 39.102 126.684 39.0991C127.132 39.0962 127.575 39.1909 127.984 39.3769C128.156 39.4912 128.305 39.639 128.42 39.8117C128.536 39.9846 128.618 40.1789 128.66 40.3837C128.814 41.0608 128.883 41.7547 128.868 42.4494C128.891 43.1369 128.83 43.8242 128.686 44.4961Z" fill="#7586A4"/>
<path d="M141.502 36.6242C140.729 36.6415 139.97 36.8318 139.278 37.1814C138.508 37.5649 137.796 38.0584 137.164 38.6469L136.855 36.9482L134.346 36.9642L134.416 48.1407L137.615 48.1202L137.569 40.5389C138.26 40.2902 138.842 40.0987 139.317 39.9643C139.83 39.8152 140.36 39.7359 140.894 39.7284L141.78 39.7227L142.064 36.621L141.502 36.6242Z" fill="#7586A4"/>
<path d="M82.3034 47.3657C81.2682 45.6733 80.2331 43.9808 79.1979 42.2884C79.0967 42.111 78.9831 41.9412 78.858 41.7805C78.6796 41.5656 78.4789 41.3708 78.2594 41.1996C78.2807 41.1662 78.3089 41.1377 78.3419 41.1163C78.5927 40.9008 78.8108 40.6491 78.9896 40.369C80.1386 38.5573 81.2878 36.7456 82.4373 34.934C82.4568 34.9032 82.4872 34.8767 82.4855 34.8366C82.4658 34.8161 82.444 34.8231 82.4243 34.8229C81.3376 34.8217 80.2509 34.8199 79.1642 34.8176C79.1336 34.8161 79.1034 34.8239 79.0771 34.8399C79.0508 34.8559 79.0297 34.8796 79.0166 34.9078C78.447 35.8342 77.8764 36.7599 77.3048 37.6849C76.852 38.4192 76.398 39.152 75.9491 39.8883C75.9293 39.9294 75.8974 39.9632 75.8577 39.9848C75.8181 40.0063 75.7727 40.0146 75.7283 40.0084C75.5359 39.9981 75.3426 40.0061 75.1495 40.0048C75.1134 40.0048 75.0744 40.0174 75.0404 39.9902C75.0436 39.9519 75.045 39.9131 75.0505 39.8752C75.1155 39.4092 75.1454 38.9387 75.14 38.468V34.8856C75.14 34.844 75.1242 34.8208 75.0807 34.8227H75.0175L72.1468 34.8201C71.9812 34.8201 72.002 34.8003 72.002 34.9721V47.901C72.002 47.9312 72.0033 47.9612 72.002 47.9912C72 48.0281 72.0144 48.0468 72.0524 48.0456H74.998C75.1611 48.0456 75.1398 48.0594 75.1398 47.9028V43.512C75.1398 43.401 75.134 43.2898 75.1305 43.1784C75.1154 42.8975 75.0831 42.6178 75.0338 42.341H75.1506C75.3564 42.341 75.5621 42.3465 75.7674 42.3385C75.8018 42.3349 75.8364 42.3426 75.8661 42.3606C75.8959 42.3786 75.9191 42.406 75.9323 42.4386C76.9876 44.268 78.0438 46.097 79.1009 47.9254C79.1182 47.9649 79.1471 47.998 79.1837 48.02C79.2201 48.0422 79.2624 48.0522 79.3047 48.0489C80.3954 48.0442 81.4864 48.046 82.5772 48.0457C82.6176 48.0457 82.6572 48.0423 82.7118 48.0399C82.6947 48.0091 82.6854 47.9919 82.675 47.9747L82.3034 47.3657Z" fill="#7586A4"/>
<path d="M92.2162 45.6179C92.2069 45.4584 92.21 45.4584 92.0557 45.4584H87.2976C87.1928 45.459 87.088 45.4515 86.9843 45.4359C86.8706 45.4263 86.7626 45.3808 86.6755 45.3059C86.5885 45.2308 86.5266 45.1299 86.4985 45.0174C86.4702 44.9191 86.4553 44.8173 86.4543 44.7149C86.4543 43.951 86.4536 43.1871 86.4524 42.4232C86.4524 42.3596 86.4651 42.3261 86.5343 42.3353C86.5637 42.3373 86.5932 42.3373 86.6226 42.3353H91.3807C91.41 42.3353 91.4398 42.3328 91.4693 42.3353C91.5269 42.3412 91.5427 42.3113 91.538 42.2591C91.5359 42.2334 91.538 42.2078 91.538 42.1826V40.1215C91.538 39.9437 91.5632 39.9643 91.3868 39.9643H86.5782C86.4381 39.9643 86.4551 39.9717 86.4551 39.8429V38.1659C86.4552 38.072 86.4635 37.9784 86.48 37.8861C86.4951 37.762 86.5499 37.6464 86.636 37.5571C86.722 37.4678 86.8345 37.4097 86.9561 37.3918C87.0508 37.3744 87.147 37.3669 87.2432 37.3694H92.0519C92.0812 37.3694 92.1106 37.3671 92.14 37.3694C92.1877 37.3734 92.2098 37.3518 92.2113 37.3044C92.2113 37.2788 92.2161 37.2531 92.2177 37.2279C92.2371 36.896 92.2562 36.5638 92.2753 36.2315C92.2974 35.8653 92.3231 35.4995 92.344 35.1338C92.3534 34.962 92.3493 34.9584 92.1815 34.9442C91.7513 34.9083 91.32 34.8685 90.8908 34.8432C90.4616 34.8178 90.0274 34.8011 89.5955 34.7919C88.4419 34.7672 87.2882 34.7566 86.1343 34.7602C85.8199 34.7586 85.5069 34.8021 85.2044 34.8893C84.8609 34.9811 84.5402 35.1454 84.2631 35.3715C83.9861 35.5977 83.7588 35.8806 83.5961 36.2019C83.4003 36.5954 83.3018 37.0316 83.3091 37.4727C83.3074 38.7827 83.3074 40.0926 83.3091 41.4024V45.243C83.3079 45.3879 83.3153 45.5329 83.3312 45.677C83.37 46.1148 83.5195 46.5349 83.7652 46.8965C84.0108 47.2582 84.3443 47.5489 84.7332 47.7404C85.1817 47.9665 85.6782 48.0757 86.1785 48.0584C87.6716 48.0481 89.1654 48.0627 90.6573 47.9744C91.1976 47.9422 91.7372 47.9062 92.2761 47.8665C92.3323 47.8623 92.358 47.8508 92.3527 47.7849C92.337 47.5766 92.3287 47.3678 92.3161 47.1592C92.2803 46.648 92.2467 46.1331 92.2162 45.6179Z" fill="#7586A4"/>
<path d="M70.5878 47.3429C70.5045 46.6247 70.4215 45.9066 70.3389 45.1885C70.3323 45.1286 70.3125 45.1064 70.2533 45.1139C70.108 45.1313 69.9624 45.1489 69.8165 45.1623C69.3072 45.2085 68.7969 45.2457 68.2862 45.261C67.6237 45.2803 66.9613 45.2994 66.2988 45.291C66.0686 45.2898 65.8392 45.2642 65.6142 45.2147C65.2655 45.1538 64.95 44.967 64.7256 44.6886C64.5789 44.4892 64.468 44.2651 64.3979 44.0264C64.2551 43.5212 64.1716 43.0004 64.1491 42.4752C64.1133 41.9755 64.115 41.4748 64.1198 40.9741C64.1203 40.4017 64.1634 39.8301 64.2487 39.2643C64.2938 38.9478 64.3779 38.6384 64.4993 38.3434C64.5851 38.1224 64.7228 37.9262 64.9001 37.7716C65.0786 37.6162 65.2913 37.5069 65.5201 37.453C65.7762 37.3889 66.0391 37.3568 66.3027 37.3577C67.5393 37.3548 68.776 37.3644 70.0126 37.4568C70.055 37.4598 70.0766 37.4465 70.0822 37.406C70.085 37.3855 70.0863 37.364 70.0885 37.3432C70.1279 36.9752 70.1672 36.6074 70.2063 36.2398C70.244 35.8853 70.2789 35.5289 70.3192 35.1739C70.3268 35.1057 70.3091 35.0816 70.2418 35.0611C69.4623 34.8318 68.6602 34.6907 67.8503 34.6405C67.3864 34.6072 66.92 34.6028 66.4545 34.6007C65.9809 34.594 65.5073 34.6214 65.0375 34.6827C64.6192 34.7379 64.2069 34.8322 63.8056 34.9645C63.2014 35.1551 62.6541 35.4973 62.214 35.9597C61.8485 36.3592 61.5645 36.8284 61.3781 37.3402C61.1263 38.0487 60.9666 38.7878 60.9032 39.5384C60.8437 40.1107 60.8168 40.6859 60.8226 41.2613C60.8098 42.1252 60.8698 42.9885 61.002 43.842C61.0789 44.3448 61.2063 44.8383 61.3822 45.3148C61.5755 45.8727 61.8949 46.3766 62.3146 46.7859C62.7368 47.1977 63.247 47.5042 63.8052 47.6815C64.4832 47.9029 65.1893 48.0224 65.9011 48.036C66.9402 48.0786 67.981 48.0226 69.01 47.8689C69.5204 47.7824 70.0249 47.6624 70.5202 47.5098C70.5797 47.4919 70.6138 47.4623 70.594 47.3941C70.5905 47.3773 70.5884 47.3601 70.5878 47.3429Z" fill="#7586A4"/>
<path d="M50.6322 45.8904C50.2048 45.9444 49.7929 46.0873 49.4223 46.3104C48.9698 46.5755 48.5899 46.9518 48.3173 47.405C48.2317 47.55 47.7526 48.486 47.7526 48.486L46.1045 51.5509L46.1219 51.5633C46.1985 51.6139 46.28 51.6564 46.365 51.6904C46.6148 51.7817 46.8776 51.8308 47.143 51.8358C48.1397 51.8819 49.1368 51.8221 50.1336 51.8295C50.705 51.8479 51.2769 51.8338 51.8465 51.7871C52.1208 51.773 52.388 51.6933 52.6263 51.5544C52.8709 51.4116 53.081 51.215 53.2414 50.9792C53.3509 50.8144 53.4649 50.6522 53.5641 50.4814C54.0382 49.6627 54.5098 48.843 54.9788 48.0225C55.1266 47.7651 55.2713 47.506 55.4165 47.2479C55.4895 47.1192 55.5651 46.9913 55.6384 46.8617C55.8241 46.5474 55.9275 46.19 55.9389 45.8235L53.3692 45.8698C53.3692 45.8698 50.8886 45.8595 50.6322 45.8904Z" fill="#7586A4"/>
<path d="M44.3877 50.6102L45.8874 47.8216C45.8874 47.8216 46.058 47.4881 46.2495 47.1175C46.0047 46.9829 45.7655 46.8371 45.5257 46.694C44.8429 46.287 44.1335 45.9263 43.4659 45.4927C43.2846 45.382 43.1223 45.2418 42.9855 45.0778C42.7721 44.8083 42.7166 44.4871 42.6999 44.1557C42.6587 43.3349 42.6977 42.5142 42.6837 41.6935C42.677 41.3027 42.6837 40.9119 42.6885 40.5209C42.6966 39.8746 42.991 39.4119 43.5309 39.0905C44.0786 38.7645 44.6258 38.4379 45.1726 38.1108C45.6067 37.8525 46.0416 37.5955 46.4771 37.3398C46.5771 37.2815 46.6843 37.236 46.7886 37.1859C47.3249 36.928 47.812 37.0907 48.2866 37.3565C48.3168 37.3735 48.3452 37.3932 48.3745 37.4116C48.6163 37.5306 48.8519 37.662 49.0803 37.8056C49.7067 38.1624 50.3318 38.5214 50.9557 38.8828C51.1437 38.9939 51.3248 39.1166 51.498 39.2502C51.8804 39.539 51.9989 39.9524 52.0234 40.4095C52.0537 40.9796 52.036 41.5505 52.0335 42.1211C52.0315 42.6813 52.0417 43.241 52.0355 43.8014C53.2007 43.7961 54.5158 43.8014 54.5158 43.8014L55.9413 43.7758C55.9358 43.1902 55.928 42.6046 55.9279 42.0189C55.9279 40.9684 55.9568 39.9174 55.8968 38.8674C55.8487 38.0249 55.6289 37.263 54.9256 36.7286C54.6072 36.4814 54.2743 36.2542 53.9288 36.048C52.7821 35.3793 51.6338 34.7134 50.4837 34.0505C50.0535 33.8032 49.6415 33.5222 49.1866 33.32C49.1327 33.2858 49.0803 33.2495 49.0253 33.2182C48.1533 32.7257 47.2592 32.4223 46.2776 32.8934C46.0865 32.9852 45.8903 33.0677 45.7075 33.175C44.9098 33.6409 44.1143 34.111 43.3211 34.5852C42.3192 35.1814 41.318 35.7789 40.3178 36.3775C39.3296 36.9658 38.7933 37.815 38.7831 39.0055C38.7768 39.7253 38.7671 40.445 38.7821 41.1646C38.8136 42.676 38.7477 44.1884 38.8288 45.699C38.8616 46.3094 38.9658 46.9011 39.3588 47.3989C39.6106 47.7018 39.9091 47.961 40.2426 48.1664C41.4694 48.9697 42.7725 49.6387 44.0273 50.3926C44.1476 50.465 44.2677 50.5376 44.3877 50.6102Z" fill="#7586A4"/>
<path d="M31.91 1.55151H148.928C153.623 1.55151 157.428 5.35708 157.428 10.0515V74.7737H23.41V10.0515C23.41 5.35709 27.2156 1.55151 31.91 1.55151Z" stroke="#7586A4" stroke-width="3"/>
<ellipse cx="91.7802" cy="80.8107" rx="2.72222" ry="2.72222" fill="#7586A4"/>
<path d="M179.475 43H279.975" stroke="#7586A4" stroke-width="3" stroke-linejoin="round"/>
<path d="M271.646 38L279.975 43L271.646 48" stroke="#7586A4" stroke-width="3" stroke-linecap="round" stroke-linejoin="round"/>
<path d="M187.804 48L179.475 43L187.804 38" stroke="#7586A4" stroke-width="3" stroke-linecap="round" stroke-linejoin="round"/>
<rect x="307.769" y="1.5" width="123.822" height="20.9933" rx="3.5" stroke="#7586A4" stroke-width="3"/>
<rect x="316.266" y="9.42595" width="42.8452" height="5.14143" rx="2.57071" fill="#7586A4"/>
<circle cx="400.529" cy="11.9967" r="2.57071" fill="#7586A4"/>
<circle cx="409.098" cy="11.9967" r="2.57071" fill="#7586A4"/>
<circle cx="417.667" cy="11.9967" r="2.57071" fill="#7586A4"/>
<rect x="307.769" y="32.3486" width="123.822" height="20.9933" rx="3.5" stroke="#7586A4" stroke-width="3"/>
<rect x="316.266" y="40.2745" width="42.8452" height="5.14143" rx="2.57071" fill="#7586A4"/>
<circle cx="400.529" cy="42.8452" r="2.57071" fill="#7586A4"/>
<circle cx="409.098" cy="42.8452" r="2.57071" fill="#7586A4"/>
<circle cx="417.667" cy="42.8452" r="2.57071" fill="#7586A4"/>
<rect x="307.769" y="63.1971" width="123.822" height="20.9933" rx="3.5" stroke="#7586A4" stroke-width="3"/>
<rect x="316.266" y="71.1231" width="42.8452" height="5.14143" rx="2.57071" fill="#7586A4"/>
<circle cx="400.529" cy="73.6938" r="2.57071" fill="#7586A4"/>
<circle cx="409.098" cy="73.6938" r="2.57071" fill="#7586A4"/>
<circle cx="417.667" cy="73.6938" r="2.57071" fill="#7586A4"/>
<path d="M326.662 138V127.568H330.246C331.014 127.568 331.707 127.675 332.326 127.888C332.955 128.091 333.457 128.437 333.83 128.928C334.203 129.419 334.39 130.085 334.39 130.928C334.39 131.739 334.203 132.405 333.83 132.928C333.457 133.451 332.961 133.84 332.342 134.096C331.723 134.341 331.046 134.464 330.31 134.464H329.014V138H326.662ZM329.014 132.592H330.166C331.446 132.592 332.086 132.037 332.086 130.928C332.086 130.384 331.915 130 331.574 129.776C331.233 129.552 330.742 129.44 330.102 129.44H329.014V132.592ZM336.001 138V130.064H337.921L338.081 131.456H338.145C338.433 130.923 338.78 130.528 339.185 130.272C339.591 130.005 339.996 129.872 340.401 129.872C340.625 129.872 340.812 129.888 340.961 129.92C341.111 129.941 341.239 129.979 341.345 130.032L340.961 132.064C340.823 132.021 340.684 131.989 340.545 131.968C340.417 131.947 340.268 131.936 340.097 131.936C339.799 131.936 339.484 132.048 339.153 132.272C338.833 132.485 338.567 132.859 338.353 133.392V138H336.001ZM345.628 138.192C344.956 138.192 344.321 138.032 343.724 137.712C343.137 137.381 342.663 136.907 342.3 136.288C341.937 135.659 341.756 134.907 341.756 134.032C341.756 133.147 341.937 132.395 342.3 131.776C342.663 131.157 343.137 130.688 343.724 130.368C344.321 130.037 344.956 129.872 345.628 129.872C346.3 129.872 346.929 130.037 347.516 130.368C348.103 130.688 348.577 131.157 348.94 131.776C349.303 132.395 349.484 133.147 349.484 134.032C349.484 134.907 349.303 135.659 348.94 136.288C348.577 136.907 348.103 137.381 347.516 137.712C346.929 138.032 346.3 138.192 345.628 138.192ZM345.628 136.288C346.108 136.288 346.471 136.085 346.716 135.68C346.961 135.264 347.084 134.715 347.084 134.032C347.084 133.339 346.961 132.789 346.716 132.384C346.471 131.979 346.108 131.776 345.628 131.776C345.137 131.776 344.769 131.979 344.524 132.384C344.289 132.789 344.172 133.339 344.172 134.032C344.172 134.715 344.289 135.264 344.524 135.68C344.769 136.085 345.137 136.288 345.628 136.288ZM349.857 138L352.289 133.872L350.001 130.064H352.529L353.233 131.344C353.34 131.568 353.452 131.797 353.569 132.032C353.686 132.256 353.798 132.48 353.905 132.704H353.969C354.054 132.48 354.145 132.256 354.241 132.032C354.337 131.797 354.428 131.568 354.513 131.344L355.057 130.064H357.489L355.185 134.144L357.633 138H355.105L354.337 136.688C354.209 136.464 354.081 136.235 353.953 136C353.836 135.765 353.713 135.536 353.585 135.312H353.521C353.425 135.536 353.324 135.765 353.217 136C353.11 136.224 353.009 136.453 352.913 136.688L352.289 138H349.857ZM359.537 141.104C359.303 141.104 359.095 141.088 358.913 141.056C358.743 141.024 358.577 140.987 358.417 140.944L358.833 139.152C358.908 139.163 358.993 139.179 359.089 139.2C359.185 139.232 359.276 139.248 359.361 139.248C359.756 139.248 360.06 139.152 360.273 138.96C360.487 138.768 360.647 138.517 360.753 138.208L360.865 137.792L357.809 130.064H360.177L361.313 133.472C361.431 133.835 361.537 134.203 361.633 134.576C361.729 134.949 361.831 135.333 361.937 135.728H362.001C362.087 135.355 362.172 134.981 362.257 134.608C362.353 134.224 362.449 133.845 362.545 133.472L363.505 130.064H365.761L363.009 138.08C362.764 138.741 362.492 139.296 362.193 139.744C361.895 140.203 361.532 140.544 361.105 140.768C360.689 140.992 360.167 141.104 359.537 141.104ZM372.54 138.192C372.018 138.192 371.479 138.091 370.924 137.888C370.38 137.685 369.906 137.419 369.5 137.088L370.556 135.616C370.919 135.883 371.266 136.091 371.596 136.24C371.938 136.379 372.274 136.448 372.604 136.448C372.956 136.448 373.212 136.389 373.372 136.272C373.532 136.144 373.612 135.979 373.612 135.776C373.612 135.595 373.532 135.445 373.372 135.328C373.223 135.211 373.026 135.104 372.78 135.008C372.535 134.901 372.274 134.795 371.996 134.688C371.676 134.56 371.356 134.4 371.036 134.208C370.727 134.016 370.466 133.771 370.252 133.472C370.039 133.163 369.932 132.789 369.932 132.352C369.932 131.616 370.21 131.019 370.764 130.56C371.33 130.101 372.066 129.872 372.972 129.872C373.58 129.872 374.114 129.979 374.572 130.192C375.042 130.395 375.442 130.624 375.772 130.88L374.716 132.288C374.439 132.075 374.162 131.909 373.884 131.792C373.607 131.675 373.33 131.616 373.052 131.616C372.444 131.616 372.14 131.824 372.14 132.24C372.14 132.496 372.29 132.693 372.588 132.832C372.898 132.96 373.255 133.099 373.66 133.248C374.002 133.365 374.332 133.52 374.652 133.712C374.983 133.893 375.255 134.139 375.468 134.448C375.692 134.747 375.804 135.141 375.804 135.632C375.804 136.347 375.527 136.955 374.972 137.456C374.418 137.947 373.607 138.192 372.54 138.192ZM380.85 138.192C380.093 138.192 379.41 138.027 378.802 137.696C378.194 137.365 377.714 136.891 377.362 136.272C377.01 135.653 376.834 134.907 376.834 134.032C376.834 133.168 377.01 132.427 377.362 131.808C377.725 131.189 378.194 130.715 378.77 130.384C379.346 130.043 379.949 129.872 380.578 129.872C381.335 129.872 381.959 130.043 382.45 130.384C382.951 130.715 383.325 131.168 383.57 131.744C383.826 132.309 383.954 132.955 383.954 133.68C383.954 133.883 383.943 134.085 383.922 134.288C383.901 134.48 383.879 134.624 383.858 134.72H379.106C379.213 135.296 379.453 135.723 379.826 136C380.199 136.267 380.647 136.4 381.17 136.4C381.735 136.4 382.306 136.224 382.882 135.872L383.666 137.296C383.261 137.573 382.807 137.792 382.306 137.952C381.805 138.112 381.319 138.192 380.85 138.192ZM379.09 133.168H381.954C381.954 132.731 381.847 132.373 381.634 132.096C381.431 131.808 381.095 131.664 380.626 131.664C380.263 131.664 379.938 131.792 379.65 132.048C379.362 132.293 379.175 132.667 379.09 133.168ZM385.579 138V130.064H387.499L387.659 131.456H387.723C388.011 130.923 388.358 130.528 388.763 130.272C389.169 130.005 389.574 129.872 389.979 129.872C390.203 129.872 390.39 129.888 390.539 129.92C390.689 129.941 390.817 129.979 390.923 130.032L390.539 132.064C390.401 132.021 390.262 131.989 390.123 131.968C389.995 131.947 389.846 131.936 389.675 131.936C389.377 131.936 389.062 132.048 388.731 132.272C388.411 132.485 388.145 132.859 387.931 133.392V138H385.579ZM393.888 138L391.216 130.064H393.584L394.608 133.808C394.714 134.203 394.816 134.608 394.912 135.024C395.018 135.429 395.125 135.84 395.232 136.256H395.296C395.392 135.84 395.488 135.429 395.584 135.024C395.69 134.608 395.797 134.203 395.904 133.808L396.944 130.064H399.2L396.608 138H393.888ZM403.866 138.192C403.108 138.192 402.426 138.027 401.818 137.696C401.21 137.365 400.73 136.891 400.378 136.272C400.026 135.653 399.85 134.907 399.85 134.032C399.85 133.168 400.026 132.427 400.378 131.808C400.74 131.189 401.21 130.715 401.786 130.384C402.362 130.043 402.964 129.872 403.594 129.872C404.351 129.872 404.975 130.043 405.466 130.384C405.967 130.715 406.34 131.168 406.586 131.744C406.842 132.309 406.97 132.955 406.97 133.68C406.97 133.883 406.959 134.085 406.938 134.288C406.916 134.48 406.895 134.624 406.874 134.72H402.122C402.228 135.296 402.468 135.723 402.842 136C403.215 136.267 403.663 136.4 404.186 136.4C404.751 136.4 405.322 136.224 405.898 135.872L406.682 137.296C406.276 137.573 405.823 137.792 405.322 137.952C404.82 138.112 404.335 138.192 403.866 138.192ZM402.106 133.168H404.97C404.97 132.731 404.863 132.373 404.65 132.096C404.447 131.808 404.111 131.664 403.642 131.664C403.279 131.664 402.954 131.792 402.666 132.048C402.378 132.293 402.191 132.667 402.106 133.168ZM408.595 138V130.064H410.515L410.675 131.456H410.739C411.027 130.923 411.374 130.528 411.779 130.272C412.184 130.005 412.59 129.872 412.995 129.872C413.219 129.872 413.406 129.888 413.555 129.92C413.704 129.941 413.832 129.979 413.939 130.032L413.555 132.064C413.416 132.021 413.278 131.989 413.139 131.968C413.011 131.947 412.862 131.936 412.691 131.936C412.392 131.936 412.078 132.048 411.747 132.272C411.427 132.485 411.16 132.859 410.947 133.392V138H408.595Z" fill="#7586A4"/>
<path d="M459.475 43H559.975" stroke="#7586A4" stroke-width="3" stroke-linejoin="round"/>
<path d="M551.646 38L559.975 43L551.646 48" stroke="#7586A4" stroke-width="3" stroke-linecap="round" stroke-linejoin="round"/>
<path d="M467.804 48L459.475 43L467.804 38" stroke="#7586A4" stroke-width="3" stroke-linecap="round" stroke-linejoin="round"/>
<path d="M629.912 42.653C629.912 49.847 634.468 54.863 640.781 54.863C647.095 54.863 651.651 49.847 651.651 42.653C651.651 35.459 647.095 30.443 640.781 30.443C634.468 30.443 629.912 35.459 629.912 42.653ZM647.485 42.653C647.485 47.801 644.719 51.134 640.781 51.134C636.844 51.134 634.078 47.801 634.078 42.653C634.078 37.505 636.844 34.172 640.781 34.172C644.719 34.172 647.485 37.505 647.485 42.653Z" fill="#7586A4"/>
<path d="M663.381 54.863C668.165 54.863 670.898 50.771 670.898 45.854C670.898 40.937 668.165 36.845 663.381 36.845C661.168 36.845 659.541 37.736 658.467 39.023V37.175H654.562V60.44H658.467V52.685C659.541 53.972 661.168 54.863 663.381 54.863ZM658.369 45.359C658.369 42.092 660.192 40.31 662.6 40.31C665.431 40.31 666.96 42.554 666.96 45.854C666.96 49.154 665.431 51.398 662.6 51.398C660.192 51.398 658.369 49.583 658.369 46.382V45.359Z" fill="#7586A4"/>
<path d="M681.466 54.863C684.883 54.863 687.584 53.048 688.788 50.012L685.436 48.725C684.916 50.507 683.386 51.497 681.466 51.497C678.96 51.497 677.203 49.682 676.91 46.712H688.886V45.392C688.886 40.64 686.25 36.845 681.304 36.845C676.357 36.845 673.168 40.772 673.168 45.854C673.168 51.2 676.585 54.863 681.466 54.863ZM681.271 40.178C683.744 40.178 684.916 41.828 684.948 43.742H677.106C677.691 41.399 679.253 40.178 681.271 40.178Z" fill="#7586A4"/>
<path d="M691.816 54.5H695.721V44.336C695.721 41.861 697.511 40.541 699.268 40.541C701.416 40.541 702.262 42.092 702.262 44.237V54.5H706.167V43.082C706.167 39.353 704.019 36.845 700.44 36.845C698.227 36.845 696.697 37.868 695.721 39.023V37.175H691.816V54.5Z" fill="#7586A4"/>
<path d="M717.605 30.806L708.753 54.5H712.886L714.871 49.088H724.959L726.977 54.5H731.175L722.323 30.806H717.605ZM719.883 35.492L723.592 45.392H716.238L719.883 35.492Z" fill="#7586A4"/>
<path d="M737.878 30.8748H733.713V54.5688H737.878V30.8748Z" fill="#7586A4"/>
<path d="M620.369 39.5084C621.354 36.5122 621.015 33.2301 619.44 30.5049C617.073 26.3249 612.314 24.1744 607.666 25.1864C605.598 22.8241 602.627 21.4807 599.512 21.5C594.761 21.489 590.546 24.591 589.084 29.1752C586.032 29.8091 583.397 31.7465 581.855 34.4924C579.47 38.6614 580.014 43.9166 583.2 47.4916C582.216 50.4877 582.555 53.7699 584.129 56.4951C586.497 60.6751 591.256 62.8256 595.904 61.8136C597.971 64.1759 600.943 65.5192 604.057 65.4986C608.811 65.511 613.028 62.4062 614.49 57.8179C617.542 57.184 620.177 55.2466 621.718 52.5007C624.101 48.3317 623.556 43.0806 620.371 39.5056L620.369 39.5084ZM604.06 62.6235C602.158 62.6262 600.315 61.9511 598.855 60.715C598.921 60.6792 599.036 60.6146 599.111 60.5679L607.751 55.5079C608.193 55.2535 608.464 54.7764 608.461 54.2607V41.9091L612.113 44.0472C612.152 44.0665 612.178 44.105 612.184 44.149V54.3776C612.178 58.9261 608.546 62.6139 604.06 62.6235ZM586.59 55.0569C585.637 53.3876 585.294 51.431 585.621 49.5321C585.685 49.5706 585.797 49.6407 585.877 49.6875L594.517 54.7475C594.955 55.0074 595.497 55.0074 595.937 54.7475L606.485 48.571V52.8472C606.487 52.8912 606.467 52.9339 606.433 52.9614L597.699 58.075C593.809 60.3465 588.841 58.9962 586.592 55.0569H586.59ZM584.316 35.932C585.266 34.26 586.764 32.9812 588.548 32.3171C588.548 32.3927 588.544 32.5261 588.544 32.6196V42.741C588.541 43.2552 588.813 43.7324 589.253 43.9867L599.801 50.1619L596.15 52.3C596.113 52.3247 596.067 52.3289 596.026 52.311L587.291 47.1932C583.409 44.9135 582.078 39.8769 584.315 35.9334L584.316 35.932ZM614.318 43.0119L603.77 36.8354L607.421 34.6986C607.458 34.6739 607.504 34.6697 607.545 34.6876L616.28 39.8012C620.169 42.0796 621.501 47.1245 619.255 51.068C618.304 52.7372 616.807 54.016 615.024 54.6815V44.2576C615.028 43.7434 614.758 43.2676 614.319 43.0119H614.318ZM617.952 37.4651C617.888 37.4252 617.775 37.3565 617.695 37.3097L609.055 32.2497C608.617 31.9899 608.075 31.9899 607.636 32.2497L597.088 38.4262V34.15C597.085 34.106 597.106 34.0634 597.139 34.0359L605.873 28.9264C609.763 26.6507 614.737 28.0051 616.979 31.9514C617.927 33.6179 618.27 35.569 617.949 37.4651H617.952ZM595.103 45.0867L591.45 42.9486C591.411 42.9294 591.385 42.8909 591.379 42.8469V32.6182C591.382 28.0643 595.026 24.3737 599.516 24.3765C601.416 24.3765 603.255 25.053 604.715 26.285C604.649 26.3207 604.535 26.3854 604.459 26.4321L595.819 31.4921C595.377 31.7465 595.106 32.2223 595.108 32.7379L595.103 45.084V45.0867ZM597.087 40.75L601.785 37.9986L606.483 40.7486V46.25L601.785 49L597.087 46.25V40.75Z" fill="#7586A4"/>
<path d="M626.437 138.192C625.498 138.192 624.672 137.973 623.957 137.536C623.253 137.099 622.698 136.475 622.293 135.664C621.898 134.843 621.701 133.867 621.701 132.736C621.701 131.595 621.898 130.629 622.293 129.84C622.698 129.04 623.253 128.432 623.957 128.016C624.672 127.589 625.498 127.376 626.437 127.376C627.376 127.376 628.197 127.589 628.901 128.016C629.616 128.432 630.17 129.04 630.565 129.84C630.97 130.64 631.173 131.605 631.173 132.736C631.173 133.867 630.97 134.843 630.565 135.664C630.17 136.475 629.616 137.099 628.901 137.536C628.197 137.973 627.376 138.192 626.437 138.192ZM626.437 136.16C627.152 136.16 627.717 135.851 628.133 135.232C628.549 134.613 628.757 133.781 628.757 132.736C628.757 131.691 628.549 130.875 628.133 130.288C627.717 129.701 627.152 129.408 626.437 129.408C625.722 129.408 625.157 129.701 624.741 130.288C624.325 130.875 624.117 131.691 624.117 132.736C624.117 133.781 624.325 134.613 624.741 135.232C625.157 135.851 625.722 136.16 626.437 136.16ZM632.942 140.944V130.064H634.862L635.022 130.848H635.086C635.396 130.571 635.742 130.341 636.126 130.16C636.521 129.968 636.926 129.872 637.342 129.872C638.302 129.872 639.06 130.24 639.614 130.976C640.169 131.701 640.446 132.677 640.446 133.904C640.446 134.811 640.286 135.584 639.966 136.224C639.646 136.864 639.23 137.355 638.718 137.696C638.217 138.027 637.678 138.192 637.102 138.192C636.761 138.192 636.43 138.123 636.11 137.984C635.79 137.835 635.492 137.627 635.214 137.36L635.294 138.624V140.944H632.942ZM636.558 136.272C636.964 136.272 637.31 136.085 637.598 135.712C637.886 135.339 638.03 134.747 638.03 133.936C638.03 132.507 637.572 131.792 636.654 131.792C636.196 131.792 635.742 132.032 635.294 132.512V135.76C635.508 135.952 635.721 136.085 635.934 136.16C636.148 136.235 636.356 136.272 636.558 136.272ZM645.666 138.192C644.909 138.192 644.226 138.027 643.618 137.696C643.01 137.365 642.53 136.891 642.178 136.272C641.826 135.653 641.65 134.907 641.65 134.032C641.65 133.168 641.826 132.427 642.178 131.808C642.541 131.189 643.01 130.715 643.586 130.384C644.162 130.043 644.765 129.872 645.394 129.872C646.152 129.872 646.776 130.043 647.266 130.384C647.768 130.715 648.141 131.168 648.386 131.744C648.642 132.309 648.77 132.955 648.77 133.68C648.77 133.883 648.76 134.085 648.738 134.288C648.717 134.48 648.696 134.624 648.674 134.72H643.922C644.029 135.296 644.269 135.723 644.642 136C645.016 136.267 645.464 136.4 645.986 136.4C646.552 136.4 647.122 136.224 647.698 135.872L648.482 137.296C648.077 137.573 647.624 137.792 647.122 137.952C646.621 138.112 646.136 138.192 645.666 138.192ZM643.906 133.168H646.77C646.77 132.731 646.664 132.373 646.45 132.096C646.248 131.808 645.912 131.664 645.442 131.664C645.08 131.664 644.754 131.792 644.466 132.048C644.178 132.293 643.992 132.667 643.906 133.168ZM650.396 138V130.064H652.316L652.476 131.072H652.54C652.881 130.752 653.254 130.475 653.66 130.24C654.076 129.995 654.55 129.872 655.084 129.872C655.948 129.872 656.572 130.16 656.956 130.736C657.35 131.301 657.548 132.08 657.548 133.072V138H655.196V133.376C655.196 132.8 655.116 132.405 654.956 132.192C654.806 131.979 654.561 131.872 654.22 131.872C653.921 131.872 653.665 131.941 653.452 132.08C653.238 132.208 653.004 132.395 652.748 132.64V138H650.396ZM662.192 132.72L661.936 133.68H664.16L663.92 132.72C663.781 132.197 663.637 131.643 663.488 131.056C663.349 130.469 663.211 129.904 663.072 129.36H663.008C662.88 129.915 662.747 130.485 662.608 131.072C662.48 131.648 662.341 132.197 662.192 132.72ZM658.416 138L661.68 127.568H664.512L667.776 138H665.28L664.64 135.52H661.456L660.816 138H658.416ZM668.916 138V127.568H671.268V138H668.916ZM679.379 132.72L679.123 133.68H681.347L681.107 132.72C680.969 132.197 680.825 131.643 680.675 131.056C680.537 130.469 680.398 129.904 680.259 129.36H680.195C680.067 129.915 679.934 130.485 679.795 131.072C679.667 131.648 679.529 132.197 679.379 132.72ZM675.603 138L678.867 127.568H681.699L684.963 138H682.467L681.827 135.52H678.643L678.003 138H675.603ZM686.103 138V127.568H689.687C690.455 127.568 691.149 127.675 691.767 127.888C692.397 128.091 692.898 128.437 693.271 128.928C693.645 129.419 693.831 130.085 693.831 130.928C693.831 131.739 693.645 132.405 693.271 132.928C692.898 133.451 692.402 133.84 691.783 134.096C691.165 134.341 690.487 134.464 689.751 134.464H688.455V138H686.103ZM688.455 132.592H689.607C690.887 132.592 691.527 132.037 691.527 130.928C691.527 130.384 691.357 130 691.015 129.776C690.674 129.552 690.183 129.44 689.543 129.44H688.455V132.592ZM695.634 138V127.568H697.986V138H695.634Z" fill="#7586A4"/>
</svg>
