<svg width="45" height="45" viewBox="0 0 45 45" fill="none" xmlns="http://www.w3.org/2000/svg">
<g id="icons/resume">
<rect id="icon-bg" width="45" height="45" rx="2" fill="#A5E7EB"/>
<g id="page" filter="url(#filter0_d_1_1054)">
<path d="M9 41H36V12L28 5H9V41Z" fill="white"/>
<path d="M35.25 12.3403V40.25H9.75V5.75H27.7182L35.25 12.3403Z" stroke="#333333" stroke-width="1.5"/>
</g>
<rect id="Rectangle 24" x="13" y="23" width="8" height="2" rx="1" fill="#B4B4B4"/>
<rect id="Rectangle 45" x="13" y="19" width="9" height="2" rx="1" fill="#B4B4B4"/>
<rect id="Rectangle 27" x="13" y="27" width="19" height="2" rx="1" fill="#B4B4B4"/>
<rect id="Rectangle 42" x="13" y="31" width="19" height="2" rx="1" fill="#B4B4B4"/>
<rect id="Rectangle 23" x="13" y="15" width="11" height="2" rx="1" fill="#B4B4B4"/>
<g id="Union">
<mask id="path-9-inside-1_1_1054" fill="white">
<path fill-rule="evenodd" clip-rule="evenodd" d="M30.1747 20.3333C30.667 19.8768 30.975 19.2244 30.975 18.5C30.975 17.1193 29.8557 16 28.475 16C27.0943 16 25.975 17.1193 25.975 18.5C25.975 19.2244 26.2831 19.8768 26.7753 20.3333C26.7679 20.3364 26.7604 20.3395 26.753 20.3425C26.207 20.5687 25.7109 20.9002 25.293 21.318C24.8752 21.7359 24.5437 22.232 24.3176 22.7779C24.1553 23.1696 24.0496 23.5814 24.0028 24.001C23.9722 24.2755 24.1989 24.5 24.475 24.5L28.475 24.5H32.475C32.7512 24.5 32.9779 24.2755 32.9473 24.001C32.9005 23.5814 32.7947 23.1696 32.6325 22.7779C32.4063 22.232 32.0749 21.7359 31.657 21.318C31.2391 20.9002 30.7431 20.5687 30.1971 20.3425C30.1896 20.3395 30.1822 20.3364 30.1747 20.3333Z"/>
</mask>
<path fill-rule="evenodd" clip-rule="evenodd" d="M30.1747 20.3333C30.667 19.8768 30.975 19.2244 30.975 18.5C30.975 17.1193 29.8557 16 28.475 16C27.0943 16 25.975 17.1193 25.975 18.5C25.975 19.2244 26.2831 19.8768 26.7753 20.3333C26.7679 20.3364 26.7604 20.3395 26.753 20.3425C26.207 20.5687 25.7109 20.9002 25.293 21.318C24.8752 21.7359 24.5437 22.232 24.3176 22.7779C24.1553 23.1696 24.0496 23.5814 24.0028 24.001C23.9722 24.2755 24.1989 24.5 24.475 24.5L28.475 24.5H32.475C32.7512 24.5 32.9779 24.2755 32.9473 24.001C32.9005 23.5814 32.7947 23.1696 32.6325 22.7779C32.4063 22.232 32.0749 21.7359 31.657 21.318C31.2391 20.9002 30.7431 20.5687 30.1971 20.3425C30.1896 20.3395 30.1822 20.3364 30.1747 20.3333Z" fill="#FFBF9B"/>
<path d="M30.1747 20.3333L29.4947 19.6002L28.3447 20.6668L29.797 21.2593L30.1747 20.3333ZM26.7753 20.3333L27.1531 21.2593L28.6054 20.6668L27.4554 19.6002L26.7753 20.3333ZM26.753 20.3425L27.1356 21.2664L27.1357 21.2664L26.753 20.3425ZM25.293 21.318L26.0002 22.0251L26.0002 22.0251L25.293 21.318ZM24.3176 22.7779L23.3937 22.3952H23.3937L24.3176 22.7779ZM24.0028 24.001L24.9966 24.1119V24.1119L24.0028 24.001ZM24.475 24.5L24.475 23.5H24.475V24.5ZM28.475 24.5V25.5V24.5ZM32.9473 24.001L31.9534 24.1119V24.1119L32.9473 24.001ZM32.6325 22.7779L31.7086 23.1606L31.7086 23.1606L32.6325 22.7779ZM31.657 21.318L32.3641 20.6109L32.3641 20.6109L31.657 21.318ZM30.1971 20.3425L30.5798 19.4187L30.5798 19.4187L30.1971 20.3425ZM29.975 18.5C29.975 18.9346 29.7915 19.3249 29.4947 19.6002L30.8548 21.0665C31.5425 20.4286 31.975 19.5141 31.975 18.5H29.975ZM28.475 17C29.3035 17 29.975 17.6716 29.975 18.5H31.975C31.975 16.567 30.408 15 28.475 15V17ZM26.975 18.5C26.975 17.6716 27.6466 17 28.475 17V15C26.542 15 24.975 16.567 24.975 18.5H26.975ZM27.4554 19.6002C27.1586 19.3249 26.975 18.9346 26.975 18.5H24.975C24.975 19.5141 25.4076 20.4286 26.0953 21.0665L27.4554 19.6002ZM27.1357 21.2664C27.1413 21.2641 27.1471 21.2617 27.1531 21.2593L26.3976 19.4074C26.3886 19.4111 26.3795 19.4148 26.3703 19.4187L27.1357 21.2664ZM26.0002 22.0251C26.3252 21.7001 26.711 21.4423 27.1356 21.2664L26.3703 19.4187C25.703 19.6951 25.0967 20.1002 24.5859 20.6109L26.0002 22.0251ZM25.2415 23.1606C25.4173 22.736 25.6751 22.3501 26.0002 22.0251L24.5859 20.6109C24.0752 21.1216 23.6701 21.7279 23.3937 22.3952L25.2415 23.1606ZM24.9966 24.1119C25.033 23.7855 25.1153 23.4652 25.2415 23.1606L23.3937 22.3952C23.1954 22.8739 23.0662 23.3772 23.0089 23.8901L24.9966 24.1119ZM24.475 23.5C24.7172 23.5 25.0404 23.719 24.9966 24.1119L23.0089 23.8901C22.9039 24.8319 23.6806 25.5 24.475 25.5V23.5ZM28.475 23.5L24.475 23.5L24.475 25.5L28.475 25.5L28.475 23.5ZM32.475 23.5H28.475V25.5H32.475V23.5ZM31.9534 24.1119C31.9096 23.719 32.2329 23.5 32.475 23.5V25.5C33.2695 25.5 34.0462 24.8319 33.9411 23.8901L31.9534 24.1119ZM31.7086 23.1606C31.8348 23.4652 31.917 23.7855 31.9534 24.1119L33.9411 23.8901C33.8839 23.3772 33.7546 22.8739 33.5564 22.3952L31.7086 23.1606ZM30.9499 22.0251C31.2749 22.3501 31.5327 22.736 31.7086 23.1606L33.5564 22.3952C33.28 21.728 32.8748 21.1216 32.3641 20.6109L30.9499 22.0251ZM29.8144 21.2664C30.2391 21.4423 30.6249 21.7001 30.9499 22.0251L32.3641 20.6109C31.8534 20.1002 31.2471 19.6951 30.5798 19.4187L29.8144 21.2664ZM29.797 21.2593C29.8029 21.2617 29.8087 21.2641 29.8144 21.2664L30.5798 19.4187C30.5706 19.4148 30.5615 19.4111 30.5524 19.4074L29.797 21.2593Z" fill="black" mask="url(#path-9-inside-1_1_1054)"/>
</g>
</g>
<defs>
<filter id="filter0_d_1_1054" x="9" y="5" width="28" height="37" filterUnits="userSpaceOnUse" color-interpolation-filters="sRGB">
<feFlood flood-opacity="0" result="BackgroundImageFix"/>
<feColorMatrix in="SourceAlpha" type="matrix" values="0 0 0 0 0 0 0 0 0 0 0 0 0 0 0 0 0 0 127 0" result="hardAlpha"/>
<feOffset dx="1" dy="1"/>
<feComposite in2="hardAlpha" operator="out"/>
<feColorMatrix type="matrix" values="0 0 0 0 0 0 0 0 0 0 0 0 0 0 0 0 0 0 0.29 0"/>
<feBlend mode="normal" in2="BackgroundImageFix" result="effect1_dropShadow_1_1054"/>
<feBlend mode="normal" in="SourceGraphic" in2="effect1_dropShadow_1_1054" result="shape"/>
</filter>
</defs>
</svg>
