<svg width="16" height="16" viewBox="0 0 16 16" fill="none" xmlns="http://www.w3.org/2000/svg">
<path d="M13.9981 9.42911H1.57127C1.4927 9.42911 1.42842 9.4934 1.42842 9.57197V10.6434C1.42842 10.722 1.4927 10.7863 1.57127 10.7863H12.3784L9.80163 14.0541C9.72842 14.147 9.79449 14.2863 9.91413 14.2863H11.2088C11.2963 14.2863 11.3784 14.247 11.4338 14.1773L14.4481 10.3541C14.7427 9.97911 14.4766 9.42911 13.9981 9.42911ZM14.4284 5.21483H3.62127L6.19806 1.94697C6.27128 1.85411 6.2052 1.71483 6.08556 1.71483H4.79092C4.70342 1.71483 4.62128 1.75411 4.56592 1.82376L1.55163 5.64697C1.25699 6.02197 1.52306 6.57197 1.99985 6.57197H14.4284C14.507 6.57197 14.5713 6.50769 14.5713 6.42911V5.35769C14.5713 5.27911 14.507 5.21483 14.4284 5.21483Z" fill="#84AB32"/>
</svg>
