<!--

 What you're currently looking at is the source code of a legally protected, proprietary software.
 CKEditor 5 Collaboration is licensed under a commercial license and protected by copyright law. Where not otherwise indicated,
 all CKEditor 5 Collaboration content is authored by CKSource engineers and consists of CKSource-owned intellectual property.

 Copyright (c) 2003-2022, CKSource Holding sp. z o.o. All rights reserved.

!-->

<svg viewBox="0 0 20 20" xmlns="http://www.w3.org/2000/svg"><path d="M4 1.5h12A3.5 3.5 0 0 1 19.5 5v8l-.005.192a3.501 3.501 0 0 1-2.927 3.262l-.062.008v1.813a1.5 1.5 0 0 1-2.193 1.33l-.371-.193-.38-.212a13.452 13.452 0 0 1-3.271-2.63l-.062-.07H4A3.5 3.5 0 0 1 .5 13V5A3.5 3.5 0 0 1 4 1.5ZM4 3a2 2 0 0 0-2 2v8a2 2 0 0 0 2 2h6.924a11.916 11.916 0 0 0 3.71 3.081l.372.194v-3.268L14.962 15H16a2 2 0 0 0 2-2V5a2 2 0 0 0-2-2H4Zm1.55 5a1.25 1.25 0 1 1 0 2.5 1.25 1.25 0 0 1 0-2.5Zm4.5 0a1.25 1.25 0 1 1 0 2.5 1.25 1.25 0 0 1 0-2.5Zm4.5 0a1.25 1.25 0 1 1 0 2.5 1.25 1.25 0 0 1 0-2.5Z"/></svg>
