<svg xmlns="http://www.w3.org/2000/svg" viewBox="0 0 20 20"><path d="M14 0l5 4.5V20H3v-3h1.5v1.5h13v-12h-5v-5h-8v5H3V0h11zm3.3 5L14 2v3h3.3z"/><path d="M2.63 14.24V12.3h.88c.66 0 1.14-.15 1.46-.45.32-.3.48-.71.48-1.24 0-.52-.15-.91-.44-1.2C4.7 9.15 4.28 9 3.69 9H1v5.24h1.63zm.4-3h-.4v-1.17h.46c.3 0 .5.05.62.17.1.11.16.25.16.42 0 .16-.06.3-.19.41-.13.11-.34.16-.66.16zm5.7 3c.28 0 .6-.05.96-.14.26-.07.5-.21.73-.42.22-.2.4-.47.53-.77.12-.31.19-.75.19-1.3 0-.37-.04-.7-.13-1.02a2.3 2.3 0 00-.42-.84c-.19-.24-.43-.43-.72-.56C9.57 9.06 9.2 9 8.72 9h-2.4v5.24h2.4zm-.4-1.19h-.4v-2.86h.4c.43 0 .73.1.91.3.18.2.27.59.27 1.14 0 .42-.04.73-.12.91a.76.76 0 01-.34.4c-.14.07-.38.11-.72.11zm5.3 1.2V12.1h2.02v-1.06h-2.03v-.91H16V9h-4v5.24h1.62z"/></svg>
