<svg viewBox="0 0 20 20" xmlns="http://www.w3.org/2000/svg"><path d="m14 0 5 4.5V20H3v-1.5h14.5v-12h-5v-5h-8v4H3V0h11ZM8.5 7a1.5 1.5 0 0 1 1.493 1.356L10 8.5v7a1.5 1.5 0 0 1-1.356 1.493L8.5 17h-7a1.5 1.5 0 0 1-1.493-1.356L0 15.5v-7a1.5 1.5 0 0 1 1.356-1.493L1.5 7h7ZM7.483 9.795l-.042.088-.986 2.534-.947-2.528-.043-.092a.601.601 0 0 0-1.042.008l-.042.093-.883 2.465-.937-2.475-.042-.089a.6.6 0 0 0-1.107.42l.027.093 1.514 4 .044.092a.601.601 0 0 0 1.041-.01l.041-.092.88-2.458.925 2.467.046.096a.601.601 0 0 0 1.032 0l.043-.09 1.554-4 .028-.093a.6.6 0 0 0-1.104-.43ZM14 2v3h3.3L14 2Z"/></svg>
