<svg width="20" height="20" xmlns="http://www.w3.org/2000/svg"><g fill="#000" fill-rule="nonzero"><path d="M14.873 3.35L11.527.123A.444.444 0 0 0 11.218 0H1.922c-.508 0-.92.398-.92.887v16.226c0 .489.412.887.92.887h12.16c.507 0 .92-.398.92-.887V3.648a.42.42 0 0 0-.129-.298zM11 1.5l2.297 2.176h-2.24A.056.056 0 0 1 11 3.622V1.5zM2.38 16.665V1.622c0-.01 2.54-.003 7.62.02v1.741c0 .48.494 1.244 1 1.244h2.626v12.081s-11.247-.03-11.247-.043z"/><path d="M10.645 6h-6.29C4.16 6 4 6.336 4 6.75s.16.75.355.75h6.29c.196 0 .355-.336.355-.75S10.84 6 10.645 6zM10.645 9h-6.29C4.16 9 4 9.336 4 9.75s.16.75.355.75h6.29c.196 0 .355-.336.355-.75S10.84 9 10.645 9zM8.54 12H4.46c-.254 0-.46.336-.46.75s.206.75.46.75h4.08c.254 0 .46-.336.46-.75S8.794 12 8.54 12z"/></g></svg>
