<svg width="14" height="12" viewBox="0 0 14 12" fill="none" xmlns="http://www.w3.org/2000/svg">
<path fill-rule="evenodd" clip-rule="evenodd" d="M8.72308 0C9.25837 5.24144e-08 9.69231 0.409773 9.69231 0.915254V2.80535C10.9908 3.62633 11.8462 5.02368 11.8462 6.61017C11.8462 6.71271 11.8414 6.81439 11.8344 6.91525H13.0308C13.5661 6.91525 14 7.32503 14 7.83051V11.0847C14 11.5902 13.5661 12 13.0308 12H9.58462C9.04932 12 8.61539 11.5902 8.61539 11.0847V10.9243C8.10996 11.093 7.56663 11.1864 7 11.1864C6.43337 11.1864 5.89004 11.093 5.38462 10.9243V11.0847C5.38462 11.5902 4.95068 12 4.41538 12H0.969231C0.43394 12 3.46907e-09 11.5902 0 11.0847V7.83051C5.55055e-08 7.32503 0.433939 6.91525 0.969231 6.91525H2.16563C2.15859 6.81439 2.15385 6.71271 2.15385 6.61017C2.15385 5.02368 3.00917 3.62633 4.30769 2.80535V0.915254C4.30769 0.409773 4.74163 3.27588e-09 5.27692 0H8.72308ZM1.07692 10.9831H4.30769V7.9322H2.35998H1.07692V10.9831ZM11.64 7.9322H9.69231V10.9831H12.9231V7.9322H11.64ZM9.69231 4.16949C9.69231 4.67497 9.25837 5.08475 8.72308 5.08475H5.27692C4.74163 5.08475 4.30769 4.67497 4.30769 4.16949V4.11944C3.6416 4.76139 3.23077 5.64042 3.23077 6.61017C3.23077 6.71296 3.23603 6.81468 3.24507 6.91525H4.41538C4.95068 6.91525 5.38462 7.32503 5.38462 7.83051V9.82627C5.87429 10.046 6.4218 10.1695 7 10.1695C7.5782 10.1695 8.12571 10.046 8.61539 9.82627V7.83051C8.61539 7.32503 9.04932 6.91525 9.58462 6.91525H10.7549C10.764 6.81468 10.7692 6.71296 10.7692 6.61017C10.7692 5.64042 10.3584 4.76139 9.69231 4.11944V4.16949ZM6.95778 1.01695H5.38462V4.0678H8.61539V1.01695H6.95778Z" fill="#D83846"/>
</svg>
