<svg width="36" height="36" viewBox="0 0 36 36" fill="none" xmlns="http://www.w3.org/2000/svg">
<path d="M22.8208 33.1071H13.1779C13.0012 33.1071 12.8565 33.2518 12.8565 33.4286V34.7143C12.8565 35.4254 13.4311 36 14.1422 36H21.8565C22.5677 36 23.1422 35.4254 23.1422 34.7143V33.4286C23.1422 33.2518 22.9976 33.1071 22.8208 33.1071ZM17.9994 0C10.723 0 4.8208 5.90223 4.8208 13.1786C4.8208 18.0562 7.47259 22.3152 11.4101 24.5933V29.25C11.4101 29.9612 11.9846 30.5357 12.6958 30.5357H23.3029C24.0141 30.5357 24.5887 29.9612 24.5887 29.25V24.5933C28.5262 22.3152 31.1779 18.0562 31.1779 13.1786C31.1779 5.90223 25.2757 0 17.9994 0ZM23.1382 22.0902L21.6958 22.9259V27.6429H14.3029V22.9259L12.8605 22.0902C9.69848 20.2621 7.71366 16.8951 7.71366 13.1786C7.71366 7.49732 12.3181 2.89286 17.9994 2.89286C23.6806 2.89286 28.2851 7.49732 28.2851 13.1786C28.2851 16.8951 26.3003 20.2621 23.1382 22.0902Z" fill="#262626"/>
</svg>
