<svg width="36" height="36" viewBox="0 0 36 36" fill="none" xmlns="http://www.w3.org/2000/svg">
<path d="M24.0956 12.4404C24.0956 12.2857 23.969 12.1591 23.8144 12.1591L21.494 12.1697L17.9995 16.3357L14.5085 12.1732L12.1847 12.1626C12.03 12.1626 11.9034 12.2857 11.9034 12.4439C11.9034 12.5107 11.928 12.574 11.9702 12.6267L16.544 18.0759L11.9702 23.5216C11.9277 23.5731 11.9042 23.6377 11.9034 23.7044C11.9034 23.8591 12.03 23.9857 12.1847 23.9857L14.5085 23.9751L17.9995 19.8091L21.4905 23.9716L23.8108 23.9822C23.9655 23.9822 24.0921 23.8591 24.0921 23.7009C24.0921 23.6341 24.0675 23.5708 24.0253 23.5181L19.4585 18.0724L24.0323 12.6232C24.0745 12.574 24.0956 12.5072 24.0956 12.4404Z" fill="#262626"/>
<path d="M18 2.25C9.30234 2.25 2.25 9.30234 2.25 18C2.25 26.6977 9.30234 33.75 18 33.75C26.6977 33.75 33.75 26.6977 33.75 18C33.75 9.30234 26.6977 2.25 18 2.25ZM18 31.0781C10.7789 31.0781 4.92188 25.2211 4.92188 18C4.92188 10.7789 10.7789 4.92188 18 4.92188C25.2211 4.92188 31.0781 10.7789 31.0781 18C31.0781 25.2211 25.2211 31.0781 18 31.0781Z" fill="#262626"/>
</svg>
