<svg width="36" height="36" viewBox="0 0 36 36" fill="none" xmlns="http://www.w3.org/2000/svg">
<path d="M17.9989 16.3905C17.9989 16.8167 18.1682 17.2255 18.4696 17.5269C18.771 17.8283 19.1798 17.9976 19.606 17.9976C20.0323 17.9976 20.4411 17.8283 20.7425 17.5269C21.0439 17.2255 21.2132 16.8167 21.2132 16.3905C21.2132 15.9642 21.0439 15.5554 20.7425 15.254C20.4411 14.9527 20.0323 14.7833 19.606 14.7833C19.1798 14.7833 18.771 14.9527 18.4696 15.254C18.1682 15.5554 17.9989 15.9642 17.9989 16.3905ZM32.7444 30.5695L25.4038 11.569V4.57797H28.2846V1.84583H7.71319V4.57797H10.594V11.569L3.25336 30.5695C3.14086 30.8668 3.0806 31.1802 3.0806 31.4976C3.0806 32.9159 4.23372 34.069 5.65203 34.069H30.3458C30.6632 34.069 30.9766 34.0088 31.2739 33.8963C32.5998 33.386 33.2587 31.8954 32.7444 30.5695ZM13.3261 12.0793V4.65833H22.6717V12.0793L26.3239 21.5333C25.4922 21.3204 24.6324 21.2119 23.7565 21.2119C21.2976 21.2119 18.9672 22.0757 17.115 23.6226C15.7479 24.7646 14.0226 25.389 12.2413 25.3865C10.9275 25.3865 9.66586 25.053 8.55292 24.4342L13.3261 12.0793ZM5.88506 31.3369L7.56051 27.0056C8.99488 27.7329 10.59 28.1226 12.2453 28.1226C14.7043 28.1226 17.0346 27.2588 18.8868 25.7119C20.2489 24.5789 21.9525 23.9481 23.7605 23.9481C25.1668 23.9481 26.5087 24.3298 27.6819 25.0369L30.1127 31.3369H5.88506Z" fill="#262626"/>
</svg>
