<svg width="34" height="34" viewBox="0 0 34 34" fill="none" xmlns="http://www.w3.org/2000/svg">
<path d="M31.784 33.0686L2.21256 33.0686C1.5014 33.0686 0.926849 32.494 0.926849 31.7829L0.926844 2.21146C0.926844 1.5003 1.5014 0.925743 2.21256 0.925743L16.6768 0.92574C16.8536 0.92574 16.9983 1.07038 16.9983 1.24717L16.9983 3.49717C16.9983 3.67396 16.8536 3.8186 16.6768 3.8186L3.8197 3.8186L3.81971 30.1757L30.1769 30.1757L30.1768 17.3186C30.1768 17.1418 30.3215 16.9972 30.4983 16.9972L32.7483 16.9972C32.9251 16.9972 33.0697 17.1418 33.0697 17.3186L33.0697 31.7829C33.0697 32.494 32.4952 33.0686 31.784 33.0686Z" fill="#262626"/>
<path d="M27.4132 4.41739L25.3136 2.31786C25.1233 2.1275 25.2369 1.80362 25.504 1.76953L32.7117 0.925738C32.7602 0.919832 32.8093 0.925024 32.8554 0.940928C32.9015 0.956831 32.9434 0.983023 32.9779 1.01752C33.0124 1.05202 33.0386 1.09391 33.0545 1.14003C33.0704 1.18615 33.0756 1.23528 33.0697 1.28371L32.2231 8.4943C32.1918 8.75852 31.8679 8.87217 31.6776 8.68181L29.5724 6.5766L19.9611 16.1879C19.8361 16.3129 19.6315 16.3129 19.5065 16.1879L17.8019 14.4833C17.6769 14.3582 17.6769 14.1537 17.8019 14.0287L27.4132 4.41739Z" fill="#262626"/>
</svg>
