<svg xmlns="http://www.w3.org/2000/svg" width="12" height="13" viewBox="0 0 12 13" fill="none">
  <path d="M10.2856 5.85882H9.37493V2.85882C9.37493 1.91194 8.60752 1.14453 7.66064 1.14453H4.33922C3.39234 1.14453 2.62493 1.91194 2.62493 2.85882V5.85882H1.71422C1.47716 5.85882 1.28564 6.05034 1.28564 6.28739V11.4302C1.28564 11.6673 1.47716 11.8588 1.71422 11.8588H10.2856C10.5227 11.8588 10.7142 11.6673 10.7142 11.4302V6.28739C10.7142 6.05034 10.5227 5.85882 10.2856 5.85882ZM3.58922 2.85882C3.58922 2.44498 3.92538 2.10882 4.33922 2.10882H7.66064C8.07448 2.10882 8.41064 2.44498 8.41064 2.85882V5.85882H3.58922V2.85882ZM9.74993 10.8945H2.24993V6.8231H9.74993V10.8945ZM5.62493 9.03292V9.74275C5.62493 9.80167 5.67314 9.84989 5.73207 9.84989H6.26779C6.32672 9.84989 6.37493 9.80167 6.37493 9.74275V9.03292C6.48548 8.95355 6.568 8.84115 6.61061 8.71189C6.65321 8.58263 6.6537 8.44319 6.61201 8.31364C6.57032 8.18409 6.4886 8.0711 6.3786 7.99095C6.26861 7.9108 6.13603 7.86762 5.99993 7.86762C5.86383 7.86762 5.73125 7.9108 5.62126 7.99095C5.51127 8.0711 5.42954 8.18409 5.38785 8.31364C5.34616 8.44319 5.34665 8.58263 5.38926 8.71189C5.43186 8.84115 5.51438 8.95355 5.62493 9.03292Z" fill="#3B4958"/>
</svg>
