<svg width="36" height="36" viewBox="0 0 36 36" fill="none" xmlns="http://www.w3.org/2000/svg">
<path d="M11.8923 4.81766H11.5708C11.7476 4.81766 11.8923 4.67302 11.8923 4.49623V4.81766H24.1066V4.49623C24.1066 4.67302 24.2512 4.81766 24.428 4.81766H24.1066V7.71052H26.9994V4.49623C26.9994 3.07793 25.8463 1.9248 24.428 1.9248H11.5708C10.1525 1.9248 8.9994 3.07793 8.9994 4.49623V7.71052H11.8923V4.81766ZM32.1423 7.71052H3.85655C3.14538 7.71052 2.57083 8.28507 2.57083 8.99623V10.2819C2.57083 10.4587 2.71547 10.6034 2.89226 10.6034H5.31905L6.31146 31.6168C6.37574 32.9869 7.50878 34.0677 8.87887 34.0677H27.1199C28.4941 34.0677 29.6231 32.9909 29.6874 31.6168L30.6798 10.6034H33.1066C33.2833 10.6034 33.428 10.4587 33.428 10.2819V8.99623C33.428 8.28507 32.8534 7.71052 32.1423 7.71052ZM26.8106 31.1748H9.18824L8.21592 10.6034H27.7829L26.8106 31.1748Z" fill="#262626"/>
</svg>
