<svg width="36" height="36" viewBox="0 0 36 36" fill="none" xmlns="http://www.w3.org/2000/svg">
<g clip-path="url(#clip0_207_10286)">
<path d="M17.9839 0.492189C8.04777 0.488171 0 8.53192 0 18.46C0 26.3109 5.03437 32.9846 12.0455 35.4355C12.9897 35.6725 12.8451 35.0016 12.8451 34.5435V31.4297C7.39286 32.0685 7.17188 28.4605 6.80625 27.8578C6.06696 26.5962 4.3192 26.2748 4.84152 25.6721C6.08304 25.0333 7.34866 25.8328 8.81518 27.9984C9.87589 29.5694 11.9451 29.3042 12.9938 29.0431C13.2228 28.0989 13.7129 27.2551 14.3879 26.6002C8.73884 25.5877 6.38438 22.1404 6.38438 18.0422C6.38438 16.0534 7.03929 14.2252 8.325 12.7507C7.50536 10.3199 8.40134 8.23862 8.52188 7.92924C10.8563 7.72031 13.283 9.60067 13.4719 9.74933C14.7978 9.39174 16.3125 9.2029 18.008 9.2029C19.7116 9.2029 21.2304 9.39978 22.5683 9.76139C23.0223 9.41585 25.2723 7.80067 27.442 7.99755C27.5585 8.30692 28.4344 10.34 27.6629 12.7386C28.9647 14.2172 29.6277 16.0614 29.6277 18.0542C29.6277 22.1605 27.2571 25.6118 21.592 26.6083C22.0772 27.0855 22.4625 27.6546 22.7253 28.2823C22.9882 28.9101 23.1233 29.5839 23.1228 30.2645V34.7846C23.1549 35.1462 23.1228 35.5038 23.7254 35.5038C30.8411 33.1051 35.9638 26.3833 35.9638 18.4641C35.9638 8.53192 27.9121 0.492189 17.9839 0.492189Z" fill="#262626"/>
</g>
<defs>
<clipPath id="clip0_207_10286">
<rect width="36" height="36" fill="white"/>
</clipPath>
</defs>
</svg>
