<svg xmlns="http://www.w3.org/2000/svg" width="14" height="14" viewBox="0 0 14 14" fill="none">
  <path d="M12.98 0.5H1.02C0.732375 0.5 0.5 0.732375 0.5 1.02V12.98C0.5 13.2676 0.732375 13.5 1.02 13.5H12.98C13.2676 13.5 13.5 13.2676 13.5 12.98V1.02C13.5 0.732375 13.2676 0.5 12.98 0.5ZM12.33 12.33H1.67V1.67H12.33V12.33ZM6.675 5.18H9.665C9.7365 5.18 9.795 5.1215 9.795 5.05V4.27C9.795 4.1985 9.7365 4.14 9.665 4.14H6.675C6.6035 4.14 6.545 4.1985 6.545 4.27V5.05C6.545 5.1215 6.6035 5.18 6.675 5.18ZM6.675 7.52H9.665C9.7365 7.52 9.795 7.4615 9.795 7.39V6.61C9.795 6.5385 9.7365 6.48 9.665 6.48H6.675C6.6035 6.48 6.545 6.5385 6.545 6.61V7.39C6.545 7.4615 6.6035 7.52 6.675 7.52ZM6.675 9.86H9.665C9.7365 9.86 9.795 9.8015 9.795 9.73V8.95C9.795 8.8785 9.7365 8.82 9.665 8.82H6.675C6.6035 8.82 6.545 8.8785 6.545 8.95V9.73C6.545 9.8015 6.6035 9.86 6.675 9.86ZM4.205 4.66C4.205 4.83239 4.27348 4.99772 4.39538 5.11962C4.51728 5.24152 4.68261 5.31 4.855 5.31C5.02739 5.31 5.19272 5.24152 5.31462 5.11962C5.43652 4.99772 5.505 4.83239 5.505 4.66C5.505 4.48761 5.43652 4.32228 5.31462 4.20038C5.19272 4.07848 5.02739 4.01 4.855 4.01C4.68261 4.01 4.51728 4.07848 4.39538 4.20038C4.27348 4.32228 4.205 4.48761 4.205 4.66ZM4.205 7C4.205 7.17239 4.27348 7.33772 4.39538 7.45962C4.51728 7.58152 4.68261 7.65 4.855 7.65C5.02739 7.65 5.19272 7.58152 5.31462 7.45962C5.43652 7.33772 5.505 7.17239 5.505 7C5.505 6.82761 5.43652 6.66228 5.31462 6.54038C5.19272 6.41848 5.02739 6.35 4.855 6.35C4.68261 6.35 4.51728 6.41848 4.39538 6.54038C4.27348 6.66228 4.205 6.82761 4.205 7ZM4.205 9.34C4.205 9.51239 4.27348 9.67772 4.39538 9.79962C4.51728 9.92152 4.68261 9.99 4.855 9.99C5.02739 9.99 5.19272 9.92152 5.31462 9.79962C5.43652 9.67772 5.505 9.51239 5.505 9.34C5.505 9.16761 5.43652 9.00228 5.31462 8.88038C5.19272 8.75848 5.02739 8.69 4.855 8.69C4.68261 8.69 4.51728 8.75848 4.39538 8.88038C4.27348 9.00228 4.205 9.16761 4.205 9.34Z" fill="#007184"/>
</svg>
