<svg width="16" height="16" viewBox="0 0 16 16" fill="none" xmlns="http://www.w3.org/2000/svg">
<path d="M1.76782 15.2671C1.82839 15.2671 1.88757 15.2565 1.94458 15.2388L4.21411 14.4995C6.12656 15.1316 8.2129 14.7834 9.80396 13.6245L9.79517 13.6167C10.4093 13.5828 11.0272 13.4619 11.6252 13.2495L13.886 13.9614C13.9575 13.984 14.033 13.9924 14.1077 13.9858C14.1823 13.9793 14.2551 13.958 14.3215 13.9233C14.388 13.8887 14.4472 13.8411 14.4954 13.7837C14.5434 13.7263 14.5794 13.6598 14.6018 13.5884C14.6197 13.5348 14.6292 13.4776 14.6292 13.4204L14.6428 11.0522C16.3963 8.78261 16.4699 5.58834 14.7502 3.21338C12.6163 0.290177 8.51232 -0.357907 5.58911 1.76709C5.20354 2.0456 4.85922 2.35857 4.55396 2.69775L4.55396 2.6958C3.19644 3.06057 2.00514 3.87984 1.17896 5.01709C-0.417359 7.21518 -0.376417 10.1666 1.19653 12.3022L1.19653 14.6958C1.19668 15.0116 1.45198 15.2669 1.76782 15.2671ZM11.5891 11.8921L11.3752 11.981C9.15207 12.847 6.59175 12.1221 5.16138 10.1597C3.45604 7.81327 3.97848 4.51834 6.33911 2.80225C8.69255 1.09877 11.9926 1.62058 13.7141 3.98096C15.1284 5.92914 15.0285 8.58439 13.5178 10.4272L13.3752 10.5884L13.3577 12.4458L11.5891 11.8921ZM2.50024 11.856L2.35767 11.6772C0.991728 9.98443 0.917806 7.56318 2.21411 5.78467C2.53375 5.34003 2.91082 4.97189 3.32153 4.67725L3.33228 4.67041C2.53946 6.68459 2.76114 9.04694 4.12524 10.9272C4.96108 12.0747 6.14695 12.9202 7.50415 13.3364L7.50024 13.3384C6.51275 13.6152 5.44653 13.5848 4.44653 13.2134L4.23267 13.1245L2.48267 13.7134L2.50024 11.856ZM6.9104 7.8042C7.3229 7.8042 7.64282 7.484 7.64282 7.08936C7.6426 6.69491 7.32276 6.37549 6.9104 6.37549C6.53378 6.37553 6.21434 6.69493 6.21411 7.08936C6.21411 7.48397 6.53365 7.80415 6.9104 7.8042ZM9.4104 7.8042C9.8229 7.8042 10.1428 7.484 10.1428 7.08936C10.1426 6.69491 9.82276 6.37549 9.4104 6.37549C9.03378 6.37553 8.71434 6.69493 8.71411 7.08936C8.71411 7.48397 9.03365 7.80415 9.4104 7.8042ZM11.9104 7.8042C12.3229 7.8042 12.6428 7.484 12.6428 7.08936C12.6426 6.69491 12.3228 6.37549 11.9104 6.37549C11.5338 6.37554 11.2143 6.69493 11.2141 7.08936C11.2141 7.48397 11.5337 7.80415 11.9104 7.8042Z" fill="#585B5F"/>
</svg>
