<svg width="36" height="36" viewBox="0 0 36 36" fill="none" xmlns="http://www.w3.org/2000/svg">
<path d="M20.0806 17.9981L30.6275 5.42624C30.8043 5.21731 30.6556 4.8999 30.3824 4.8999H27.1762C26.9873 4.8999 26.8065 4.98428 26.682 5.12892L17.9833 15.499L9.28465 5.12892C9.16411 4.98428 8.98331 4.8999 8.79045 4.8999H5.5842C5.31099 4.8999 5.16233 5.21731 5.33911 5.42624L15.886 17.9981L5.33911 30.57C5.29951 30.6166 5.2741 30.6735 5.26591 30.7341C5.25771 30.7947 5.26708 30.8563 5.29288 30.9118C5.31869 30.9672 5.35985 31.014 5.41149 31.0467C5.46313 31.0795 5.52307 31.0967 5.5842 31.0963H8.79045C8.97929 31.0963 9.16009 31.012 9.28465 30.8673L17.9833 20.4972L26.682 30.8673C26.8025 31.012 26.9833 31.0963 27.1762 31.0963H30.3824C30.6556 31.0963 30.8043 30.7789 30.6275 30.57L20.0806 17.9981Z" fill="#262626"/>
</svg>
