<svg width="36" height="36" viewBox="0 0 36 36" fill="none" xmlns="http://www.w3.org/2000/svg">
<path d="M13.8221 15.1888H33.1078C33.2846 15.1888 33.4292 15.0441 33.4292 14.8673V12.6173C33.4292 12.4405 33.2846 12.2959 33.1078 12.2959H13.8221C13.6453 12.2959 13.5006 12.4405 13.5006 12.6173V14.8673C13.5006 15.0441 13.6453 15.1888 13.8221 15.1888ZM13.5006 23.3852C13.5006 23.562 13.6453 23.7066 13.8221 23.7066H33.1078C33.2846 23.7066 33.4292 23.562 33.4292 23.3852V21.1352C33.4292 20.9584 33.2846 20.8138 33.1078 20.8138H13.8221C13.6453 20.8138 13.5006 20.9584 13.5006 21.1352V23.3852ZM33.7506 3.8584H2.25063C2.07384 3.8584 1.9292 4.00304 1.9292 4.17983V6.42983C1.9292 6.60661 2.07384 6.75126 2.25063 6.75126H33.7506C33.9274 6.75126 34.0721 6.60661 34.0721 6.42983V4.17983C34.0721 4.00304 33.9274 3.8584 33.7506 3.8584ZM33.7506 29.2513H2.25063C2.07384 29.2513 1.9292 29.3959 1.9292 29.5727V31.8227C1.9292 31.9995 2.07384 32.1441 2.25063 32.1441H33.7506C33.9274 32.1441 34.0721 31.9995 34.0721 31.8227V29.5727C34.0721 29.3959 33.9274 29.2513 33.7506 29.2513ZM2.06581 18.2785L8.34572 23.2245C8.57875 23.4093 8.92429 23.2446 8.92429 22.9472V13.0553C8.92429 12.758 8.58277 12.5932 8.34572 12.778L2.06581 17.724C2.02358 17.7569 1.98941 17.7989 1.96591 17.8469C1.9424 17.895 1.93018 17.9478 1.93018 18.0013C1.93018 18.0547 1.9424 18.1075 1.96591 18.1556C1.98941 18.2036 2.02358 18.2457 2.06581 18.2785Z" fill="#262626"/>
</svg>
