<svg xmlns="http://www.w3.org/2000/svg" width="34" height="34"><path d="M8.191 5.316a.34.34 0 0 1 .121-.156c.055-.039.121-.059.188-.059s.133.02.188.059a.33.33 0 0 1 .117.156l1.188 3.199a.3.3 0 0 0 .074.121c.035.031.074.059.117.074l3.203 1.184a.26.26 0 0 1 .121.082c.031.039.063.078.078.125s.02.102.012.148a.32.32 0 0 1-.059.141.3.3 0 0 1-.152.117l-3.203 1.184a.36.36 0 0 0-.121.078c-.031.031-.059.074-.074.117l-1.18 3.199a.34.34 0 0 1-.121.156c-.055.039-.121.059-.187.059s-.133-.02-.187-.059-.094-.094-.117-.156L7.01 11.882c-.016-.043-.039-.086-.074-.117a.46.46 0 0 0-.117-.078l-3.203-1.184c-.062-.02-.117-.062-.152-.117a.36.36 0 0 1-.062-.187.32.32 0 0 1 .063-.187c.04-.054.09-.098.152-.121L6.82 8.707a.3.3 0 0 0 .117-.074c.035-.035.063-.074.078-.117l1.184-3.203zm1.7 15.297c.023-.062.066-.117.121-.152a.36.36 0 0 1 .188-.062c.067 0 .133.023.188.063a.3.3 0 0 1 .117.152l1.188 3.203a.35.35 0 0 0 .074.121.35.35 0 0 0 .121.074l3.199 1.184a.29.29 0 0 1 .125.082c.031.035.059.078.074.125s.02.098.012.148-.027.098-.055.137a.34.34 0 0 1-.156.121l-3.203 1.184c-.043.016-.086.043-.117.078s-.062.074-.078.117l-1.18 3.199c-.023.063-.066.117-.121.152s-.117.063-.187.063-.129-.023-.184-.062-.098-.09-.121-.152l-1.184-3.203a.31.31 0 0 0-.078-.117.27.27 0 0 0-.117-.078l-3.199-1.184a.33.33 0 0 1-.156-.117c-.039-.055-.059-.121-.059-.187s.02-.133.059-.187a.34.34 0 0 1 .156-.121l3.199-1.184a.35.35 0 0 0 .121-.074c.031-.035.059-.074.074-.117l1.184-3.203zM21.484 7.23c.047-.125.129-.234.238-.312s.242-.117.375-.117.266.039.375.117.191.188.238.313l2.371 6.402a.64.64 0 0 0 .152.238.71.71 0 0 0 .234.152l6.402 2.367a.61.61 0 0 1 .246.16.68.68 0 0 1 .152.254.64.64 0 0 1 .023.297.65.65 0 0 1-.113.277c-.074.109-.184.191-.309.238l-6.406 2.367a.67.67 0 0 0-.234.152c-.066.066-.121.148-.152.238l-2.363 6.395a.68.68 0 0 1-.238.313.63.63 0 0 1-.375.117c-.137 0-.266-.039-.375-.117s-.191-.187-.238-.312l-2.371-6.402a.63.63 0 0 0-.148-.238.68.68 0 0 0-.234-.152l-6.402-2.367c-.129-.043-.238-.129-.312-.238a.64.64 0 0 1 0-.746.62.62 0 0 1 .313-.242l6.402-2.367a.67.67 0 0 0 .234-.152.58.58 0 0 0 .152-.234l2.367-6.402zm0 0" fill="currentColor" /></svg>