<?xml version="1.0" encoding="UTF-8" standalone="no"?><!DOCTYPE svg PUBLIC "-//W3C//DTD SVG 1.1//EN" "http://www.w3.org/Graphics/SVG/1.1/DTD/svg11.dtd"><svg width="100%" height="100%" viewBox="0 0 30 33" version="1.1" xmlns="http://www.w3.org/2000/svg" xmlns:xlink="http://www.w3.org/1999/xlink" xml:space="preserve" style="fill-rule:evenodd;clip-rule:evenodd;stroke-linecap:round;stroke-linejoin:bevel;stroke-miterlimit:1.5;"><g><path d="M26.661,0.217l0.076,0.003l0.075,0.005l0.074,0.006l0.075,0.009l0.073,0.01l0.073,0.012l0.073,0.014l0.071,0.016l0.071,0.017l0.071,0.019l0.07,0.021l0.069,0.022l0.068,0.024l0.067,0.026l0.067,0.027l0.066,0.029l0.065,0.03l0.064,0.032l0.063,0.034l0.062,0.035l0.062,0.036l0.06,0.038l0.06,0.039l0.058,0.04l0.058,0.042l0.056,0.043l0.055,0.045l0.054,0.046l0.053,0.047l0.052,0.048l0.051,0.05l0.049,0.05l0.049,0.052l0.047,0.053l0.046,0.054l0.044,0.056l0.043,0.056l0.042,0.057l0.041,0.059l0.039,0.059l0.038,0.061l0.036,0.061l0.035,0.062l0.033,0.064l0.032,0.064l0.03,0.065l0.029,0.065l0.027,0.067l0.026,0.068l0.024,0.068l0.023,0.069l0.02,0.07l0.019,0.07l0.018,0.071l0.015,0.072l0.014,0.072l0.012,0.073l0.011,0.074l0.008,0.074l0.007,0.075l0.005,0.075l0.002,0.076l0.001,0.076l0,26.092l-0.001,0.076l-0.002,0.076l-0.005,0.075l-0.007,0.075l-0.008,0.074l-0.011,0.074l-0.012,0.073l-0.014,0.072l-0.015,0.072l-0.018,0.071l-0.019,0.07l-0.02,0.07l-0.023,0.069l-0.024,0.068l-0.026,0.068l-0.027,0.066l-0.029,0.066l-0.03,0.065l-0.032,0.064l-0.033,0.064l-0.035,0.062l-0.036,0.061l-0.038,0.061l-0.039,0.059l-0.041,0.059l-0.042,0.057l-0.043,0.056l-0.044,0.056l-0.046,0.054l-0.047,0.053l-0.049,0.052l-0.049,0.05l-0.051,0.05l-0.052,0.048l-0.053,0.047l-0.054,0.046l-0.055,0.045l-0.057,0.043l-0.057,0.042l-0.058,0.04l-0.06,0.039l-0.06,0.038l-0.062,0.036l-0.062,0.035l-0.063,0.034l-0.064,0.031l-0.065,0.031l-0.066,0.029l-0.067,0.027l-0.067,0.026l-0.068,0.024l-0.069,0.022l-0.07,0.021l-0.071,0.019l-0.071,0.017l-0.071,0.016l-0.073,0.014l-0.073,0.012l-0.073,0.01l-0.075,0.009l-0.074,0.006l-0.075,0.005l-0.076,0.003l-0.076,0.001l-23.631,0l-0.076,-0.001l-0.076,-0.003l-0.075,-0.005l-0.075,-0.006l-0.074,-0.009l-0.074,-0.01l-0.073,-0.012l-0.072,-0.014l-0.072,-0.016l-0.071,-0.017l-0.07,-0.019l-0.07,-0.021l-0.069,-0.022l-0.068,-0.024l-0.068,-0.026l-0.066,-0.027l-0.066,-0.029l-0.065,-0.031l-0.064,-0.031l-0.064,-0.034l-0.062,-0.035l-0.061,-0.036l-0.061,-0.038l-0.059,-0.039l-0.059,-0.04l-0.057,-0.042l-0.056,-0.043l-0.056,-0.045l-0.054,-0.046l-0.053,-0.047l-0.052,-0.048l-0.05,-0.05l-0.05,-0.05l-0.048,-0.052l-0.047,-0.053l-0.046,-0.054l-0.045,-0.056l-0.043,-0.056l-0.042,-0.057l-0.04,-0.059l-0.039,-0.059l-0.038,-0.061l-0.036,-0.061l-0.035,-0.062l-0.034,-0.064l-0.032,-0.064l-0.03,-0.065l-0.029,-0.066l-0.027,-0.066l-0.026,-0.068l-0.024,-0.068l-0.022,-0.069l-0.021,-0.07l-0.019,-0.07l-0.017,-0.071l-0.016,-0.072l-0.014,-0.072l-0.012,-0.073l-0.01,-0.074l-0.009,-0.074l-0.006,-0.075l-0.005,-0.075l-0.003,-0.076l-0.001,-0.076l0,-26.092l0.001,-0.076l0.003,-0.076l0.005,-0.075l0.006,-0.075l0.009,-0.074l0.01,-0.074l0.012,-0.073l0.014,-0.072l0.016,-0.072l0.017,-0.071l0.019,-0.07l0.021,-0.07l0.022,-0.069l0.024,-0.068l0.026,-0.068l0.027,-0.067l0.029,-0.065l0.03,-0.065l0.032,-0.064l0.034,-0.064l0.035,-0.062l0.036,-0.061l0.038,-0.061l0.039,-0.059l0.04,-0.059l0.042,-0.057l0.043,-0.056l0.045,-0.056l0.046,-0.054l0.047,-0.053l0.048,-0.052l0.05,-0.05l0.05,-0.05l0.052,-0.048l0.053,-0.047l0.054,-0.046l0.056,-0.045l0.056,-0.043l0.057,-0.042l0.059,-0.04l0.059,-0.039l0.061,-0.038l0.061,-0.036l0.062,-0.035l0.064,-0.034l0.064,-0.032l0.065,-0.03l0.065,-0.029l0.067,-0.027l0.068,-0.026l0.068,-0.024l0.069,-0.022l0.07,-0.021l0.07,-0.019l0.071,-0.017l0.072,-0.016l0.072,-0.014l0.073,-0.012l0.074,-0.01l0.074,-0.009l0.075,-0.006l0.075,-0.005l0.076,-0.003l0.076,-0.001l23.631,0l0.076,0.001Zm-23.698,1.499l-0.047,0.001l-0.038,0.001l-0.037,0.002l-0.037,0.004l-0.037,0.004l-0.036,0.005l-0.036,0.006l-0.035,0.007l-0.035,0.007l-0.035,0.009l-0.034,0.009l-0.034,0.01l-0.034,0.011l-0.033,0.012l-0.033,0.012l-0.033,0.014l-0.032,0.014l-0.032,0.015l-0.031,0.015l-0.031,0.017l-0.031,0.017l-0.03,0.018l-0.03,0.018l-0.029,0.02l-0.029,0.02l-0.029,0.02l-0.027,0.022l-0.028,0.022l-0.027,0.022l-0.026,0.024l-0.026,0.024l-0.025,0.024l-0.024,0.026l-0.024,0.025l-0.023,0.026l-0.023,0.027l-0.022,0.028l-0.022,0.027l-0.02,0.029l-0.02,0.029l-0.02,0.029l-0.018,0.03l-0.018,0.03l-0.017,0.03l-0.017,0.032l-0.015,0.031l-0.015,0.032l-0.014,0.032l-0.014,0.033l-0.012,0.033l-0.012,0.033l-0.011,0.033l-0.01,0.035l-0.009,0.034l-0.009,0.035l-0.007,0.035l-0.007,0.035l-0.006,0.036l-0.005,0.036l-0.004,0.037l-0.004,0.036l-0.002,0.038l-0.001,0.038l-0.001,0.047l0,26.074l0.001,0.047l0.001,0.038l0.002,0.037l0.004,0.037l0.004,0.037l0.005,0.036l0.006,0.036l0.007,0.035l0.007,0.035l0.009,0.035l0.009,0.034l0.01,0.034l0.011,0.034l0.012,0.033l0.012,0.033l0.014,0.033l0.014,0.032l0.015,0.032l0.015,0.031l0.017,0.031l0.017,0.031l0.018,0.03l0.018,0.03l0.02,0.029l0.02,0.029l0.02,0.028l0.022,0.028l0.022,0.028l0.022,0.026l0.024,0.027l0.024,0.026l0.024,0.025l0.025,0.024l0.026,0.024l0.026,0.023l0.027,0.023l0.028,0.022l0.027,0.021l0.029,0.021l0.029,0.02l0.029,0.02l0.03,0.018l0.03,0.018l0.031,0.017l0.031,0.017l0.031,0.015l0.032,0.015l0.032,0.014l0.033,0.014l0.033,0.012l0.033,0.012l0.034,0.011l0.034,0.01l0.034,0.009l0.035,0.009l0.035,0.007l0.035,0.007l0.036,0.006l0.036,0.005l0.037,0.004l0.037,0.004l0.037,0.002l0.038,0.001l0.047,0.001l23.612,0l0.048,-0.001l0.037,-0.001l0.038,-0.002l0.037,-0.004l0.036,-0.004l0.036,-0.005l0.036,-0.006l0.036,-0.007l0.035,-0.007l0.034,-0.009l0.035,-0.009l0.034,-0.01l0.033,-0.011l0.034,-0.012l0.033,-0.012l0.032,-0.014l0.032,-0.014l0.032,-0.015l0.032,-0.015l0.031,-0.017l0.03,-0.017l0.031,-0.018l0.029,-0.018l0.03,-0.02l0.029,-0.02l0.028,-0.02l0.028,-0.022l0.027,-0.022l0.027,-0.023l0.026,-0.023l0.026,-0.024l0.025,-0.024l0.025,-0.025l0.024,-0.026l0.023,-0.027l0.023,-0.026l0.022,-0.028l0.021,-0.028l0.021,-0.028l0.02,-0.029l0.019,-0.029l0.019,-0.03l0.018,-0.03l0.017,-0.031l0.016,-0.031l0.016,-0.031l0.015,-0.032l0.014,-0.033l0.013,-0.032l0.013,-0.033l0.011,-0.033l0.011,-0.034l0.01,-0.034l0.01,-0.034l0.008,-0.035l0.008,-0.035l0.007,-0.035l0.005,-0.036l0.006,-0.036l0.004,-0.037l0.003,-0.037l0.002,-0.037l0.002,-0.038l0,-0.047l0,-26.074l0,-0.047l-0.002,-0.038l-0.002,-0.038l-0.003,-0.036l-0.004,-0.037l-0.006,-0.036l-0.005,-0.036l-0.007,-0.035l-0.008,-0.035l-0.008,-0.035l-0.01,-0.035l-0.01,-0.033l-0.011,-0.034l-0.011,-0.033l-0.013,-0.033l-0.013,-0.033l-0.014,-0.032l-0.015,-0.032l-0.016,-0.031l-0.016,-0.031l-0.017,-0.031l-0.018,-0.03l-0.019,-0.03l-0.019,-0.029l-0.02,-0.029l-0.021,-0.029l-0.021,-0.027l-0.022,-0.028l-0.023,-0.027l-0.023,-0.026l-0.024,-0.025l-0.025,-0.026l-0.025,-0.024l-0.026,-0.024l-0.026,-0.024l-0.027,-0.022l-0.027,-0.022l-0.028,-0.022l-0.029,-0.02l-0.028,-0.02l-0.03,-0.02l-0.029,-0.018l-0.031,-0.018l-0.03,-0.017l-0.031,-0.017l-0.032,-0.015l-0.031,-0.015l-0.033,-0.014l-0.032,-0.014l-0.033,-0.012l-0.034,-0.012l-0.033,-0.011l-0.034,-0.01l-0.035,-0.009l-0.034,-0.009l-0.035,-0.007l-0.036,-0.007l-0.036,-0.006l-0.036,-0.005l-0.036,-0.004l-0.037,-0.004l-0.038,-0.002l-0.037,-0.001l-0.048,-0.001l-23.612,0Z" style="fill:#8bc34a;"/><path d="M14,9l9,0" style="fill:none;stroke:#8bc34a;stroke-width:1.5px;"/><path d="M7,9l2,0" style="fill:none;stroke:#8bc34a;stroke-width:1.5px;"/><path d="M14,17l9,0" style="fill:none;stroke:#8bc34a;stroke-width:1.5px;"/><path d="M7,17l2,0" style="fill:none;stroke:#8bc34a;stroke-width:1.5px;"/><path d="M14,25l9,0" style="fill:none;stroke:#8bc34a;stroke-width:1.5px;"/><path d="M7,25l2,0" style="fill:none;stroke:#8bc34a;stroke-width:1.5px;"/></g></svg>