<!--

 What you're currently looking at is the source code of a legally protected, proprietary software.
 CKEditor 5 Collaboration is licensed under a commercial license and protected by copyright law. Where not otherwise indicated,
 all CKEditor 5 Collaboration content is authored by CKSource engineers and consists of CKSource-owned intellectual property.

 Copyright (c) 2003-2021, CKSource Frederico Knabben. All rights reserved.

!-->

<svg viewBox="0 0 20 20" xmlns="http://www.w3.org/2000/svg"><path d="M2.5 9.41c0 3.54 3.24 6.42 7.23 6.42 1.03 0 2.02-.19 2.95-.56 1.65.93 1.79.98 3.62 1.63.3.11.57.13.61.05.04-.08.02-.43-.08-.75-.48-1.63-.87-1.77-1.01-3.32a5.87 5.87 0 0 0 1.15-3.47C16.97 5.88 13.72 3 9.73 3S2.5 5.88 2.5 9.41zm9.64 0c0-.52.44-.95.97-.95s.96.43.96.95c0 .53-.43.95-.96.95a.96.96 0 0 1-.97-.95zm-3.37 0c0-.52.43-.95.96-.95.54 0 .97.43.97.95 0 .53-.43.95-.97.95a.96.96 0 0 1-.96-.95zm-3.38 0c0-.52.44-.95.97-.95s.96.43.96.95c0 .53-.43.95-.96.95a.96.96 0 0 1-.97-.95z"/></svg>
