<svg width="36" height="36" viewBox="0 0 36 36" fill="none" xmlns="http://www.w3.org/2000/svg">
<path d="M33.915 11.6187L23.7136 10.1361L19.1534 0.890975C19.0288 0.63785 18.8239 0.432939 18.5708 0.308385C17.9359 -0.00500745 17.1645 0.256153 16.8471 0.890975L12.2868 10.1361L2.0855 11.6187C1.80425 11.6588 1.54711 11.7914 1.35023 11.9923C1.11222 12.2369 0.981066 12.5661 0.985587 12.9073C0.990107 13.2486 1.12993 13.5742 1.37434 13.8124L8.75514 21.0084L7.01139 31.1695C6.9705 31.4059 6.99666 31.649 7.0869 31.8713C7.17713 32.0935 7.32784 32.2861 7.52194 32.427C7.71603 32.568 7.94573 32.6518 8.18501 32.6688C8.42428 32.6859 8.66355 32.6356 8.87568 32.5236L18.0002 27.7262L27.1248 32.5236C27.3739 32.6562 27.6632 32.7003 27.9404 32.6521C28.6395 32.5316 29.1096 31.8687 28.9891 31.1695L27.2453 21.0084L34.6261 13.8124C34.827 13.6155 34.9596 13.3584 34.9998 13.0771C35.1083 12.374 34.6181 11.7231 33.915 11.6187ZM24.1395 19.9959L25.59 28.4454L18.0002 24.4597L10.4105 28.4495L11.8609 19.9999L5.72166 14.0133L14.2074 12.7798L18.0002 5.09365L21.7931 12.7798L30.2788 14.0133L24.1395 19.9959Z" fill="#262626"/>
</svg>
