<?xml version="1.0" encoding="UTF-8" standalone="no"?><!DOCTYPE svg PUBLIC "-//W3C//DTD SVG 1.1//EN" "http://www.w3.org/Graphics/SVG/1.1/DTD/svg11.dtd"><svg width="100%" height="100%" viewBox="0 0 30 30" version="1.1" xmlns="http://www.w3.org/2000/svg" xmlns:xlink="http://www.w3.org/1999/xlink" xml:space="preserve" style="fill-rule:evenodd;clip-rule:evenodd;stroke-linecap:round;stroke-linejoin:round;stroke-miterlimit:1.5;"><g id="bulb"><circle cx="15" cy="15" r="15" style="fill:#4fa800;"/><g><path d="M11.411,20.725l7.55,0" style="fill:none;stroke:#fff;stroke-width:1px;"/><path d="M11.411,22.612l7.55,0" style="fill:none;stroke:#fff;stroke-width:1px;"/><path d="M13.298,24.5l3.776,0" style="fill:none;stroke:#fff;stroke-width:1px;"/><path d="M15.098,4.001l0.098,0.001l0.098,0.004l0.098,0.004l0.097,0.005l0.096,0.007l0.097,0.008l0.097,0.009l0.096,0.011l0.095,0.011l0.096,0.013l0.095,0.014l0.094,0.015l0.094,0.016l0.095,0.018l0.093,0.018l0.093,0.02l0.093,0.021l0.091,0.022l0.093,0.023l0.091,0.024l0.09,0.025l0.092,0.026l0.089,0.028l0.09,0.028l0.089,0.03l0.088,0.03l0.088,0.032l0.089,0.033l0.086,0.034l0.087,0.034l0.086,0.036l0.085,0.037l0.085,0.038l0.084,0.038l0.084,0.04l0.084,0.041l0.082,0.042l0.082,0.042l0.082,0.044l0.081,0.045l0.079,0.045l0.08,0.047l0.079,0.047l0.078,0.048l0.079,0.05l0.077,0.05l0.076,0.05l0.076,0.052l0.075,0.053l0.074,0.054l0.074,0.054l0.073,0.055l0.072,0.057l0.072,0.057l0.071,0.057l0.071,0.059l0.069,0.06l0.069,0.06l0.068,0.062l0.068,0.062l0.066,0.062l0.065,0.063l0.066,0.065l0.064,0.065l0.063,0.066l0.063,0.066l0.062,0.068l0.062,0.068l0.06,0.069l0.059,0.069l0.059,0.07l0.058,0.072l0.057,0.071l0.056,0.072l0.056,0.074l0.054,0.074l0.053,0.073l0.053,0.076l0.052,0.076l0.051,0.076l0.051,0.078l0.048,0.077l0.049,0.079l0.047,0.079l0.046,0.079l0.046,0.08l0.045,0.081l0.043,0.082l0.043,0.082l0.042,0.083l0.04,0.082l0.04,0.085l0.039,0.084l0.038,0.084l0.037,0.086l0.036,0.086l0.034,0.086l0.034,0.088l0.033,0.087l0.031,0.088l0.031,0.089l0.029,0.089l0.029,0.089l0.027,0.091l0.027,0.09l0.025,0.091l0.024,0.091l0.023,0.092l0.022,0.093l0.021,0.092l0.02,0.093l0.018,0.094l0.017,0.093l0.017,0.094l0.015,0.095l0.014,0.095l0.012,0.095l0.012,0.096l0.01,0.097l0.009,0.095l0.008,0.097l0.007,0.097l0.006,0.098l0.004,0.097l0.003,0.098l0.002,0.097l0.001,0.1l-0.001,0.077l-0.002,0.076l-0.004,0.077l-0.004,0.076l-0.007,0.076l-0.007,0.073l-0.009,0.075l-0.01,0.075l-0.011,0.072l-0.012,0.072l-0.013,0.072l-0.015,0.072l-0.015,0.07l-0.018,0.075l-0.034,0.132l-0.04,0.134l-0.042,0.131l-0.045,0.128l-0.048,0.125l-0.051,0.123l-0.052,0.119l-0.054,0.116l-0.055,0.114l-0.057,0.112l-0.058,0.109l-0.059,0.106l-0.059,0.104l-0.061,0.103l-0.06,0.101l-0.061,0.098l-0.062,0.098l-0.119,0.186l-0.12,0.182l-0.232,0.35l-0.111,0.168l-0.107,0.166l-0.05,0.079l-0.049,0.079l-0.048,0.079l-0.047,0.078l-0.045,0.077l-0.042,0.076l-0.041,0.076l-0.04,0.075l-0.037,0.074l-0.036,0.073l-0.033,0.073l-0.032,0.072l-0.03,0.071l-0.028,0.071l-0.026,0.071l-0.023,0.07l-0.022,0.07l-0.02,0.07l-0.019,0.074l-0.007,0.03l-0.008,0.036l-0.008,0.035l-0.007,0.035l-0.006,0.035l-0.006,0.035l-0.005,0.036l-0.005,0.035l-0.004,0.037l-0.004,0.036l-0.003,0.035l-0.003,0.038l-0.002,0.037l-0.002,0.037l-0.001,0.038l-0.001,0.038l0,0.039l0.001,0.05l-0.002,0.084l-0.005,0.084l-0.011,0.083l-0.015,0.083l-0.02,0.081l-0.024,0.081l-0.029,0.079l-0.033,0.077l-0.038,0.075l-0.042,0.073l-0.045,0.07l-0.05,0.068l-0.053,0.065l-0.057,0.062l-0.06,0.059l-0.063,0.055l-0.067,0.051l-0.069,0.048l-0.071,0.044l-0.074,0.04l-0.077,0.035l-0.078,0.031l-0.079,0.027l-0.081,0.022l-0.082,0.018l-0.083,0.013l-0.084,0.009l-0.084,0.003l-0.538,0.009l-0.514,0.006l-0.49,0.002l-0.47,0.001l-0.452,-0.002l-0.439,-0.003l-0.428,-0.004l-0.422,-0.004l-0.841,-0.009l-0.425,-0.004l-0.435,-0.002l-0.447,-0.001l-0.465,0.001l-0.486,0.004l-0.515,0.006l-0.085,-0.001l-0.086,-0.006l-0.085,-0.011l-0.084,-0.016l-0.083,-0.021l-0.082,-0.026l-0.081,-0.03l-0.078,-0.034l-0.076,-0.04l-0.074,-0.043l-0.072,-0.047l-0.068,-0.052l-0.066,-0.055l-0.062,-0.059l-0.059,-0.063l-0.055,-0.066l-0.051,-0.068l-0.047,-0.072l-0.043,-0.074l-0.039,-0.077l-0.034,-0.078l-0.03,-0.081l-0.025,-0.082l-0.02,-0.083l-0.016,-0.084l-0.011,-0.085l-0.006,-0.086l-0.002,-0.058l-0.002,-0.048l-0.003,-0.047l-0.004,-0.047l-0.004,-0.047l-0.005,-0.046l-0.005,-0.044l-0.006,-0.045l-0.006,-0.045l-0.007,-0.044l-0.007,-0.042l-0.008,-0.043l-0.008,-0.044l-0.008,-0.037l-0.019,-0.088l-0.021,-0.083l-0.022,-0.081l-0.024,-0.08l-0.025,-0.079l-0.028,-0.079l-0.029,-0.079l-0.03,-0.077l-0.032,-0.078l-0.034,-0.077l-0.035,-0.078l-0.037,-0.077l-0.039,-0.077l-0.04,-0.077l-0.041,-0.077l-0.043,-0.078l-0.045,-0.078l-0.046,-0.078l-0.046,-0.078l-0.049,-0.08l-0.048,-0.077l-0.104,-0.164l-0.107,-0.163l-0.223,-0.338l-0.114,-0.175l-0.114,-0.178l-0.06,-0.094l-0.058,-0.095l-0.058,-0.096l-0.057,-0.098l-0.057,-0.1l-0.057,-0.102l-0.056,-0.105l-0.054,-0.107l-0.054,-0.109l-0.052,-0.113l-0.05,-0.114l-0.048,-0.118l-0.046,-0.121l-0.044,-0.123l-0.041,-0.127l-0.037,-0.129l-0.035,-0.133l-0.029,-0.129l-0.015,-0.076l-0.013,-0.069l-0.012,-0.07l-0.01,-0.07l-0.01,-0.071l-0.008,-0.073l-0.007,-0.072l-0.006,-0.072l-0.005,-0.074l-0.003,-0.074l-0.002,-0.075l-0.001,-0.073l0.001,-0.1l0.002,-0.097l0.003,-0.098l0.004,-0.098l0.006,-0.097l0.006,-0.097l0.008,-0.096l0.01,-0.097l0.01,-0.096l0.012,-0.095l0.012,-0.096l0.014,-0.095l0.015,-0.094l0.016,-0.094l0.018,-0.095l0.018,-0.093l0.02,-0.093l0.021,-0.093l0.022,-0.091l0.023,-0.093l0.024,-0.091l0.025,-0.091l0.027,-0.091l0.027,-0.09l0.029,-0.089l0.029,-0.089l0.031,-0.088l0.031,-0.089l0.033,-0.088l0.034,-0.087l0.034,-0.086l0.036,-0.086l0.037,-0.085l0.038,-0.086l0.039,-0.083l0.039,-0.084l0.041,-0.084l0.042,-0.083l0.042,-0.081l0.044,-0.082l0.045,-0.081l0.045,-0.08l0.047,-0.08l0.047,-0.078l0.048,-0.079l0.05,-0.078l0.05,-0.077l0.051,-0.076l0.052,-0.076l0.052,-0.075l0.054,-0.074l0.055,-0.075l0.055,-0.072l0.056,-0.073l0.057,-0.071l0.058,-0.071l0.059,-0.071l0.059,-0.069l0.061,-0.069l0.061,-0.068l0.062,-0.068l0.063,-0.066l0.063,-0.066l0.064,-0.065l0.066,-0.065l0.065,-0.063l0.066,-0.062l0.068,-0.062l0.068,-0.062l0.069,-0.06l0.07,-0.06l0.07,-0.059l0.071,-0.057l0.072,-0.057l0.072,-0.057l0.073,-0.055l0.074,-0.054l0.074,-0.054l0.075,-0.053l0.076,-0.052l0.076,-0.05l0.077,-0.051l0.079,-0.049l0.078,-0.048l0.079,-0.047l0.08,-0.047l0.08,-0.045l0.08,-0.045l0.082,-0.044l0.082,-0.042l0.082,-0.042l0.084,-0.041l0.084,-0.04l0.084,-0.038l0.085,-0.038l0.086,-0.037l0.085,-0.036l0.087,-0.034l0.086,-0.034l0.088,-0.033l0.089,-0.032l0.088,-0.03l0.089,-0.03l0.09,-0.028l0.089,-0.028l0.092,-0.026l0.09,-0.025l0.091,-0.024l0.093,-0.023l0.091,-0.022l0.093,-0.021l0.094,-0.02l0.092,-0.018l0.095,-0.018l0.094,-0.016l0.094,-0.015l0.095,-0.014l0.096,-0.013l0.095,-0.011l0.096,-0.011l0.097,-0.009l0.097,-0.008l0.096,-0.007l0.097,-0.005l0.098,-0.004l0.098,-0.004l0.098,-0.001l0.098,-0.001l0.098,0.001Zm-0.177,1.5l-0.079,0.001l-0.079,0.003l-0.078,0.003l-0.079,0.004l-0.078,0.006l-0.077,0.006l-0.078,0.008l-0.077,0.008l-0.077,0.009l-0.076,0.011l-0.077,0.011l-0.076,0.012l-0.075,0.013l-0.076,0.014l-0.075,0.015l-0.074,0.016l-0.075,0.016l-0.074,0.018l-0.073,0.018l-0.074,0.02l-0.073,0.02l-0.072,0.021l-0.072,0.022l-0.072,0.023l-0.072,0.024l-0.071,0.024l-0.07,0.026l-0.071,0.026l-0.07,0.027l-0.069,0.028l-0.069,0.028l-0.069,0.03l-0.068,0.03l-0.067,0.031l-0.068,0.032l-0.066,0.033l-0.067,0.034l-0.066,0.034l-0.065,0.035l-0.065,0.036l-0.065,0.036l-0.064,0.038l-0.063,0.038l-0.063,0.038l-0.063,0.04l-0.062,0.04l-0.061,0.041l-0.061,0.042l-0.06,0.042l-0.06,0.044l-0.06,0.043l-0.058,0.045l-0.059,0.045l-0.057,0.046l-0.057,0.047l-0.057,0.047l-0.056,0.048l-0.055,0.048l-0.055,0.049l-0.054,0.05l-0.054,0.051l-0.053,0.051l-0.052,0.052l-0.052,0.052l-0.051,0.053l-0.05,0.054l-0.05,0.054l-0.049,0.055l-0.049,0.055l-0.048,0.056l-0.047,0.056l-0.047,0.058l-0.046,0.057l-0.045,0.058l-0.044,0.059l-0.044,0.06l-0.043,0.059l-0.043,0.061l-0.041,0.061l-0.041,0.061l-0.041,0.062l-0.039,0.063l-0.039,0.063l-0.038,0.063l-0.037,0.064l-0.037,0.065l-0.036,0.065l-0.035,0.065l-0.034,0.066l-0.034,0.066l-0.032,0.067l-0.032,0.067l-0.031,0.068l-0.031,0.068l-0.029,0.069l-0.029,0.069l-0.028,0.069l-0.027,0.07l-0.026,0.07l-0.026,0.071l-0.024,0.071l-0.024,0.071l-0.023,0.072l-0.022,0.072l-0.021,0.073l-0.02,0.073l-0.019,0.073l-0.019,0.074l-0.018,0.074l-0.016,0.074l-0.016,0.075l-0.015,0.075l-0.014,0.075l-0.013,0.076l-0.012,0.076l-0.011,0.076l-0.01,0.077l-0.01,0.077l-0.008,0.077l-0.007,0.077l-0.007,0.078l-0.005,0.078l-0.005,0.078l-0.003,0.079l-0.003,0.078l-0.001,0.079l-0.001,0.08l0.001,0.048l0.001,0.047l0.002,0.047l0.003,0.047l0.004,0.047l0.004,0.046l0.006,0.047l0.006,0.046l0.007,0.045l0.007,0.046l0.009,0.045l0.009,0.045l0.02,0.089l0.023,0.088l0.025,0.088l0.028,0.086l0.031,0.087l0.032,0.085l0.035,0.085l0.037,0.085l0.039,0.084l0.041,0.083l0.043,0.084l0.044,0.083l0.046,0.083l0.047,0.083l0.048,0.082l0.05,0.083l0.051,0.083l0.052,0.082l0.107,0.166l0.109,0.168l0.224,0.339l0.113,0.173l0.112,0.176l0.055,0.089l0.056,0.091l0.054,0.091l0.054,0.092l0.053,0.093l0.053,0.095l0.051,0.095l0.05,0.097l0.049,0.098l0.048,0.1l0.046,0.101l0.045,0.102l0.043,0.104l0.041,0.106l0.04,0.107l0.038,0.109l0.035,0.111l0.034,0.112l0.031,0.115l0.029,0.116l0.026,0.119l0.012,0.06l0.012,0.06l0.011,0.061l0.01,0.062l0.01,0.062l0.009,0.063l0.008,0.063l0.007,0.064l0.007,0.064l0.006,0.065l0.005,0.066l0.004,0.066l0.003,0.067l0.003,0.067l0.519,-0.006l0.493,-0.004l0.472,-0.001l0.454,0.001l0.439,0.002l0.429,0.004l0.843,0.009l0.421,0.004l0.425,0.004l0.435,0.003l0.446,0.002l0.463,-0.001l0.483,-0.002l0.506,-0.006l0.534,-0.009l-0.001,-0.061l0,-0.061l0.001,-0.061l0.002,-0.06l0.003,-0.06l0.003,-0.059l0.005,-0.059l0.005,-0.059l0.006,-0.058l0.007,-0.057l0.008,-0.057l0.009,-0.057l0.009,-0.057l0.01,-0.056l0.011,-0.055l0.011,-0.055l0.012,-0.055l0.013,-0.055l0.028,-0.108l0.031,-0.106l0.033,-0.105l0.035,-0.104l0.037,-0.103l0.04,-0.101l0.042,-0.1l0.043,-0.099l0.046,-0.098l0.047,-0.097l0.048,-0.096l0.05,-0.095l0.052,-0.094l0.052,-0.094l0.054,-0.092l0.054,-0.092l0.056,-0.091l0.056,-0.091l0.057,-0.09l0.115,-0.178l0.116,-0.176l0.232,-0.349l0.113,-0.173l0.112,-0.173l0.054,-0.086l0.053,-0.086l0.052,-0.087l0.051,-0.087l0.05,-0.087l0.048,-0.087l0.047,-0.087l0.044,-0.088l0.043,-0.089l0.042,-0.088l0.039,-0.089l0.036,-0.09l0.035,-0.091l0.032,-0.09l0.03,-0.092l0.027,-0.092l0.024,-0.094l0.011,-0.046l0.011,-0.048l0.009,-0.047l0.009,-0.047l0.008,-0.048l0.008,-0.048l0.006,-0.048l0.006,-0.049l0.005,-0.049l0.004,-0.049l0.003,-0.049l0.002,-0.049l0.001,-0.05l0.001,-0.05l-0.001,-0.08l-0.001,-0.079l-0.003,-0.078l-0.003,-0.079l-0.005,-0.078l-0.005,-0.078l-0.007,-0.078l-0.007,-0.077l-0.008,-0.077l-0.01,-0.077l-0.01,-0.077l-0.011,-0.076l-0.012,-0.076l-0.013,-0.076l-0.014,-0.075l-0.015,-0.075l-0.016,-0.075l-0.016,-0.074l-0.018,-0.074l-0.019,-0.074l-0.019,-0.073l-0.02,-0.073l-0.021,-0.073l-0.022,-0.072l-0.023,-0.072l-0.024,-0.071l-0.024,-0.071l-0.026,-0.071l-0.026,-0.07l-0.027,-0.07l-0.028,-0.069l-0.029,-0.069l-0.029,-0.069l-0.031,-0.068l-0.031,-0.068l-0.032,-0.067l-0.032,-0.067l-0.034,-0.066l-0.034,-0.066l-0.035,-0.065l-0.036,-0.065l-0.037,-0.065l-0.037,-0.064l-0.038,-0.063l-0.039,-0.063l-0.039,-0.063l-0.041,-0.062l-0.041,-0.061l-0.041,-0.061l-0.043,-0.061l-0.043,-0.059l-0.044,-0.06l-0.044,-0.059l-0.045,-0.058l-0.046,-0.057l-0.047,-0.058l-0.047,-0.056l-0.048,-0.056l-0.049,-0.055l-0.049,-0.055l-0.05,-0.054l-0.05,-0.054l-0.051,-0.053l-0.052,-0.052l-0.052,-0.052l-0.053,-0.051l-0.054,-0.051l-0.054,-0.05l-0.055,-0.049l-0.055,-0.048l-0.056,-0.048l-0.057,-0.047l-0.057,-0.047l-0.057,-0.046l-0.059,-0.045l-0.058,-0.045l-0.06,-0.043l-0.06,-0.044l-0.06,-0.042l-0.061,-0.042l-0.061,-0.041l-0.062,-0.04l-0.063,-0.04l-0.063,-0.038l-0.063,-0.038l-0.064,-0.038l-0.065,-0.036l-0.065,-0.036l-0.065,-0.035l-0.066,-0.034l-0.067,-0.034l-0.066,-0.033l-0.068,-0.032l-0.067,-0.031l-0.068,-0.03l-0.069,-0.03l-0.069,-0.028l-0.069,-0.028l-0.07,-0.027l-0.071,-0.026l-0.07,-0.026l-0.071,-0.024l-0.072,-0.024l-0.072,-0.023l-0.072,-0.022l-0.072,-0.021l-0.073,-0.02l-0.074,-0.02l-0.073,-0.018l-0.074,-0.018l-0.075,-0.016l-0.074,-0.016l-0.075,-0.015l-0.076,-0.014l-0.075,-0.013l-0.076,-0.012l-0.077,-0.011l-0.076,-0.011l-0.077,-0.009l-0.077,-0.008l-0.078,-0.008l-0.077,-0.006l-0.078,-0.006l-0.079,-0.004l-0.078,-0.003l-0.079,-0.003l-0.079,-0.001l-0.079,-0.001l-0.079,0.001Z" style="fill:#fff;"/><path d="M15.472,7.419c-2.606,0 -4.719,2.113 -4.719,4.719" style="fill:none;stroke:#fff;stroke-width:1px;"/></g></g></svg>