<!--

 What you're currently looking at is the source code of a legally protected, proprietary software.
 CKEditor 5 Collaboration is licensed under a commercial license and protected by copyright law. Where not otherwise indicated,
 all CKEditor 5 Collaboration content is authored by CKSource engineers and consists of CKSource-owned intellectual property.

 Copyright (c) 2003-2021, CKSource Holding sp. z o.o. All rights reserved.

!-->

<svg viewBox="0 0 20 20" width="20" height="20" xmlns="http://www.w3.org/2000/svg"><g fill="#000" fill-rule="nonzero"><path d="M1 3.28C1 2.574 1.574 2 2.272 2h10.23c.703 0 1.272.573 1.272 1.28v12.768c0 .708-.574 1.281-1.271 1.281H2.272A1.276 1.276 0 0 1 1 16.049V3.28zm11.503 12.954c-.008 0-.006-12.77-.006-12.77 0-.003-10.225-.004-10.225-.004.007 0 .005 12.77.005 12.77 0 .003 10.226.004 10.226.004zm-8.31-9.58c0-.353.292-.64.636-.64h5.116c.351 0 .636.284.636.64a.641.641 0 0 1-.636.638H4.829a.636.636 0 0 1-.635-.639zm0 2.554c0-.352.292-.638.636-.638h5.116c.351 0 .636.283.636.638a.641.641 0 0 1-.636.639H4.829a.636.636 0 0 1-.635-.639zm0 2.555c0-.353.289-.639.633-.639h2.567c.35 0 .633.284.633.64a.639.639 0 0 1-.633.638H4.826a.634.634 0 0 1-.632-.639z"/><path d="M10.515 17.958l.154-.23c-.195-.099-.304-.193-.328-.28-.024-.09.001-.275.076-.552.062-.165.099-.296.111-.393.013-.159.013-.319 0-.478-.138-.41-.2-.686-.187-.83.013-.145.117-.335.313-.57l4.465-6.208c.356-.6 1.059-.56 2.11.119 1.051.68 1.443 1.271 1.177 1.771L14.53 17.14c-.105.271-.22.444-.347.516-.128.07-.399.118-.813.138a2.954 2.954 0 0 0-.487.21 2.044 2.044 0 0 0-.347.31c-.193.174-.332.262-.416.262-.064 0-.178-.05-.346-.15l-.204.27-1.056-.738h.001zm-.184.274l1.039.727-.259.34H9.614l.717-1.067z"/></g></svg>
