
<svg width="16" height="16" viewBox="0 0 16 16" fill="none" xmlns="http://www.w3.org/2000/svg">
<path d="M14.3291 6.87262L14.3257 6.8589L12.4004 1.96674C12.3146 1.69047 12.0589 1.5 11.7689 1.5H3.9648C3.67309 1.5 3.41398 1.6939 3.33161 1.9736L1.53159 6.816L1.52644 6.82801L1.52301 6.84174C1.5007 6.92582 1.49384 7.01162 1.50585 7.0957C1.50413 7.12315 1.50242 7.15061 1.50242 7.17806V13.4567C1.50287 13.7333 1.61293 13.9984 1.80849 14.1939C2.00405 14.3895 2.26915 14.4995 2.54571 14.5H13.3081C13.883 14.5 14.3514 14.0315 14.3531 13.4567V7.17806C14.3531 7.15576 14.3531 7.13345 14.3514 7.11457C14.3583 7.03049 14.3514 6.94984 14.3291 6.87262ZM9.25334 6.13477L9.24819 6.40417C9.23447 7.17463 8.70252 7.69285 7.9252 7.69285C7.54598 7.69285 7.21995 7.57101 6.98486 7.33936C6.74978 7.10771 6.62108 6.78511 6.61422 6.40417L6.60907 6.13477H3.07765L4.44183 2.81785H11.2919L12.6938 6.13477H9.25334ZM2.81855 7.45261H5.51773C5.9347 8.43242 6.82185 9.01069 7.92692 9.01069C8.50519 9.01069 9.04228 8.84939 9.47641 8.54395C9.85735 8.27627 10.1542 7.90219 10.3464 7.45261H13.0319V13.1822H2.81855V7.45261Z" fill="#E7A138"/>
</svg>
