<svg width="36" height="36" viewBox="0 0 36 36" fill="none" xmlns="http://www.w3.org/2000/svg">
<path d="M33.0234 17.1365C33.168 16.6543 33.2403 16.1561 33.2403 15.6498C33.2403 14.5128 32.8667 13.4199 32.1917 12.528C32.3363 12.0458 32.4086 11.5476 32.4086 11.0414C32.4086 9.90431 32.035 8.81145 31.36 7.91949C31.5046 7.43735 31.5769 6.93913 31.5769 6.43288C31.5769 4.35967 30.3435 2.49136 28.431 1.67574C28.0948 1.53081 27.7323 1.45694 27.3662 1.45877H3.21488C2.50372 1.45877 1.92917 2.03333 1.92917 2.74449V17.3695C1.92917 18.0806 2.50372 18.6552 3.21488 18.6552H8.40997L11.8573 31.1427C12.4118 33.1556 14.26 34.5619 16.3493 34.5619C17.5426 34.5619 18.6555 34.0878 19.4792 33.2199C20.3028 32.3561 20.7247 31.2231 20.6644 30.0298L20.4234 25.0918H30.0622C30.5484 25.0918 31.0225 24.9632 31.4403 24.7181C33.0635 23.774 34.072 22.0623 34.072 20.2583C34.072 19.1213 33.6984 18.0284 33.0234 17.1365ZM4.82203 15.7583V4.34761H8.07649V15.7583H4.82203ZM30.022 22.203H17.3899L17.7756 30.1744C17.7997 30.6525 17.5868 31.1025 17.189 31.3998C16.9439 31.5806 16.6426 31.6731 16.3412 31.669C15.9562 31.6653 15.5829 31.5368 15.2771 31.3028C14.9714 31.0688 14.7498 30.7419 14.6457 30.3713L10.6479 15.8869V4.34761H27.3381C27.7397 4.5276 28.0808 4.81977 28.3203 5.189C28.5598 5.55822 28.6875 5.98877 28.6881 6.42886C28.6881 6.8186 28.5957 7.18824 28.4109 7.52574L27.8524 8.54627L28.7323 9.30967C28.98 9.52417 29.1785 9.78952 29.3144 10.0877C29.4503 10.3858 29.5203 10.7097 29.5198 11.0373C29.5198 11.4271 29.4274 11.7967 29.2426 12.1342L28.6841 13.1548L29.564 13.9181C29.8117 14.1327 30.0102 14.398 30.1461 14.6961C30.282 14.9943 30.352 15.3182 30.3515 15.6458C30.3515 16.0356 30.2591 16.4052 30.0743 16.7427L29.5118 17.7673L30.3917 18.5306C30.6393 18.7452 30.8379 19.0105 30.9738 19.3086C31.1097 19.6068 31.1797 19.9307 31.1792 20.2583C31.1792 21.0257 30.7372 21.765 30.022 22.203Z" fill="#262626"/>
</svg>
