<svg xmlns="http://www.w3.org/2000/svg" width="12" height="13" viewBox="0 0 12 13" fill="none">
  <path d="M11.7617 6.1553C10.492 3.48075 8.57285 2.13477 6.00008 2.13477C3.42597 2.13477 1.50811 3.48075 0.23847 6.15664C0.187544 6.26448 0.161133 6.38225 0.161133 6.50151C0.161133 6.62076 0.187544 6.73854 0.23847 6.84637C1.50811 9.52093 3.42731 10.8669 6.00008 10.8669C8.57418 10.8669 10.492 9.52093 11.7617 6.84503C11.8648 6.62807 11.8648 6.37628 11.7617 6.1553ZM6.00008 9.90262C3.83981 9.90262 2.25811 8.80709 1.14249 6.50084C2.25811 4.19459 3.83981 3.09905 6.00008 3.09905C8.16035 3.09905 9.74204 4.19459 10.8577 6.50084C9.74338 8.80709 8.16168 9.90262 6.00008 9.90262ZM5.94651 4.14369C4.64472 4.14369 3.58936 5.19905 3.58936 6.50084C3.58936 7.80262 4.64472 8.85798 5.94651 8.85798C7.24829 8.85798 8.30365 7.80262 8.30365 6.50084C8.30365 5.19905 7.24829 4.14369 5.94651 4.14369ZM5.94651 8.00084C5.11749 8.00084 4.44651 7.32986 4.44651 6.50084C4.44651 5.67182 5.11749 5.00084 5.94651 5.00084C6.77552 5.00084 7.44651 5.67182 7.44651 6.50084C7.44651 7.32986 6.77552 8.00084 5.94651 8.00084Z" fill="#743CCD"/>
</svg>
