<svg width="14" height="14" viewBox="0 0 14 14" fill="none" xmlns="http://www.w3.org/2000/svg">
<g id="icon-wrapper">
<path id="Union" d="M13.25 2.00098H4.125C4.05625 2.00098 4 2.05723 4 2.12598V3.00098C4 3.06973 4.05625 3.12598 4.125 3.12598H13.25C13.3188 3.12598 13.375 3.06973 13.375 3.00098V2.12598C13.375 2.05723 13.3188 2.00098 13.25 2.00098ZM13.25 6.43848H4.125C4.05625 6.43848 4 6.49473 4 6.56348V7.43848C4 7.50723 4.05625 7.56348 4.125 7.56348H13.25C13.3188 7.56348 13.375 7.50723 13.375 7.43848V6.56348C13.375 6.49473 13.3188 6.43848 13.25 6.43848ZM13.25 10.876H4.125C4.05625 10.876 4 10.9322 4 11.001V11.876C4 11.9447 4.05625 12.001 4.125 12.001H13.25C13.3188 12.001 13.375 11.9447 13.375 11.876V11.001C13.375 10.9322 13.3188 10.876 13.25 10.876ZM0.625 2.56348C0.625 2.67838 0.647633 2.79216 0.691605 2.89832C0.735578 3.00448 0.80003 3.10094 0.881282 3.1822C0.962533 3.26345 1.05899 3.3279 1.16515 3.37187C1.27131 3.41584 1.38509 3.43848 1.5 3.43848C1.61491 3.43848 1.72869 3.41584 1.83485 3.37187C1.94101 3.3279 2.03747 3.26345 2.11872 3.1822C2.19997 3.10094 2.26442 3.00448 2.30839 2.89832C2.35237 2.79216 2.375 2.67838 2.375 2.56348C2.375 2.44857 2.35237 2.33479 2.30839 2.22863C2.26442 2.12247 2.19997 2.02601 2.11872 1.94476C2.03747 1.86351 1.94101 1.79905 1.83485 1.75508C1.72869 1.71111 1.61491 1.68848 1.5 1.68848C1.38509 1.68848 1.27131 1.71111 1.16515 1.75508C1.05899 1.79905 0.962533 1.86351 0.881282 1.94476C0.80003 2.02601 0.735578 2.12247 0.691605 2.22863C0.647633 2.33479 0.625 2.44857 0.625 2.56348V2.56348ZM0.625 7.00098C0.625 7.11588 0.647633 7.22967 0.691605 7.33582C0.735578 7.44198 0.80003 7.53844 0.881282 7.61969C0.962533 7.70095 1.05899 7.7654 1.16515 7.80937C1.27131 7.85334 1.38509 7.87598 1.5 7.87598C1.61491 7.87598 1.72869 7.85334 1.83485 7.80937C1.94101 7.7654 2.03747 7.70095 2.11872 7.61969C2.19997 7.53844 2.26442 7.44198 2.30839 7.33582C2.35237 7.22967 2.375 7.11588 2.375 7.00098C2.375 6.88607 2.35237 6.77229 2.30839 6.66613C2.26442 6.55997 2.19997 6.46351 2.11872 6.38226C2.03747 6.30101 1.94101 6.23655 1.83485 6.19258C1.72869 6.14861 1.61491 6.12598 1.5 6.12598C1.38509 6.12598 1.27131 6.14861 1.16515 6.19258C1.05899 6.23655 0.962533 6.30101 0.881282 6.38226C0.80003 6.46351 0.735578 6.55997 0.691605 6.66613C0.647633 6.77229 0.625 6.88607 0.625 7.00098V7.00098ZM0.625 11.4385C0.625 11.5534 0.647633 11.6672 0.691605 11.7733C0.735578 11.8795 0.80003 11.9759 0.881282 12.0572C0.962533 12.1384 1.05899 12.2029 1.16515 12.2469C1.27131 12.2908 1.38509 12.3135 1.5 12.3135C1.61491 12.3135 1.72869 12.2908 1.83485 12.2469C1.94101 12.2029 2.03747 12.1384 2.11872 12.0572C2.19997 11.9759 2.26442 11.8795 2.30839 11.7733C2.35237 11.6672 2.375 11.5534 2.375 11.4385C2.375 11.3236 2.35237 11.2098 2.30839 11.1036C2.26442 10.9975 2.19997 10.901 2.11872 10.8198C2.03747 10.7385 1.94101 10.6741 1.83485 10.6301C1.72869 10.5861 1.61491 10.5635 1.5 10.5635C1.38509 10.5635 1.27131 10.5861 1.16515 10.6301C1.05899 10.6741 0.962533 10.7385 0.881282 10.8198C0.80003 10.901 0.735578 10.9975 0.691605 11.1036C0.647633 11.2098 0.625 11.3236 0.625 11.4385V11.4385Z" fill="currentColor"/>
</g>
</svg>
