<svg width="912" height="351" viewBox="0 0 912 351" fill="none" xmlns="http://www.w3.org/2000/svg">
<path d="M398.739 144.219C389.661 141.587 383.192 144.363 378.624 150.345L394.848 166.705L398.739 144.219Z" fill="#4C60A5"/>
<path d="M377.276 279.49L389.668 275.696C389.668 275.696 396.876 259.054 403.683 237.567L384.089 240.082L377.276 279.49Z" fill="#4C60A5"/>
<path d="M370.465 233.972V281.577L375.245 280.113L382.219 239.77L370.465 233.972Z" fill="#4C60A5"/>
<path d="M390.203 193.598L394.455 169.004L377.516 151.922C374.086 157.165 371.858 164.374 370.465 172.401V178.792L390.203 193.598Z" fill="#4C60A5"/>
<path d="M384.425 238.129L404.306 235.575C406.324 229.085 408.287 222.203 409.992 215.228L387.859 218.256L384.425 238.129Z" fill="#4C60A5"/>
<path d="M389.84 195.695L370.465 181.156V207.038L386.341 215.93L389.84 195.695Z" fill="#4C60A5"/>
<path d="M413.529 160.355C411.348 152.965 407.26 147.43 400.558 144.835L396.696 167.161L413.529 160.355Z" fill="#4C60A5"/>
<path d="M392.045 194.068L414.791 189.28C415.916 179.212 415.884 169.838 414.023 162.202L396.317 169.361L392.045 194.068Z" fill="#4C60A5"/>
<path d="M352.954 259.713L368.569 245.955V217.816L347.242 236.18L352.954 259.713Z" fill="#4C60A5"/>
<path d="M388.203 216.294L410.473 213.247C412.228 205.999 413.593 198.662 414.563 191.268L391.7 196.081L388.203 216.294Z" fill="#4C60A5"/>
<path d="M385.999 217.91L370.464 209.213V231.856L382.555 237.82L385.999 217.91Z" fill="#4C60A5"/>
<path d="M339.79 213.54L295.489 210.804C297.341 219.549 299.683 228.182 302.503 236.665L344.987 234.94L339.79 213.54Z" fill="#4C60A5"/>
<path d="M332.783 184.69L291.139 179.055C291.749 189.076 293.069 199.041 295.091 208.875L339.324 211.605L332.783 184.69Z" fill="#4C60A5"/>
<path d="M315.932 115.303C304.127 118.189 296.826 129.173 293.337 144.618L325.176 153.375L315.932 115.303Z" fill="#4C60A5"/>
<path d="M334.065 181.93L363.87 150.889C361.524 143.78 358.086 137.08 353.681 131.028L327.533 155.036L334.065 181.93Z" fill="#4C60A5"/>
<path d="M345.442 236.82L303.128 238.536C305.861 246.557 309.079 254.405 312.765 262.034L351.208 260.559L345.442 236.82Z" fill="#4C60A5"/>
<path d="M313.675 263.897C319.253 275.052 325.708 285.063 332.885 293.089L357.292 285.614L351.664 262.44L313.675 263.897Z" fill="#4C60A5"/>
<path d="M346.737 234.11L368.569 215.312V189.913L341.605 212.976L346.737 234.11Z" fill="#4C60A5"/>
<path d="M341.103 210.91L368.569 187.416V168.884C367.569 163.482 366.228 158.149 364.556 152.916L334.597 184.118L341.103 210.91Z" fill="#4C60A5"/>
<path d="M353.459 261.795L359.107 285.059L368.568 282.162V248.487L353.459 261.795Z" fill="#4C60A5"/>
<path d="M352.505 129.531C346.174 121.772 337.875 116.357 327.011 114.859C323.952 114.411 320.843 114.43 317.789 114.916L327.023 152.93L352.505 129.531Z" fill="#4C60A5"/>
<path d="M325.689 155.483L292.944 146.476C291.076 156.578 290.437 166.869 291.04 177.124L332.3 182.709L325.689 155.483Z" fill="#4C60A5"/>
<path d="M352.777 262.397L351.665 262.44L357.292 285.614L359.108 285.057L353.46 261.794L352.777 262.397Z" fill="#637ABE"/>
<path d="M326.224 153.662L327.023 152.93L317.79 114.916C317.161 115.022 316.539 115.153 315.932 115.303L325.177 153.374L326.224 153.662Z" fill="#637ABE"/>
<path d="M352.954 259.713L347.24 236.18L346.549 236.775L345.443 236.82L351.208 260.559L352.029 260.528L352.954 259.713Z" fill="#637ABE"/>
<path d="M346.737 234.109L341.605 212.977L340.87 213.606L339.792 213.539L344.989 234.938L345.815 234.905L346.737 234.109Z" fill="#637ABE"/>
<path d="M334.065 181.931L327.534 155.037L326.734 155.771L325.69 155.483L332.302 182.709L333.2 182.831L334.065 181.931Z" fill="#637ABE"/>
<path d="M341.103 210.912L334.596 184.12L333.901 184.844L332.783 184.693L339.32 211.612L340.218 211.668L341.103 210.912Z" fill="#637ABE"/>
<path d="M389.84 195.695L386.338 215.929L387.23 216.428L388.199 216.295L391.694 196.08L390.644 196.301L389.84 195.695Z" fill="#637ABE"/>
<path d="M385.998 217.911L382.556 237.821L383.438 238.255L384.426 238.129L387.862 218.257L386.859 218.394L385.998 217.911Z" fill="#637ABE"/>
<path d="M395.702 167.563L396.698 167.161L400.559 144.835C399.993 144.617 399.413 144.412 398.808 144.236L398.74 144.219L394.852 166.705L395.702 167.563Z" fill="#637ABE"/>
<path d="M383.112 240.21L382.219 239.77L375.245 280.113L377.277 279.491L384.09 240.085L383.112 240.21Z" fill="#637ABE"/>
<path d="M394.455 169.001L390.203 193.596L391.101 194.268L392.048 194.068L396.32 169.361L395.242 169.796L394.455 169.001Z" fill="#637ABE"/>
<path d="M325.177 153.378L293.338 144.62C293.2 145.231 293.068 145.855 292.945 146.48L325.69 155.487L325.177 153.378Z" fill="#637ABE"/>
<path d="M327.533 155.037L353.681 131.029C353.296 130.52 352.904 130.021 352.504 129.531L327.022 152.93L327.533 155.037Z" fill="#637ABE"/>
<path d="M327.533 155.037L327.021 152.93L326.224 153.662L325.177 153.374L325.689 155.483L326.734 155.771L327.533 155.037Z" fill="#637ABE"/>
<path d="M332.301 182.709L291.041 177.124C291.069 177.766 291.104 178.409 291.14 179.054L332.783 184.69L332.301 182.709Z" fill="#637ABE"/>
<path d="M334.596 184.117L364.551 152.915C364.329 152.234 364.102 151.561 363.867 150.889L334.062 181.93L334.596 184.117Z" fill="#637ABE"/>
<path d="M334.596 184.118L334.065 181.932L333.201 182.83L332.303 182.708L332.784 184.688L333.902 184.839L334.596 184.118Z" fill="#637ABE"/>
<path d="M341.605 212.978L368.569 189.913V187.416L341.103 210.909L341.605 212.978Z" fill="#637ABE"/>
<path d="M339.321 211.608L295.087 208.879C295.218 209.52 295.357 210.161 295.488 210.804L339.789 213.54L339.321 211.608Z" fill="#637ABE"/>
<path d="M341.605 212.978L341.103 210.912L340.22 211.667L339.322 211.611L339.791 213.541L340.868 213.609L341.605 212.978Z" fill="#637ABE"/>
<path d="M369.097 233.297L369.936 231.598L370.465 231.857V209.215L369.054 208.423L369.98 206.767L370.465 207.036V181.155L368.948 180.017L370.086 178.501L370.465 178.785V172.394C370.231 173.74 370.02 175.107 369.831 176.493C369.467 173.951 369.047 171.408 368.568 168.882V187.415L368.9 187.13L370.133 188.572L368.568 189.911V215.312L368.898 215.027L370.135 216.464L368.568 217.811V245.949L368.89 245.666L370.148 247.089L368.572 248.478V282.151L370.468 281.571V233.966L369.097 233.297Z" fill="#637ABE"/>
<path d="M370.134 188.574L368.9 187.137L368.569 187.421V189.918L370.134 188.574Z" fill="#637ABE"/>
<path d="M396.702 167.161L396.321 169.361L414.027 162.202C413.875 161.576 413.711 160.961 413.534 160.356L396.702 167.161Z" fill="#637ABE"/>
<path d="M394.851 166.705L378.629 150.345C378.246 150.845 377.875 151.369 377.517 151.917L394.456 169.001L394.851 166.705Z" fill="#637ABE"/>
<path d="M394.852 166.705L394.455 169L395.242 169.795L396.32 169.36L396.701 167.16L395.705 167.562L394.852 166.705Z" fill="#637ABE"/>
<path d="M391.699 196.081L414.565 191.266C414.648 190.6 414.722 189.94 414.794 189.277L392.049 194.065L391.699 196.081Z" fill="#637ABE"/>
<path d="M390.204 193.595L370.466 178.785V181.157L389.841 195.695L390.204 193.595Z" fill="#637ABE"/>
<path d="M390.203 193.596L389.843 195.696L390.652 196.302L391.701 196.081L392.049 194.068L391.102 194.268L390.203 193.596Z" fill="#637ABE"/>
<path d="M370.086 178.501L368.949 180.018L370.465 181.157V178.785L370.086 178.501Z" fill="#637ABE"/>
<path d="M386.342 215.929L370.466 207.036V209.211L386.002 217.908L386.342 215.929Z" fill="#637ABE"/>
<path d="M387.863 218.257L409.996 215.229C410.157 214.57 410.316 213.91 410.472 213.248L388.202 216.295L387.863 218.257Z" fill="#637ABE"/>
<path d="M386.342 215.929L385.999 217.911L386.862 218.394L387.864 218.257L388.204 216.296L387.235 216.429L386.342 215.929Z" fill="#637ABE"/>
<path d="M369.98 206.767L369.054 208.423L370.465 209.214V207.039L369.98 206.767Z" fill="#637ABE"/>
<path d="M384.089 240.085L403.683 237.57C403.894 236.912 404.101 236.244 404.312 235.578L384.426 238.129L384.089 240.085Z" fill="#637ABE"/>
<path d="M370.465 231.857V233.972L382.219 239.769L382.556 237.82L370.465 231.857Z" fill="#637ABE"/>
<path d="M382.557 237.82L382.22 239.769L383.113 240.209L384.091 240.083L384.429 238.127L383.442 238.254L382.557 237.82Z" fill="#637ABE"/>
<path d="M369.937 231.597L369.098 233.298L370.465 233.973V231.858L369.937 231.597Z" fill="#637ABE"/>
<path d="M344.986 234.94L302.502 236.665C302.71 237.289 302.913 237.915 303.131 238.537L345.444 236.821L344.986 234.94Z" fill="#637ABE"/>
<path d="M347.24 236.18L368.569 217.818V215.314L346.737 234.111L347.24 236.18Z" fill="#637ABE"/>
<path d="M347.24 236.18L346.737 234.109L345.812 234.905L344.986 234.938L345.443 236.819L346.549 236.774L347.24 236.18Z" fill="#637ABE"/>
<path d="M370.136 216.468L368.898 215.03L368.569 215.314V217.818L370.136 216.468Z" fill="#637ABE"/>
<path d="M353.46 261.796L368.571 248.482V245.955L352.954 259.713L353.46 261.796Z" fill="#637ABE"/>
<path d="M351.208 260.559L312.765 262.031C313.069 262.653 313.369 263.279 313.676 263.894L351.661 262.437L351.208 260.559Z" fill="#637ABE"/>
<path d="M352.026 260.527L351.204 260.559L351.661 262.439L352.773 262.396L353.456 261.795L352.951 259.713L352.026 260.527Z" fill="#637ABE"/>
<path d="M370.148 247.096L368.89 245.674L368.569 245.957V248.484L370.148 247.096Z" fill="#637ABE"/>
<path d="M497.73 329.689C497.73 329.689 484.382 239.429 403.507 225.549C322.633 211.669 332.419 97.391 221.92 101.94C111.422 106.49 134.19 212.808 90.2212 236.687C46.2523 260.566 25.8344 329.688 25.8344 329.688L497.73 329.689Z" fill="#82A7F7"/>
<path d="M483.92 329.688C483.92 329.688 483.92 256.502 570.641 230.726C657.362 204.949 636.714 70.7062 745.118 91.3586C853.521 112.011 800.867 249.353 843.195 279.298C885.522 309.243 876.231 329.687 876.231 329.687L483.92 329.688Z" fill="#82A7F7"/>
<path d="M59.109 330.088L62.3831 330.146L2.95776 117.092C-15.5833 124.537 59.109 330.088 59.109 330.088Z" fill="#A0ABE9"/>
<path d="M80.6395 330.466L137.288 168.471C122.609 167.753 103.624 231.096 94.7812 263.94C91.807 275.797 89.8422 283.162 89.8422 283.162C89.8422 283.162 91.6957 275.412 94.7812 263.94C106.679 216.486 134.75 96.6895 117.963 85.3272L73.7428 330.345L80.6395 330.466Z" fill="#A0ABE9"/>
<path d="M66.7294 330.222L61.6827 40.8113C41.2208 54.6607 59.109 292.102 59.109 292.102C59.109 292.102 24.3123 121.513 4.88577 116.952L64.3605 330.186L66.7294 330.222Z" fill="#A0ABE9"/>
<path d="M94.7803 263.941C91.6921 275.409 89.8413 283.163 89.8413 283.163C89.8413 283.163 91.8061 275.8 94.7803 263.941Z" fill="#A0ABE9"/>
<path d="M71.8229 330.312L116.164 84.605C92.9717 80.5676 71.7627 292.098 71.7627 292.098C71.7627 292.098 87.1275 40.161 63.6277 40.161C63.607 40.161 63.59 40.1709 63.5693 40.1727L68.6296 330.256L71.8229 330.312Z" fill="#A0ABE9"/>
<path d="M88.9317 330.61C88.9317 330.61 159.432 179.842 139.548 169.099C139.413 169.025 139.278 168.981 139.138 168.919L82.6376 330.5L88.9317 330.61Z" fill="#A0ABE9"/>
<path d="M64.3605 330.181L4.88575 116.948C4.28522 116.798 3.65417 116.826 3.0691 117.027C3.02959 117.043 2.99726 117.075 2.95685 117.09L62.3822 330.144L64.3605 330.181Z" fill="#697DD1"/>
<path d="M68.6287 330.256L63.5684 40.1727C62.8904 40.1945 62.2341 40.417 61.6826 40.8122L66.7294 330.223L68.6287 330.256Z" fill="#697DD1"/>
<path d="M73.7446 330.341L117.962 85.3245C117.648 85.1076 117.31 84.9268 116.955 84.7856C116.698 84.6971 116.433 84.6342 116.164 84.5978L71.8229 330.312L73.7446 330.341Z" fill="#697DD1"/>
<path d="M82.6376 330.5L139.141 168.921C138.556 168.657 137.928 168.505 137.287 168.472L80.6386 330.465L82.6376 330.5Z" fill="#697DD1"/>
<path d="M830.166 330.312L874.505 84.605C851.312 80.5739 830.103 292.098 830.103 292.098C830.103 292.098 845.47 40.161 821.97 40.161C821.949 40.161 821.93 40.1709 821.909 40.1727L826.969 330.256L830.166 330.312Z" fill="#A0ABE9"/>
<path d="M838.981 330.466L895.63 168.471C880.95 167.753 861.966 231.096 853.121 263.94C850.147 275.797 848.182 283.162 848.182 283.162C848.182 283.162 850.035 275.412 853.121 263.94C865.023 216.486 893.093 96.6886 876.303 85.3326L832.087 330.345L838.981 330.466Z" fill="#A0ABE9"/>
<path d="M853.121 263.941C850.033 275.409 848.182 283.163 848.182 283.163C848.182 283.163 850.149 275.8 853.121 263.941Z" fill="#A0ABE9"/>
<path d="M847.277 330.61C847.277 330.61 917.778 179.842 897.893 169.099C897.757 169.025 897.618 168.981 897.48 168.919L840.979 330.5L847.277 330.61Z" fill="#A0ABE9"/>
<path d="M817.45 330.088L820.724 330.146L761.299 117.092C742.758 124.537 817.45 330.088 817.45 330.088Z" fill="#A0ABE9"/>
<path d="M825.073 330.222L820.024 40.8113C799.564 54.6607 817.45 292.102 817.45 292.102C817.45 292.102 782.655 121.513 763.227 116.952L822.702 330.186L825.073 330.222Z" fill="#A0ABE9"/>
<path d="M822.701 330.181L763.227 116.948C762.626 116.798 761.995 116.826 761.41 117.027C761.371 117.043 761.338 117.075 761.298 117.09L820.723 330.144L822.701 330.181Z" fill="#697DD1"/>
<path d="M826.972 330.256L821.911 40.1727C821.233 40.1948 820.577 40.4174 820.026 40.8122L825.075 330.223L826.972 330.256Z" fill="#697DD1"/>
<path d="M832.087 330.341L876.303 85.3245C875.989 85.1076 875.651 84.9268 875.296 84.7856C875.039 84.6962 874.774 84.6333 874.505 84.5978L830.166 330.312L832.087 330.341Z" fill="#697DD1"/>
<path d="M840.979 330.5L897.479 168.921C896.896 168.657 896.269 168.505 895.63 168.472L838.981 330.465L840.979 330.5Z" fill="#697DD1"/>
<path d="M129.099 135.435L174.922 328.518L178.577 328.485L189.816 271.829C190.388 248.948 186.606 182.697 129.099 135.435Z" fill="url(#paint0_linear_726_40625)"/>
<path d="M128.33 328.92L148.608 328.746L64.5544 233.927C85.6054 308.816 128.33 328.92 128.33 328.92Z" fill="url(#paint1_linear_726_40625)"/>
<path d="M65.0178 231.601L151.121 328.727L156.47 328.681L129.851 274.16C119.874 258.812 98.6929 234.04 65.0178 231.601Z" fill="url(#paint2_linear_726_40625)"/>
<path d="M130.27 270.683L158.573 328.658L172.978 328.533L127.493 136.875C106.467 189.566 120.848 244.573 130.27 270.683Z" fill="url(#paint3_linear_726_40625)"/>
<path d="M212.211 328.192C212.211 328.192 276.901 303.175 278.044 204.553L192.512 328.363L212.211 328.192Z" fill="url(#paint4_linear_726_40625)"/>
<path d="M191.437 273.406L180.514 328.466L190.194 328.382L277.348 202.223C215.764 227.998 196.896 259.879 191.437 273.406Z" fill="url(#paint5_linear_726_40625)"/>
<path d="M63.8567 231.495C64.0803 232.324 64.3236 233.111 64.5526 233.927L148.606 328.746L151.12 328.723L65.0196 231.597C64.629 231.568 64.2509 231.515 63.8567 231.495Z" fill="#7AA2F7"/>
<path d="M128.33 134.794C128.04 135.486 127.768 136.181 127.491 136.875L172.978 328.533L174.922 328.518L129.099 135.435C128.84 135.222 128.589 135.007 128.33 134.794Z" fill="#7AA2F7"/>
<path d="M277.348 202.228L190.196 328.385L192.514 328.364L278.046 204.554C278.055 203.675 278.073 202.805 278.073 201.913C277.822 202.016 277.594 202.121 277.348 202.228Z" fill="#7AA2F7"/>
<path d="M136.013 284.884C136.418 285.762 136.648 286.223 136.648 286.223C136.648 286.223 136.433 285.743 136.013 284.884Z" fill="#637ABE"/>
<path d="M136.013 284.883C136.434 285.742 136.649 286.222 136.649 286.222C136.649 286.222 136.419 285.761 136.013 284.883C134.173 281.188 132.116 277.605 129.853 274.153L156.471 328.674L158.573 328.655L130.27 270.685C132.808 277.716 134.986 282.656 136.013 284.883Z" fill="#637ABE"/>
<path d="M189.336 279.983C189.336 279.983 189.687 277.019 189.815 271.829L178.577 328.485L180.514 328.468L191.437 273.408C190.532 275.529 189.829 277.731 189.336 279.983Z" fill="#637ABE"/>
<path d="M745.514 287.06L755.601 331.495H760.596L789.923 132.115C738.521 183.917 741.019 254.763 745.514 287.06Z" fill="#4C60A5"/>
<path d="M676.224 195.821L751.303 331.494H753.657L742.53 282.477C733.72 257.035 714.257 215.985 676.224 195.821Z" fill="#4C60A5"/>
<path d="M737.903 331.494H749.135L674.651 196.893C675.414 301.117 737.903 331.494 737.903 331.494Z" fill="#4C60A5"/>
<path d="M796.653 331.493C796.653 331.493 847.783 307.639 871.247 228.206L788.276 331.493H796.653Z" fill="#4C60A5"/>
<path d="M797.825 289.913L782.298 331.494H785.844L870.835 225.691C830.433 238.318 808.206 269.999 797.825 289.913Z" fill="#4C60A5"/>
<path d="M791.516 134.339L762.517 331.494H780.274L795.826 289.846C804.392 259.149 817.415 192.736 791.516 134.339Z" fill="#4C60A5"/>
<path d="M674.634 194.987C674.634 195.632 674.648 196.262 674.651 196.901L749.135 331.499H751.303L676.224 195.825C675.695 195.54 675.165 195.257 674.634 194.987Z" fill="#637ABE"/>
<path d="M790.327 131.698C790.189 131.836 790.058 131.976 789.923 132.114L760.596 331.494H762.515L791.514 134.339C791.124 133.461 790.735 132.576 790.327 131.698Z" fill="#637ABE"/>
<path d="M870.835 225.691L785.844 331.494H788.276L871.251 228.207C871.541 227.219 871.848 226.271 872.129 225.268C871.687 225.395 871.27 225.557 870.835 225.691Z" fill="#637ABE"/>
<path d="M747.68 299.689C748.42 302.671 748.749 304.373 748.749 304.373C748.749 304.373 748.307 302.717 747.68 299.689C746.72 295.827 745.065 289.801 742.53 282.477L753.657 331.494H755.601L745.514 287.059C746.262 292.421 747.062 296.717 747.68 299.689Z" fill="#637ABE"/>
<path d="M747.68 299.689C748.309 302.717 748.75 304.373 748.75 304.373C748.75 304.373 748.42 302.671 747.68 299.689Z" fill="#637ABE"/>
<path d="M791.528 303.741C790.777 305.919 790.327 307.086 790.327 307.086C790.327 307.086 790.718 305.854 791.528 303.741C792.537 300.819 794.088 296.059 795.824 289.846L780.269 331.494H782.295L797.821 289.913C795.466 294.4 793.365 299.017 791.528 303.741Z" fill="#637ABE"/>
<path d="M791.528 303.741C790.72 305.854 790.328 307.086 790.328 307.086C790.328 307.086 790.777 305.919 791.528 303.741Z" fill="#637ABE"/>
<path d="M456.351 275.785C135.681 275.785 0.704651 328.741 0.704651 328.741C0.704651 328.741 135.68 350.999 456.351 350.999C777.023 350.999 911.998 328.741 911.998 328.741C911.998 328.741 777.025 275.785 456.351 275.785Z" fill="#D5E5FC"/>
<path d="M627.786 147.566L616.726 320.85H627.909L656.996 175.73L674.09 320.85H684.568L685.163 147.567L627.786 147.566Z" fill="#36C2E0"/>
<path d="M563.154 96.2206L563.004 97.4619L555.629 158.463H698.052L684.367 98.2353L661.774 24.323L609.378 33.7676L608.295 33.9625L607.217 33.7362L537.942 19.1529L562.764 95.0332L563.154 96.2206Z" fill="#E0EEFB"/>
<path d="M705.109 164.101L689.814 96.7882L665.697 17.8918L608.379 28.2212L529.554 11.6269L557.411 96.7856L549.272 164.101H705.109ZM607.215 33.7362L608.292 33.9616L609.375 33.7658L661.768 24.3221L684.362 98.2344L698.049 158.461H555.625L563 97.4619L563.15 96.2197L562.764 95.0287L537.943 19.1529L607.215 33.7362Z" fill="white"/>
<path d="M661.569 67.6685H652.222C651.107 67.6685 650.038 67.2256 649.25 66.4373C648.462 65.649 648.019 64.5798 648.019 63.4649V43.9936H665.772V63.4649C665.772 64.5798 665.329 65.649 664.541 66.4373C663.753 67.2256 662.684 67.6685 661.569 67.6685V67.6685Z" fill="#F3A9B8"/>
<g style="mix-blend-mode:multiply" opacity="0.7">
<path d="M687.497 89.2101L619.44 93.2664L557.41 96.7856L549.271 164.098H705.11L687.497 89.2101Z" fill="#E0EEFB"/>
</g>
<path d="M603.879 44.4266C602.223 44.4266 600.413 45.9535 598.708 48.058H609.049C607.344 45.9553 605.535 44.4266 603.879 44.4266Z" fill="white"/>
<path d="M616.082 60.1595C616.082 60.1595 612.817 52.7044 609.049 48.058H598.706C594.935 52.7044 591.673 60.1595 591.673 60.1595H616.082Z" fill="#A0ABE9"/>
<path d="M591.024 49.6227C589.914 49.6227 588.702 50.6475 587.56 52.055H594.485C593.343 50.6475 592.131 49.6227 591.024 49.6227Z" fill="white"/>
<path d="M599.197 60.1595C597.928 57.2933 596.348 54.5755 594.485 52.055H587.56C585.698 54.5754 584.118 57.2933 582.851 60.1595H599.197Z" fill="#A0ABE9"/>
<path d="M616.733 49.6227C615.623 49.6227 614.413 50.6475 613.271 52.055H620.195C619.058 50.6475 617.842 49.6227 616.733 49.6227Z" fill="white"/>
<path d="M624.905 60.1595C623.636 57.2937 622.057 54.5759 620.195 52.055H613.271C611.408 54.5755 609.828 57.2933 608.559 60.1595H624.905Z" fill="#A0ABE9"/>
<path d="M619.101 68.5523C614.217 71.1441 610.274 75.2085 607.831 80.1688C578.434 61.8876 554.22 65.5281 553.2 65.7077L554.271 69.0733C554.514 69.0311 578.054 64.8868 606.601 82.726C605.791 84.577 605.099 86.4779 604.53 88.417C597.406 112.804 561.211 115.992 560.843 116.021L560.416 118.859C561.7 118.757 586.612 116.586 600.094 101.793C604.92 105.493 624.632 123.312 612.388 158.464H615.412C627.972 122.408 607.406 103.811 601.909 99.623C604.323 96.5151 606.13 92.9805 607.235 89.2038C609.867 80.194 614.17 74.2604 620.389 71.0601C629.198 66.5296 641.951 67.4385 660.526 73.9397L661.455 71.2784C642.106 64.5122 628.646 63.6472 619.101 68.5523Z" fill="#78DD9A"/>
<path d="M558.398 135.563C558.398 135.563 569.988 123.96 582.391 131.992C594.795 140.025 597.867 134.423 603.389 139.947C610.789 147.347 603.879 158.461 603.879 158.461H555.63L558.398 135.563Z" fill="#82A7F7"/>
<g style="mix-blend-mode:multiply" opacity="0.5">
<path d="M608.381 28.2212L620.198 97.699L627.789 164.097H549.272L557.411 96.7847L529.553 11.6269L608.381 28.2212Z" fill="#E0EEFB"/>
</g>
<path d="M663.017 78.5377L680.75 114.959C681.342 116.174 682.2 117.24 683.26 118.078C684.32 118.917 685.555 119.506 686.873 119.802C688.257 120.123 689.697 120.11 691.076 119.765C692.454 119.42 693.73 118.752 694.799 117.816C695.868 116.88 696.7 115.704 697.225 114.383C697.75 113.063 697.953 111.636 697.819 110.222C695.744 91.7493 679.618 66.7928 679.618 66.7928L663.017 78.5377Z" fill="#F3A9B8"/>
<path d="M626.504 145.828C626.504 145.828 624.906 126.517 599.198 124.296C582.554 122.859 574.379 110.439 587.561 91.0371C600.743 71.635 605.178 76.3263 605.178 58.5167" stroke="#2E3154" stroke-width="0.5" stroke-miterlimit="10" stroke-dasharray="1 1"/>
<path d="M600.862 61.2311C600.862 62.0408 601.102 62.8323 601.552 63.5056C602.002 64.1788 602.641 64.7036 603.389 65.0134C604.137 65.3233 604.96 65.4044 605.754 65.2464C606.548 65.0885 607.277 64.6985 607.85 64.126C608.422 63.5534 608.812 62.8239 608.97 62.0298C609.128 61.2356 609.047 60.4125 608.737 59.6644C608.427 58.9163 607.903 58.2769 607.23 57.827C606.556 57.3772 605.765 57.1371 604.956 57.1371C603.87 57.1371 602.829 57.5684 602.061 58.3362C601.294 59.1039 600.862 60.1453 600.862 61.2311Z" fill="#78DD9A"/>
<path d="M649.904 9.43615C649.904 9.43615 636.721 11.9412 636.721 33.2287C636.721 54.5161 648.352 53.8918 656.622 48.5709C664.892 43.2499 668.767 30.0984 663.082 17.8883C657.398 5.67807 649.904 9.43615 649.904 9.43615Z" fill="#F3A9B8"/>
<path d="M655.643 55.8293C655.643 55.8293 635.642 54.5233 632.08 76.8886C629.173 95.1374 635.348 102.443 634.825 117.866C634.576 125.232 627.786 138.735 627.786 147.564H685.161C685.161 147.564 683.55 138.355 678.883 117.866C677.669 112.536 680.45 106.171 682.582 99.0868C692.733 65.3718 671.477 55.8293 655.643 55.8293Z" fill="#A0ABE9"/>
<path d="M649.272 30.3077C649.272 30.3077 635.622 31.5652 634.133 15.4649C632.643 -0.635393 653.651 -5.56474 666.627 7.41161C670.212 -4.81564 688.612 -1.53899 685.226 15.1649C692.874 26.202 684.716 29.185 680.446 29.185C680.446 46.4826 669.318 52.7457 659.776 49.7628C650.234 46.7799 649.272 30.3077 649.272 30.3077Z" fill="#4C60A5"/>
<path d="M632.86 71.9368L612.981 105.463L569.432 99.1137L568.254 105.548C568.254 105.548 593.412 121.492 617.547 118.878C631.274 117.39 643.845 92.9646 649.397 80.5137C650.286 78.529 650.455 76.2957 649.873 74.1999C649.29 72.1042 647.995 70.2778 646.209 69.0365C645.156 68.3044 643.965 67.7972 642.708 67.5463C641.451 67.2955 640.155 67.3065 638.903 67.5787C637.65 67.8508 636.467 68.3783 635.428 69.1281C634.388 69.8779 633.514 70.834 632.86 71.9368Z" fill="#F3A9B8"/>
<path d="M649.272 30.3068C649.272 30.3068 653.972 29.8083 653.972 34.735C653.972 39.6616 647.918 40.161 647.918 40.161L649.272 30.3068Z" fill="#F3A9B8"/>
<path d="M628.924 139.947C628.924 139.947 618.134 161.594 618.134 196.971C633.159 204.171 653.972 202.293 653.972 202.293L656.897 183.508L658.513 202.513C658.513 202.513 677.292 206.991 693.57 197.597C694.6 161.594 683.682 139.947 683.682 139.947C683.682 139.947 663.195 147.107 628.924 139.947Z" fill="#2E3154"/>
<path d="M614.727 322.828V298.721H636.181L631.908 328.742H600.081C600.081 328.742 603.288 322.828 614.727 322.828Z" fill="#2E3154"/>
<path d="M690.467 322.828V298.721H669.011L673.223 328.741H705.109C705.109 328.741 701.906 322.828 690.467 322.828Z" fill="#2E3154"/>
<path d="M659.697 63.4128C659.697 63.4128 642.575 93.4676 642.575 126.674C642.575 159.881 711.632 159.396 711.632 126.674C711.632 93.9526 698.507 63.4128 698.507 63.4128H659.697Z" fill="#5A75C2"/>
<path d="M653.696 76.5886H698.874C701.986 76.5791 704.968 75.3382 707.168 73.1369C709.369 70.9356 710.609 67.9529 710.618 64.8401C710.61 61.7268 709.37 58.7433 707.169 56.5414C704.969 54.3396 701.987 53.0983 698.874 53.0889H654.256C651.6 53.0976 649.055 54.157 647.177 56.0359C645.298 57.9148 644.24 60.4605 644.231 63.1173V67.1188C644.238 69.6278 645.237 72.0322 647.011 73.8066C648.784 75.5811 651.188 76.5812 653.696 76.5886Z" fill="#4C60A5"/>
<path d="M644.352 107.406C644.352 107.406 629.165 139.333 651.423 139.333C673.68 139.333 663.693 107.406 663.693 107.406H644.352Z" fill="#4C60A5"/>
<path d="M677.263 107.406C677.263 107.406 663.566 139.333 687.981 139.333C712.396 139.333 716.862 138.221 716.862 123.687C716.862 109.153 710.608 107.406 710.608 107.406H677.263Z" fill="#4C60A5"/>
<path d="M643.587 64.8401C643.587 71.1993 647.482 76.3541 652.287 76.3541C657.091 76.3541 660.988 71.1993 660.988 64.8401C660.988 58.4808 657.093 53.326 652.287 53.326C647.48 53.326 643.587 58.4808 643.587 64.8401Z" fill="#354B87"/>
<path d="M665.926 53.0889C665.926 53.0889 676.578 65.8245 665.926 76.5867H671.347C671.347 76.5867 682.594 64.7413 671.062 53.0889" fill="#5A75C2"/>
<path d="M691.718 53.0889C691.718 53.0889 702.37 65.8245 691.718 76.5867H697.141C697.141 76.5867 708.388 64.7413 696.854 53.0889" fill="#5A75C2"/>
<path d="M571.367 100.008C571.367 100.008 565.073 92.0556 563.588 92.5792C562.103 93.1029 565.073 97.0379 565.073 97.0379C565.073 97.0379 556.335 95.7266 555.112 95.7266C553.889 95.7266 554.761 98.087 556.858 98.6098C554.981 100.49 557.297 104.992 563.675 105.515C570.054 106.039 571.89 104.992 571.89 104.992L571.367 100.008Z" fill="#F3A9B8"/>
<path d="M666.801 9.22689C666.801 9.22689 662.094 16.8023 671.093 20.961C668.88 25.7134 674.003 30.8413 679.572 28.9083" stroke="#2E3154" stroke-width="0.5" stroke-miterlimit="10"/>
<defs>
<linearGradient id="paint0_linear_726_40625" x1="159.481" y1="135.435" x2="159.481" y2="328.518" gradientUnits="userSpaceOnUse">
<stop stop-color="#7DDF95"/>
<stop offset="1" stop-color="#36C2E0"/>
</linearGradient>
<linearGradient id="paint1_linear_726_40625" x1="106.581" y1="233.927" x2="106.581" y2="328.92" gradientUnits="userSpaceOnUse">
<stop stop-color="#7DDF95"/>
<stop offset="1" stop-color="#36C2E0"/>
</linearGradient>
<linearGradient id="paint2_linear_726_40625" x1="110.744" y1="231.601" x2="110.744" y2="328.727" gradientUnits="userSpaceOnUse">
<stop stop-color="#7DDF95"/>
<stop offset="1" stop-color="#36C2E0"/>
</linearGradient>
<linearGradient id="paint3_linear_726_40625" x1="144.812" y1="136.875" x2="144.812" y2="328.658" gradientUnits="userSpaceOnUse">
<stop stop-color="#7DDF95"/>
<stop offset="1" stop-color="#36C2E0"/>
</linearGradient>
<linearGradient id="paint4_linear_726_40625" x1="235.278" y1="204.553" x2="235.278" y2="328.363" gradientUnits="userSpaceOnUse">
<stop stop-color="#7DDF95"/>
<stop offset="1" stop-color="#36C2E0"/>
</linearGradient>
<linearGradient id="paint5_linear_726_40625" x1="228.931" y1="202.223" x2="228.931" y2="328.466" gradientUnits="userSpaceOnUse">
<stop stop-color="#7DDF95"/>
<stop offset="1" stop-color="#36C2E0"/>
</linearGradient>
</defs>
</svg>
