<svg width="193" height="36" viewBox="0 0 193 36" fill="none" xmlns="http://www.w3.org/2000/svg">
<path d="M116.841 5.5284C116.841 6.4319 116.861 7.31466 116.902 8.17673C116.927 8.72937 116.965 9.27844 117.008 9.82559C116.236 9.27447 115.382 8.84983 114.478 8.56752C113.163 8.15584 111.794 7.94808 110.417 7.95139C108.96 7.90218 107.514 8.22709 106.216 8.89543C105.008 9.62016 104.109 10.7682 103.691 12.1191C103.139 13.6383 102.862 15.7529 102.862 18.463C102.862 21.94 103.408 24.609 104.498 26.47C105.589 28.331 107.414 29.2616 109.972 29.262C111.638 29.3177 113.286 28.9131 114.739 28.0921C115.828 27.447 116.791 26.6072 117.581 25.6139L118.092 28.7698H122.819V0.0256958H116.84L116.841 5.5284ZM114.175 24.0684C113.583 24.2295 112.97 24.3056 112.357 24.2945C111.686 24.3229 111.02 24.159 110.438 23.8218C109.871 23.4055 109.482 22.7897 109.347 22.0972C109.08 20.8915 108.965 19.6568 109.004 18.4222C108.961 17.1119 109.083 15.8015 109.367 14.5221C109.501 13.8078 109.907 13.1742 110.498 12.7561C111.12 12.4286 111.818 12.2729 112.52 12.3049C113.38 12.2903 114.237 12.4007 115.065 12.6329C115.606 12.7961 116.198 12.9739 116.842 13.1666V22.6276C116.436 22.9085 116.056 23.1583 115.712 23.3708C115.233 23.6708 114.716 23.9053 114.175 24.0684Z" fill="#0F001B"/>
<path d="M131.417 7.0263e-05L128.832 0.0163571C127.646 0.0239379 127.058 0.637331 127.066 1.85645L127.079 4.01011C127.087 5.22974 127.683 5.83559 128.868 5.82763L131.453 5.81134C132.638 5.80376 133.227 5.19041 133.22 3.97129L133.207 1.81758C133.199 0.598339 132.603 -0.00751054 131.417 7.0263e-05Z" fill="#0F001B"/>
<path d="M133.127 8.57159L127.188 8.60949L127.315 28.9205L133.254 28.8826L133.127 8.57159Z" fill="#0F001B"/>
<path d="M145.94 2.92389L139.921 2.96178L139.966 8.5498L136.481 8.75487L136.504 12.4937L139.998 12.4716L140.088 23.5257C140.099 25.2877 140.613 26.6527 141.629 27.6206C142.646 28.5886 144.056 29.0674 145.861 29.057C146.345 29.054 146.937 29.0165 147.637 28.9445C148.337 28.8724 149.037 28.7731 149.736 28.6465C150.338 28.5446 150.931 28.3982 151.511 28.2085L150.838 24.1487L148.252 24.1649C147.656 24.2247 147.059 24.0622 146.573 23.7082C146.385 23.4978 146.242 23.2504 146.153 22.9817C146.064 22.713 146.032 22.4285 146.059 22.1465L145.998 12.4342L151.574 12.3988L151.549 8.45578L145.974 8.49104L145.94 2.92389Z" fill="#0F001B"/>
<path d="M170.257 8.84631C168.745 8.16404 166.736 7.83088 164.231 7.8468C161.753 7.86259 159.756 8.22106 158.239 8.92229C156.759 9.58365 155.587 10.7912 154.966 12.2958C154.303 13.8445 153.979 15.9193 153.996 18.5202C154.012 21.0658 154.361 23.1092 155.044 24.6504C155.68 26.1446 156.868 27.3319 158.358 27.9621C159.883 28.6296 161.885 28.9556 164.363 28.9402C166.868 28.9242 168.873 28.5729 170.376 27.886C171.846 27.2341 173.006 26.0312 173.608 24.5329C174.259 22.9841 174.576 20.9365 174.559 18.39C174.543 15.789 174.2 13.7184 173.53 12.1783C172.907 10.6851 171.734 9.49154 170.257 8.84631ZM167.998 22.212C167.926 22.5896 167.778 22.9486 167.565 23.2677C167.352 23.5866 167.077 23.8591 166.757 24.0689C165.994 24.4089 165.169 24.5871 164.335 24.5926C163.501 24.5979 162.674 24.4302 161.908 24.0998C161.585 23.8942 161.306 23.6253 161.089 23.309C160.872 22.9926 160.721 22.6354 160.645 22.2587C160.357 21.0211 160.227 19.752 160.256 18.4815C160.21 17.1986 160.324 15.9148 160.597 14.6606C160.67 14.2813 160.818 13.9205 161.031 13.5993C161.244 13.2773 161.518 13.0008 161.837 12.7857C162.596 12.4326 163.421 12.2472 164.257 12.2418C165.094 12.2365 165.922 12.4115 166.686 12.755C167.007 12.9662 167.285 13.2392 167.501 13.5584C167.718 13.8777 167.87 14.2367 167.95 14.6149C168.237 15.8657 168.367 17.1478 168.337 18.4311C168.382 19.701 168.268 20.9717 167.998 22.213L167.998 22.212Z" fill="#0F001B"/>
<path d="M191.95 7.67134C190.506 7.70339 189.087 8.05485 187.794 8.70079C186.356 9.40915 185.026 10.3208 183.844 11.4079L183.267 8.26984L178.58 8.29941L178.709 28.9465L184.689 28.9086L184.601 14.903C185.891 14.4438 186.98 14.09 187.867 13.8417C188.826 13.5663 189.817 13.4197 190.814 13.4059L192.47 13.3954L193 7.66547L191.95 7.67134Z" fill="#0F001B"/>
<path d="M81.3339 27.514C79.3996 24.3874 77.4654 21.2609 75.5312 18.1343C75.3421 17.8067 75.1298 17.4931 74.8961 17.196C74.5627 16.799 74.1877 16.4393 73.7776 16.1231C73.8174 16.0611 73.87 16.0086 73.9319 15.969C74.4003 15.571 74.808 15.1059 75.142 14.5886C77.2889 11.2416 79.4363 7.89484 81.5841 4.54817C81.6204 4.49131 81.6773 4.44242 81.6741 4.36832C81.6374 4.33041 81.5965 4.34329 81.5598 4.34291C79.5292 4.34064 77.4987 4.33741 75.4683 4.33324C75.4112 4.33038 75.3545 4.34471 75.3055 4.37438C75.2563 4.40397 75.2169 4.44767 75.1925 4.49986C74.1281 6.21123 73.0619 7.9213 71.9938 9.63014C71.1479 10.9865 70.2995 12.3403 69.4608 13.7005C69.4239 13.7765 69.3641 13.8389 69.2899 13.8788C69.2159 13.9186 69.1313 13.9338 69.0482 13.9224C68.6887 13.9034 68.3274 13.9182 67.9666 13.9158C67.8994 13.9158 67.8264 13.9391 67.7629 13.8888C67.769 13.818 67.7714 13.7463 67.7818 13.6764C67.9033 12.8154 67.9591 11.9463 67.9489 11.0768V4.45873C67.9489 4.38197 67.9195 4.33913 67.8381 4.34254H67.7202L62.3561 4.33778C62.0467 4.33778 62.0855 4.30124 62.0855 4.6185V28.5027C62.0855 28.5587 62.088 28.614 62.0855 28.6693C62.0818 28.7375 62.1087 28.772 62.1797 28.77H67.6836C67.9885 28.77 67.9485 28.7954 67.9485 28.5062V20.3947C67.9485 20.1898 67.9378 19.9842 67.9312 19.7786C67.903 19.2596 67.8426 18.7429 67.7505 18.2315H67.9687C68.3534 18.2315 68.7375 18.2416 69.1213 18.227C69.1855 18.2202 69.2502 18.2345 69.3057 18.2677C69.3613 18.3011 69.4047 18.3515 69.4293 18.4117C71.4012 21.7915 73.3748 25.1702 75.3499 28.5479C75.3823 28.6208 75.4363 28.6819 75.5046 28.7228C75.5727 28.7636 75.6517 28.7822 75.7307 28.776C77.7686 28.7673 79.8073 28.7705 81.8456 28.7701C81.9209 28.7701 81.995 28.7639 82.0969 28.7594C82.065 28.7025 82.0477 28.6707 82.0283 28.639L81.3339 27.514Z" fill="#0F001B"/>
<path d="M99.8569 24.2852C99.8394 23.9905 99.8453 23.9905 99.557 23.9905H90.6665C90.4705 23.9916 90.2748 23.9778 90.0809 23.949C89.8685 23.9312 89.6668 23.8472 89.504 23.7087C89.3413 23.57 89.2257 23.3837 89.1732 23.1758C89.1203 22.9942 89.0926 22.8062 89.0907 22.6171C89.0907 21.2059 89.0895 19.7946 89.0871 18.3833C89.0871 18.2658 89.1109 18.2041 89.2401 18.2211C89.2951 18.2247 89.3502 18.2247 89.4051 18.2211H98.2957C98.3505 18.2211 98.4063 18.2166 98.4613 18.2211C98.569 18.2319 98.5984 18.1766 98.5896 18.0803C98.5858 18.0329 98.5896 17.9855 98.5896 17.9389V14.1315C98.5896 13.803 98.6367 13.8409 98.307 13.8409H89.3222C89.0604 13.8409 89.0922 13.8546 89.0922 13.6167V10.5186C89.0923 10.3453 89.1079 10.1724 89.1387 10.0018C89.167 9.77257 89.2694 9.55898 89.4302 9.39405C89.5909 9.22902 89.8011 9.12172 90.0284 9.08872C90.2053 9.05655 90.385 9.04264 90.5647 9.04721H99.5498C99.6047 9.04721 99.6595 9.04305 99.7145 9.04721C99.8036 9.05461 99.8449 9.0148 99.8477 8.92724C99.8477 8.87986 99.8566 8.83251 99.8596 8.78588C99.8958 8.17272 99.9317 7.55915 99.9674 6.94524C100.009 6.26865 100.057 5.59302 100.096 4.91738C100.113 4.59993 100.106 4.59332 99.7919 4.56717C98.9882 4.50083 98.1824 4.42728 97.3804 4.38047C96.5784 4.33366 95.7672 4.30277 94.9601 4.28571C92.8047 4.2401 90.6489 4.22056 88.4927 4.22713C87.9053 4.22431 87.3205 4.30464 86.7553 4.46574C86.1134 4.63536 85.5142 4.93887 84.9964 5.35652C84.4787 5.77434 84.0541 6.29696 83.7502 6.8905C83.3842 7.61749 83.2001 8.42331 83.2138 9.23808C83.2106 11.6582 83.2106 14.0781 83.2138 16.4976V23.5925C83.2116 23.8604 83.2254 24.1281 83.255 24.3944C83.3275 25.2031 83.607 25.9793 84.0661 26.6472C84.525 27.3152 85.1481 27.8524 85.8747 28.2062C86.7127 28.6238 87.6406 28.8256 88.5752 28.7937C91.3652 28.7747 94.1565 28.8015 96.9441 28.6385C97.9537 28.579 98.9619 28.5125 99.9688 28.4391C100.074 28.4313 100.122 28.4101 100.112 28.2885C100.083 27.9037 100.067 27.5178 100.043 27.1324C99.9765 26.188 99.9138 25.237 99.8569 24.2852Z" fill="#0F001B"/>
<path d="M59.445 27.4707C59.2893 26.1441 59.1343 24.8174 58.9799 23.4908C58.9676 23.3803 58.9305 23.3391 58.8199 23.353C58.5485 23.3852 58.2764 23.4176 58.0038 23.4425C57.0522 23.5277 56.0987 23.5965 55.1443 23.6248C53.9065 23.6604 52.6687 23.6956 51.4309 23.6803C51.0008 23.6781 50.5721 23.6308 50.1517 23.5391C49.5001 23.4267 48.9106 23.0816 48.4914 22.5674C48.2173 22.1991 48.01 21.7849 47.8791 21.3441C47.6123 20.4106 47.4563 19.4487 47.4141 18.4783C47.3472 17.5552 47.3504 16.6304 47.3593 15.7053C47.3603 14.6479 47.4408 13.592 47.6002 12.5468C47.6844 11.9621 47.8417 11.3904 48.0684 10.8454C48.2289 10.4373 48.4861 10.0747 48.8175 9.78924C49.1509 9.50214 49.5483 9.30021 49.9759 9.2006C50.4544 9.08216 50.9455 9.02299 51.4383 9.0245C53.7488 9.0192 56.0595 9.03702 58.3702 9.20759C58.4494 9.21328 58.4899 9.18866 58.5002 9.1138C58.5055 9.0759 58.508 9.03628 58.5121 8.9978C58.5856 8.31793 58.6589 7.63848 58.7322 6.95949C58.8026 6.30451 58.8678 5.64614 58.943 4.9904C58.9573 4.86437 58.9241 4.81981 58.7985 4.78191C57.3419 4.35831 55.8433 4.09775 54.3298 4.0049C53.4632 3.9435 52.5915 3.93536 51.7218 3.93138C50.8368 3.91904 49.952 3.96967 49.0741 4.08296C48.2926 4.18488 47.5221 4.35917 46.7724 4.60358C45.6435 4.95567 44.6207 5.58785 43.7984 6.44192C43.1156 7.18007 42.5848 8.04685 42.2365 8.9923C41.766 10.3012 41.4676 11.6664 41.3492 13.0531C41.238 14.1103 41.1877 15.173 41.1985 16.2359C41.1746 17.8318 41.2868 19.4268 41.5338 21.0033C41.6775 21.9323 41.9155 22.8439 42.2441 23.7241C42.6054 24.7547 43.2021 25.6856 43.9864 26.4418C44.7752 27.2025 45.7286 27.7688 46.7717 28.0963C48.0383 28.5053 49.3576 28.726 50.6877 28.7513C52.6294 28.8298 54.5742 28.7264 56.4968 28.4425C57.4506 28.2826 58.3932 28.061 59.3187 27.7792C59.4298 27.7461 59.4937 27.6915 59.4565 27.5655C59.4501 27.5342 59.4462 27.5025 59.445 27.4707Z" fill="#0F001B"/>
<path d="M22.5986 21.0086C22.6204 21.024 22.6362 21.0465 22.6432 21.0723C22.6361 21.0465 22.6203 21.024 22.5986 21.0086Z" fill="#141A25"/>
<path d="M22.1583 24.7826C21.3598 24.8824 20.5902 25.1465 19.8975 25.5584C19.0521 26.0483 18.3423 26.7435 17.8328 27.5806C17.6729 27.8486 16.7778 29.5776 16.7778 29.5776L13.6982 35.2395L13.7308 35.2624C13.874 35.3559 14.0262 35.4346 14.1851 35.4972C14.6518 35.6659 15.1429 35.7566 15.6388 35.7658C17.5011 35.851 19.3641 35.7406 21.2268 35.7543C22.2943 35.7884 23.3628 35.7622 24.4274 35.676C24.9399 35.6498 25.4391 35.5025 25.8844 35.246C26.3414 34.9822 26.734 34.6192 27.0337 34.1833C27.2383 33.879 27.4512 33.5793 27.6366 33.2638C28.5224 31.7513 29.4036 30.2371 30.2802 28.7213C30.5562 28.2458 30.8265 27.7671 31.098 27.2903C31.2342 27.0526 31.3755 26.8164 31.5125 26.5771C31.8594 25.9964 32.0527 25.3361 32.0739 24.6589L27.2726 24.7444C27.2726 24.7444 22.6374 24.7255 22.1583 24.7826ZM26.2317 26.121C26.2023 26.1518 26.1844 26.192 26.1812 26.2346C26.1845 26.192 26.2022 26.152 26.2313 26.121H26.2317Z" fill="#B0EB1D"/>
<path d="M27.7378 23.2103C27.7432 23.1451 27.7706 23.0838 27.8154 23.0365C27.7707 23.0839 27.7433 23.1452 27.7378 23.2103Z" fill="#7F00FD"/>
<path d="M10.4889 33.5001L13.2912 28.3484C13.2912 28.3484 13.6099 27.7323 13.9677 27.0477C13.5103 26.7991 13.0634 26.5298 12.6154 26.2654C11.3396 25.5136 10.014 24.8473 8.76658 24.0462C8.42781 23.8416 8.12457 23.5827 7.86886 23.2797C7.47021 22.7819 7.36642 22.1884 7.33533 21.5763C7.25828 20.0601 7.33119 18.544 7.305 17.0278C7.29256 16.3059 7.30499 15.5838 7.31404 14.8616C7.32911 13.6676 7.87923 12.8129 8.8881 12.2191C9.91136 11.6168 10.9339 11.0135 11.9556 10.4092C12.7667 9.93213 13.5792 9.45736 14.3931 8.98495C14.5798 8.8773 14.7801 8.79316 14.9751 8.70067C15.9772 8.22422 16.8873 8.52481 17.7741 9.01586C17.8306 9.04713 17.8836 9.08354 17.9384 9.11765C18.3901 9.33733 18.8303 9.58021 19.2572 9.84538C20.4275 10.5045 21.5956 11.1679 22.7614 11.8353C23.1126 12.0406 23.451 12.2674 23.7746 12.5142C24.4892 13.0477 24.7106 13.8112 24.7564 14.6557C24.8129 15.7089 24.7799 16.7636 24.7752 17.8177C24.7714 18.8525 24.7905 19.8865 24.779 20.9217C26.9561 20.912 29.4136 20.9217 29.4136 20.9217L32.077 20.8745C32.0668 19.7927 32.0521 18.7109 32.0519 17.6289C32.0519 15.6883 32.106 13.7467 31.9939 11.8069C31.904 10.2506 31.4933 8.843 30.1792 7.85579C29.5842 7.39919 28.9623 6.97937 28.3167 6.59855C26.1741 5.36313 24.0284 4.13305 21.8795 2.90837C21.0756 2.45163 20.3056 1.93251 19.4558 1.55897C19.3552 1.49586 19.2572 1.42864 19.1543 1.37083C17.5251 0.461138 15.8545 -0.099465 14.0203 0.770811C13.6633 0.940432 13.2966 1.09292 12.9551 1.29116C11.4645 2.15183 9.97813 3.02023 8.49606 3.89632C6.62388 4.99768 4.75327 6.10136 2.88423 7.20727C1.03792 8.29398 0.0358163 9.86277 0.0165996 12.0622C0.00491891 13.3918 -0.0131736 14.7214 0.0148978 16.0507C0.0736782 18.8427 -0.0495322 21.6367 0.102129 24.4274C0.163358 25.5549 0.357971 26.6481 1.09235 27.5676C1.5628 28.1272 2.12058 28.606 2.74385 28.9854C5.0361 30.4694 7.47096 31.7054 9.81559 33.098C10.0403 33.2319 10.2647 33.3659 10.4889 33.5001Z" fill="#7F00FD"/>
</svg>
