<svg viewBox="0 0 20 20" xmlns="http://www.w3.org/2000/svg"><g><path d="m11.024 12.655 2.837-3.189a.75.75 0 0 1 1.15.965l-4.18 4.788a.747.747 0 0 1-.285.21.75.75 0 0 1-.945-.17L5.42 10.467a.75.75 0 1 1 1.15-.964l2.954 3.331V2.707a.75.75 0 1 1 1.501 0v9.948z"/><path d="M17.3 15.54a.75.75 0 0 1 .743.648l.007.102v.96a1.75 1.75 0 0 1-1.606 1.745l-.144.006h-12a1.75 1.75 0 0 1-1.744-1.607l-.006-.143v-.961a.75.75 0 0 1 1.493-.102l.007.102v.96a.25.25 0 0 0 .193.244l.057.007h12a.25.25 0 0 0 .243-.193l.007-.057v-.961a.75.75 0 0 1 .75-.75z"/></g></svg>