<?xml version="1.0" encoding="UTF-8" standalone="no"?><!DOCTYPE svg PUBLIC "-//W3C//DTD SVG 1.1//EN" "http://www.w3.org/Graphics/SVG/1.1/DTD/svg11.dtd"><svg width="100%" height="100%" viewBox="0 0 30 30" version="1.1" xmlns="http://www.w3.org/2000/svg" xmlns:xlink="http://www.w3.org/1999/xlink" xml:space="preserve" style="fill-rule:evenodd;clip-rule:evenodd;stroke-linejoin:round;stroke-miterlimit:1.41421;"><g id="info"><circle cx="15" cy="15" r="15" style="fill:#3f51b5;"/><path d="M15.127,12.503l0.127,0.009l0.126,0.016l0.123,0.023l0.121,0.027l0.12,0.034l0.115,0.04l0.114,0.044l0.112,0.051l0.109,0.056l0.104,0.06l0.101,0.064l0.098,0.07l0.094,0.074l0.09,0.078l0.087,0.083l0.082,0.086l0.079,0.091l0.074,0.094l0.069,0.097l0.066,0.103l0.06,0.104l0.055,0.108l0.05,0.111l0.045,0.115l0.04,0.116l0.034,0.119l0.028,0.121l0.022,0.124l0.016,0.126l0.009,0.126l0.003,0.108l0,8.038l-0.003,0.108l-0.009,0.126l-0.016,0.126l-0.022,0.124l-0.028,0.121l-0.034,0.119l-0.04,0.116l-0.045,0.115l-0.05,0.111l-0.055,0.108l-0.06,0.104l-0.066,0.103l-0.069,0.097l-0.074,0.094l-0.079,0.091l-0.082,0.086l-0.087,0.083l-0.09,0.078l-0.094,0.074l-0.098,0.07l-0.101,0.064l-0.104,0.06l-0.109,0.056l-0.112,0.051l-0.114,0.044l-0.115,0.04l-0.12,0.034l-0.121,0.027l-0.123,0.023l-0.126,0.016l-0.127,0.009l-0.127,0.003l-0.127,-0.003l-0.127,-0.009l-0.126,-0.016l-0.123,-0.023l-0.121,-0.027l-0.12,-0.034l-0.115,-0.04l-0.114,-0.044l-0.112,-0.051l-0.109,-0.056l-0.104,-0.06l-0.101,-0.064l-0.098,-0.07l-0.094,-0.074l-0.09,-0.078l-0.087,-0.083l-0.082,-0.086l-0.079,-0.091l-0.074,-0.094l-0.069,-0.097l-0.066,-0.103l-0.06,-0.104l-0.055,-0.108l-0.05,-0.111l-0.045,-0.115l-0.04,-0.116l-0.034,-0.119l-0.028,-0.121l-0.022,-0.124l-0.016,-0.126l-0.009,-0.126l-0.003,-0.108l0,-8.038l0.003,-0.108l0.009,-0.126l0.016,-0.126l0.022,-0.124l0.028,-0.121l0.034,-0.119l0.04,-0.116l0.045,-0.115l0.05,-0.111l0.055,-0.108l0.06,-0.104l0.066,-0.103l0.069,-0.097l0.074,-0.094l0.079,-0.091l0.082,-0.086l0.087,-0.083l0.09,-0.078l0.094,-0.074l0.098,-0.07l0.101,-0.064l0.104,-0.06l0.109,-0.056l0.112,-0.051l0.114,-0.044l0.115,-0.04l0.12,-0.034l0.121,-0.027l0.123,-0.023l0.126,-0.016l0.127,-0.009l0.127,-0.003l0.127,0.003Zm-0.178,1.498l-0.051,0.004l-0.05,0.007l-0.049,0.008l-0.049,0.012l-0.047,0.013l-0.047,0.016l-0.045,0.018l-0.044,0.02l-0.043,0.022l-0.042,0.024l-0.041,0.026l-0.039,0.028l-0.038,0.029l-0.036,0.032l-0.035,0.033l-0.033,0.035l-0.032,0.036l-0.029,0.038l-0.028,0.039l-0.026,0.041l-0.024,0.042l-0.022,0.043l-0.02,0.044l-0.018,0.045l-0.016,0.047l-0.013,0.047l-0.012,0.049l-0.008,0.049l-0.007,0.05l-0.004,0.051l-0.001,0.051l0,8l0.001,0.051l0.004,0.051l0.007,0.05l0.008,0.049l0.012,0.049l0.013,0.047l0.016,0.047l0.018,0.045l0.02,0.044l0.022,0.043l0.024,0.042l0.026,0.041l0.028,0.039l0.029,0.038l0.032,0.036l0.033,0.035l0.035,0.033l0.036,0.032l0.038,0.029l0.039,0.028l0.041,0.026l0.042,0.024l0.043,0.022l0.044,0.02l0.045,0.018l0.047,0.016l0.047,0.013l0.049,0.012l0.049,0.008l0.05,0.007l0.051,0.004l0.051,0.001l0.051,-0.001l0.051,-0.004l0.05,-0.007l0.049,-0.008l0.049,-0.012l0.047,-0.013l0.047,-0.016l0.045,-0.018l0.044,-0.02l0.043,-0.022l0.042,-0.024l0.041,-0.026l0.039,-0.028l0.038,-0.029l0.036,-0.032l0.035,-0.033l0.033,-0.035l0.032,-0.036l0.029,-0.038l0.028,-0.039l0.026,-0.041l0.024,-0.042l0.022,-0.043l0.02,-0.044l0.018,-0.045l0.016,-0.047l0.013,-0.047l0.012,-0.049l0.008,-0.049l0.007,-0.05l0.004,-0.051l0.001,-0.051l0,-8l-0.001,-0.051l-0.004,-0.051l-0.007,-0.05l-0.008,-0.049l-0.012,-0.049l-0.013,-0.047l-0.016,-0.047l-0.018,-0.045l-0.02,-0.044l-0.022,-0.043l-0.024,-0.042l-0.026,-0.041l-0.028,-0.039l-0.029,-0.038l-0.032,-0.036l-0.033,-0.035l-0.035,-0.033l-0.036,-0.032l-0.038,-0.029l-0.039,-0.028l-0.041,-0.026l-0.042,-0.024l-0.043,-0.022l-0.044,-0.02l-0.045,-0.018l-0.047,-0.016l-0.047,-0.013l-0.049,-0.012l-0.049,-0.008l-0.05,-0.007l-0.051,-0.004l-0.051,-0.001l-0.051,0.001Z" style="fill:#fff;"/><path d="M15.128,5.503l0.126,0.009l0.124,0.016l0.125,0.022l0.122,0.029l0.118,0.033l0.116,0.04l0.115,0.045l0.112,0.051l0.107,0.055l0.105,0.06l0.101,0.065l0.098,0.069l0.094,0.074l0.09,0.078l0.087,0.083l0.083,0.087l0.077,0.089l0.075,0.095l0.069,0.098l0.065,0.1l0.061,0.106l0.055,0.108l0.05,0.111l0.045,0.114l0.04,0.117l0.034,0.119l0.028,0.122l0.022,0.122l0.016,0.126l0.009,0.127l0.003,0.127l-0.003,0.127l-0.009,0.127l-0.016,0.126l-0.022,0.122l-0.028,0.122l-0.034,0.119l-0.04,0.117l-0.045,0.114l-0.05,0.111l-0.055,0.108l-0.061,0.106l-0.065,0.1l-0.069,0.098l-0.075,0.095l-0.077,0.089l-0.083,0.087l-0.087,0.083l-0.09,0.078l-0.094,0.074l-0.098,0.069l-0.101,0.065l-0.105,0.06l-0.107,0.055l-0.112,0.051l-0.115,0.045l-0.116,0.04l-0.118,0.033l-0.122,0.029l-0.125,0.022l-0.124,0.016l-0.126,0.009l-0.128,0.003l-0.128,-0.003l-0.126,-0.009l-0.124,-0.016l-0.125,-0.022l-0.122,-0.029l-0.118,-0.033l-0.116,-0.04l-0.115,-0.045l-0.112,-0.051l-0.107,-0.055l-0.105,-0.06l-0.101,-0.065l-0.098,-0.069l-0.094,-0.074l-0.09,-0.078l-0.087,-0.083l-0.083,-0.087l-0.077,-0.089l-0.075,-0.095l-0.069,-0.098l-0.065,-0.1l-0.061,-0.106l-0.055,-0.108l-0.05,-0.111l-0.045,-0.114l-0.04,-0.117l-0.034,-0.119l-0.028,-0.122l-0.022,-0.122l-0.016,-0.126l-0.009,-0.127l-0.003,-0.127l0.003,-0.127l0.009,-0.127l0.016,-0.126l0.022,-0.122l0.028,-0.122l0.034,-0.119l0.04,-0.117l0.045,-0.114l0.05,-0.111l0.055,-0.108l0.061,-0.106l0.065,-0.1l0.069,-0.098l0.075,-0.095l0.077,-0.089l0.083,-0.087l0.087,-0.083l0.09,-0.078l0.094,-0.074l0.098,-0.069l0.101,-0.065l0.105,-0.06l0.107,-0.055l0.112,-0.051l0.115,-0.045l0.116,-0.04l0.118,-0.033l0.122,-0.029l0.125,-0.022l0.124,-0.016l0.126,-0.009l0.128,-0.003l0.128,0.003Zm-0.179,1.498l-0.051,0.004l-0.05,0.007l-0.049,0.008l-0.049,0.012l-0.047,0.013l-0.047,0.016l-0.045,0.018l-0.044,0.02l-0.043,0.022l-0.042,0.024l-0.041,0.026l-0.039,0.028l-0.038,0.029l-0.036,0.032l-0.035,0.033l-0.033,0.035l-0.032,0.036l-0.029,0.038l-0.028,0.039l-0.026,0.041l-0.024,0.042l-0.022,0.043l-0.02,0.044l-0.018,0.045l-0.016,0.047l-0.013,0.047l-0.012,0.049l-0.008,0.049l-0.007,0.05l-0.004,0.051l-0.001,0.051l0.001,0.051l0.004,0.051l0.007,0.05l0.008,0.049l0.012,0.049l0.013,0.047l0.016,0.047l0.018,0.045l0.02,0.044l0.022,0.043l0.024,0.042l0.026,0.041l0.028,0.039l0.029,0.038l0.032,0.036l0.033,0.035l0.035,0.033l0.036,0.032l0.038,0.029l0.039,0.028l0.041,0.026l0.042,0.024l0.043,0.022l0.044,0.02l0.045,0.018l0.047,0.016l0.047,0.013l0.049,0.012l0.049,0.008l0.05,0.007l0.051,0.004l0.051,0.001l0.051,-0.001l0.051,-0.004l0.05,-0.007l0.049,-0.008l0.049,-0.012l0.047,-0.013l0.047,-0.016l0.045,-0.018l0.044,-0.02l0.043,-0.022l0.042,-0.024l0.041,-0.026l0.039,-0.028l0.038,-0.029l0.036,-0.032l0.035,-0.033l0.033,-0.035l0.032,-0.036l0.029,-0.038l0.028,-0.039l0.026,-0.041l0.024,-0.042l0.022,-0.043l0.02,-0.044l0.018,-0.045l0.016,-0.047l0.013,-0.047l0.012,-0.049l0.008,-0.049l0.007,-0.05l0.004,-0.051l0.001,-0.051l-0.001,-0.051l-0.004,-0.051l-0.007,-0.05l-0.008,-0.049l-0.012,-0.049l-0.013,-0.047l-0.016,-0.047l-0.018,-0.045l-0.02,-0.044l-0.022,-0.043l-0.024,-0.042l-0.026,-0.041l-0.028,-0.039l-0.029,-0.038l-0.032,-0.036l-0.033,-0.035l-0.035,-0.033l-0.036,-0.032l-0.038,-0.029l-0.039,-0.028l-0.041,-0.026l-0.042,-0.024l-0.043,-0.022l-0.044,-0.02l-0.045,-0.018l-0.047,-0.016l-0.047,-0.013l-0.049,-0.012l-0.049,-0.008l-0.05,-0.007l-0.051,-0.004l-0.051,-0.001l-0.051,0.001Z" style="fill:#fff;"/></g></svg>