<svg width="36" height="36" viewBox="0 0 36 36" fill="none" xmlns="http://www.w3.org/2000/svg">
<path d="M33.0234 18.8709C33.6984 17.9789 34.0721 16.8861 34.0721 15.749C34.0721 13.945 33.0636 12.2374 31.4404 11.2852C31.0225 11.0401 30.5467 10.9111 30.0622 10.9115H20.4274L20.6685 5.97358C20.7247 4.78028 20.3029 3.64724 19.4832 2.7834C19.081 2.35762 18.5957 2.01885 18.0573 1.78804C17.519 1.55722 16.939 1.43926 16.3533 1.44144C14.264 1.44144 12.4158 2.84769 11.8613 4.86063L8.41 17.3562H3.21491C2.50375 17.3562 1.9292 17.9307 1.9292 18.6419V33.2669C1.9292 33.978 2.50375 34.5526 3.21491 34.5526H27.3743C27.7439 34.5526 28.1055 34.4803 28.439 34.3356C30.3515 33.52 31.585 31.6517 31.585 29.5785C31.585 29.0722 31.5127 28.574 31.368 28.0919C32.043 27.1999 32.4167 26.1071 32.4167 24.97C32.4167 24.4638 32.3444 23.9655 32.1997 23.4834C32.8747 22.5914 33.2484 21.4986 33.2484 20.3615C33.2404 19.8553 33.168 19.353 33.0234 18.8709ZM4.82206 31.6597V20.249H8.07652V31.6597H4.82206ZM30.3917 17.4767L29.5118 18.2401L30.0703 19.2606C30.2543 19.5968 30.3497 19.9743 30.3475 20.3575C30.3475 21.0205 30.0582 21.6513 29.56 22.0852L28.6801 22.8486L29.2386 23.8691C29.4226 24.2053 29.518 24.5828 29.5158 24.966C29.5158 25.6289 29.2265 26.2597 28.7283 26.6937L27.8484 27.4571L28.4069 28.4776C28.5909 28.8138 28.6863 29.1912 28.6841 29.5745C28.6841 30.4745 28.1538 31.2861 27.3341 31.6557H10.648V20.1205L14.6457 5.63608C14.7488 5.26483 14.9701 4.9373 15.2761 4.70312C15.582 4.46894 15.956 4.34086 16.3413 4.33831C16.6466 4.33831 16.948 4.4267 17.189 4.60751C17.5868 4.90483 17.7997 5.35483 17.7756 5.83295L17.3899 13.8044H30.0221C30.7372 14.2423 31.1792 14.9816 31.1792 15.749C31.1792 16.412 30.8899 17.0388 30.3917 17.4767Z" fill="#262626"/>
</svg>
