<svg width="36" height="36" viewBox="0 0 36 36" fill="none" xmlns="http://www.w3.org/2000/svg">
<path d="M30.2143 28.2808H29.25V14.6201C29.25 8.95092 25.0594 4.2661 19.6071 3.48663V1.92369C19.6071 1.03574 18.8879 0.316544 18 0.316544C17.1121 0.316544 16.3929 1.03574 16.3929 1.92369V3.48663C10.9406 4.2661 6.75 8.95092 6.75 14.6201V28.2808H5.78571C5.07455 28.2808 4.5 28.8554 4.5 29.5665V30.8523C4.5 31.029 4.64464 31.1737 4.82143 31.1737H13.5C13.5 33.6567 15.517 35.6737 18 35.6737C20.483 35.6737 22.5 33.6567 22.5 31.1737H31.1786C31.3554 31.1737 31.5 31.029 31.5 30.8523V29.5665C31.5 28.8554 30.9254 28.2808 30.2143 28.2808ZM18 33.1023C16.9353 33.1023 16.0714 32.2384 16.0714 31.1737H19.9286C19.9286 32.2384 19.0647 33.1023 18 33.1023ZM9.64286 28.2808V14.6201C9.64286 12.3862 10.5107 10.2889 12.0897 8.70985C13.6688 7.13083 15.7661 6.26297 18 6.26297C20.2339 6.26297 22.3313 7.13083 23.9103 8.70985C25.4893 10.2889 26.3571 12.3862 26.3571 14.6201V28.2808H9.64286Z" fill="#262626"/>
</svg>
