<?xml version="1.0" encoding="UTF-8" standalone="no"?><!DOCTYPE svg PUBLIC "-//W3C//DTD SVG 1.1//EN" "http://www.w3.org/Graphics/SVG/1.1/DTD/svg11.dtd"><svg width="100%" height="100%" viewBox="0 0 30 31" version="1.1" xmlns="http://www.w3.org/2000/svg" xmlns:xlink="http://www.w3.org/1999/xlink" xml:space="preserve" style="fill-rule:evenodd;clip-rule:evenodd;stroke-linecap:round;stroke-linejoin:round;stroke-miterlimit:1.5;"><g id="plug"><circle cx="15" cy="15" r="15" style="fill:#2d2d2d;"/><path d="M21.084,14.002l0.085,0.008l0.083,0.011l0.083,0.017l0.082,0.021l0.081,0.026l0.078,0.03l0.077,0.035l0.075,0.039l0.073,0.043l0.07,0.047l0.068,0.051l0.064,0.055l0.061,0.058l0.058,0.062l0.054,0.064l0.051,0.068l0.047,0.071l0.042,0.073l0.039,0.075l0.034,0.077l0.029,0.079l0.026,0.081l0.02,0.082l0.016,0.083l0.012,0.084l0.006,0.084l0.002,0.084l-0.001,0.082l-0.002,0.092l-0.003,0.091l-0.004,0.091l-0.006,0.09l-0.007,0.091l-0.008,0.09l-0.009,0.091l-0.011,0.089l-0.011,0.09l-0.013,0.088l-0.015,0.089l-0.015,0.088l-0.016,0.088l-0.018,0.088l-0.019,0.087l-0.02,0.087l-0.021,0.087l-0.022,0.086l-0.024,0.085l-0.024,0.085l-0.026,0.085l-0.027,0.084l-0.027,0.083l-0.029,0.084l-0.03,0.083l-0.031,0.082l-0.032,0.081l-0.033,0.082l-0.034,0.081l-0.035,0.08l-0.036,0.079l-0.038,0.079l-0.038,0.079l-0.039,0.078l-0.04,0.078l-0.041,0.076l-0.042,0.076l-0.043,0.076l-0.044,0.076l-0.045,0.074l-0.045,0.074l-0.047,0.073l-0.047,0.073l-0.049,0.072l-0.049,0.071l-0.05,0.071l-0.051,0.07l-0.052,0.069l-0.053,0.069l-0.053,0.069l-0.055,0.067l-0.055,0.067l-0.056,0.066l-0.057,0.066l-0.057,0.064l-0.058,0.064l-0.06,0.063l-0.06,0.063l-0.061,0.062l-0.061,0.061l-0.062,0.061l-0.063,0.06l-0.063,0.059l-0.065,0.058l-0.065,0.058l-0.066,0.057l-0.067,0.056l-0.067,0.055l-0.067,0.054l-0.069,0.054l-0.07,0.053l-0.069,0.053l-0.071,0.051l-0.071,0.051l-0.072,0.049l-0.072,0.05l-0.074,0.048l-0.073,0.047l-0.074,0.047l-0.076,0.046l-0.075,0.045l-0.076,0.044l-0.077,0.043l-0.077,0.043l-0.078,0.041l-0.078,0.041l-0.079,0.04l-0.08,0.039l-0.08,0.038l-0.08,0.037l-0.082,0.037l-0.081,0.035l-0.083,0.035l-0.082,0.034l-0.083,0.032l-0.084,0.032l-0.084,0.031l-0.085,0.03l-0.085,0.029l-0.085,0.028l-0.087,0.028l-0.086,0.026l-0.086,0.025l-0.088,0.025l-0.088,0.023l-0.088,0.022l-0.088,0.022l-0.089,0.02l-0.089,0.02l-0.09,0.018l-0.09,0.018l-0.09,0.016l-0.092,0.016l-0.091,0.014l-0.091,0.013l-0.092,0.012l-0.092,0.012l-0.093,0.01l-0.092,0.009l-0.093,0.008l-0.094,0.007l-0.093,0.006l-0.095,0.005l-0.094,0.004l-0.094,0.003l-0.095,0.001l-0.095,0.001l-0.095,-0.001l-0.095,-0.001l-0.094,-0.003l-0.094,-0.004l-0.095,-0.005l-0.093,-0.006l-0.094,-0.007l-0.093,-0.008l-0.092,-0.009l-0.093,-0.01l-0.092,-0.012l-0.092,-0.012l-0.091,-0.013l-0.091,-0.014l-0.092,-0.016l-0.09,-0.016l-0.09,-0.018l-0.09,-0.018l-0.089,-0.02l-0.089,-0.02l-0.088,-0.022l-0.088,-0.022l-0.088,-0.023l-0.088,-0.025l-0.086,-0.025l-0.086,-0.026l-0.087,-0.028l-0.086,-0.028l-0.085,-0.029l-0.084,-0.03l-0.084,-0.031l-0.084,-0.032l-0.083,-0.032l-0.082,-0.034l-0.082,-0.035l-0.082,-0.035l-0.082,-0.037l-0.08,-0.037l-0.08,-0.038l-0.08,-0.039l-0.079,-0.04l-0.078,-0.041l-0.078,-0.041l-0.077,-0.043l-0.077,-0.043l-0.076,-0.044l-0.075,-0.045l-0.076,-0.046l-0.074,-0.047l-0.073,-0.047l-0.073,-0.048l-0.073,-0.05l-0.072,-0.049l-0.071,-0.051l-0.071,-0.051l-0.07,-0.053l-0.069,-0.053l-0.069,-0.054l-0.067,-0.054l-0.067,-0.055l-0.067,-0.056l-0.066,-0.057l-0.065,-0.058l-0.065,-0.058l-0.063,-0.059l-0.063,-0.06l-0.062,-0.061l-0.061,-0.061l-0.061,-0.061l-0.06,-0.064l-0.06,-0.063l-0.058,-0.064l-0.057,-0.064l-0.057,-0.066l-0.056,-0.066l-0.055,-0.067l-0.055,-0.068l-0.053,-0.068l-0.053,-0.068l-0.052,-0.07l-0.051,-0.07l-0.05,-0.071l-0.049,-0.071l-0.049,-0.072l-0.047,-0.073l-0.047,-0.073l-0.045,-0.074l-0.045,-0.074l-0.044,-0.076l-0.043,-0.076l-0.042,-0.075l-0.041,-0.077l-0.04,-0.078l-0.039,-0.078l-0.038,-0.078l-0.038,-0.08l-0.036,-0.079l-0.035,-0.08l-0.034,-0.081l-0.033,-0.082l-0.032,-0.081l-0.031,-0.083l-0.03,-0.082l-0.029,-0.084l-0.027,-0.083l-0.027,-0.084l-0.026,-0.085l-0.024,-0.085l-0.024,-0.086l-0.022,-0.086l-0.021,-0.086l-0.02,-0.087l-0.019,-0.087l-0.018,-0.087l-0.016,-0.088l-0.016,-0.089l-0.014,-0.089l-0.013,-0.088l-0.011,-0.09l-0.011,-0.089l-0.009,-0.09l-0.008,-0.091l-0.007,-0.091l-0.006,-0.09l-0.004,-0.091l-0.004,-0.092l-0.001,-0.091l-0.001,-0.082l0.002,-0.084l0.006,-0.084l0.012,-0.084l0.016,-0.083l0.02,-0.082l0.026,-0.081l0.029,-0.079l0.034,-0.077l0.039,-0.075l0.042,-0.073l0.047,-0.071l0.051,-0.068l0.054,-0.064l0.058,-0.062l0.061,-0.058l0.064,-0.055l0.068,-0.051l0.07,-0.047l0.073,-0.043l0.075,-0.039l0.077,-0.035l0.079,-0.03l0.08,-0.026l0.082,-0.021l0.083,-0.017l0.083,-0.011l0.085,-0.008l0.084,-0.002l12,0l0.084,0.002Zm-6.084,1.498l-6,0l0,0.071l0.002,0.071l0.002,0.071l0.004,0.07l0.004,0.07l0.005,0.07l0.007,0.07l0.007,0.069l0.008,0.07l0.009,0.068l0.01,0.069l0.011,0.069l0.012,0.068l0.013,0.068l0.013,0.067l0.015,0.067l0.015,0.067l0.017,0.067l0.017,0.066l0.018,0.067l0.019,0.065l0.02,0.066l0.02,0.065l0.022,0.065l0.022,0.064l0.023,0.064l0.024,0.064l0.025,0.063l0.026,0.063l0.026,0.063l0.027,0.062l0.029,0.062l0.028,0.061l0.03,0.061l0.03,0.061l0.032,0.06l0.032,0.06l0.032,0.06l0.034,0.059l0.034,0.059l0.035,0.058l0.036,0.058l0.036,0.057l0.038,0.057l0.038,0.056l0.038,0.056l0.04,0.056l0.04,0.055l0.04,0.055l0.042,0.054l0.042,0.054l0.043,0.053l0.044,0.052l0.044,0.053l0.045,0.051l0.045,0.052l0.046,0.05l0.047,0.05l0.048,0.05l0.048,0.049l0.048,0.049l0.05,0.048l0.05,0.047l0.05,0.047l0.052,0.046l0.051,0.046l0.053,0.046l0.053,0.044l0.053,0.044l0.054,0.044l0.055,0.043l0.055,0.042l0.056,0.042l0.057,0.041l0.057,0.04l0.057,0.04l0.058,0.04l0.059,0.038l0.059,0.038l0.059,0.038l0.06,0.036l0.061,0.037l0.061,0.035l0.062,0.035l0.062,0.034l0.062,0.033l0.064,0.033l0.063,0.032l0.064,0.032l0.064,0.03l0.065,0.03l0.066,0.03l0.066,0.028l0.066,0.028l0.066,0.027l0.068,0.027l0.067,0.026l0.068,0.025l0.068,0.024l0.069,0.023l0.069,0.023l0.07,0.022l0.07,0.021l0.07,0.021l0.07,0.019l0.071,0.019l0.072,0.018l0.072,0.018l0.072,0.016l0.072,0.016l0.073,0.015l0.073,0.014l0.073,0.014l0.074,0.012l0.074,0.012l0.074,0.011l0.075,0.01l0.075,0.009l0.075,0.008l0.076,0.008l0.075,0.006l0.076,0.006l0.077,0.005l0.076,0.004l0.077,0.003l0.077,0.002l0.077,0.002l0.078,0l0.078,0l0.077,-0.002l0.077,-0.002l0.077,-0.003l0.076,-0.004l0.077,-0.005l0.076,-0.006l0.075,-0.006l0.076,-0.008l0.075,-0.008l0.075,-0.009l0.075,-0.01l0.074,-0.011l0.074,-0.012l0.074,-0.012l0.073,-0.014l0.073,-0.014l0.073,-0.015l0.072,-0.016l0.072,-0.016l0.072,-0.018l0.072,-0.018l0.071,-0.019l0.07,-0.019l0.07,-0.021l0.07,-0.021l0.07,-0.022l0.069,-0.023l0.069,-0.023l0.068,-0.024l0.068,-0.025l0.067,-0.026l0.068,-0.027l0.066,-0.027l0.066,-0.028l0.066,-0.028l0.066,-0.03l0.065,-0.03l0.064,-0.03l0.064,-0.032l0.063,-0.032l0.064,-0.033l0.062,-0.033l0.062,-0.034l0.062,-0.035l0.061,-0.035l0.061,-0.037l0.06,-0.036l0.059,-0.038l0.059,-0.038l0.059,-0.038l0.058,-0.04l0.057,-0.04l0.057,-0.04l0.057,-0.041l0.056,-0.042l0.055,-0.042l0.055,-0.043l0.054,-0.044l0.053,-0.044l0.053,-0.044l0.053,-0.046l0.051,-0.046l0.052,-0.046l0.05,-0.047l0.05,-0.047l0.05,-0.048l0.048,-0.049l0.048,-0.049l0.048,-0.05l0.047,-0.05l0.046,-0.05l0.045,-0.052l0.045,-0.051l0.044,-0.053l0.044,-0.052l0.043,-0.053l0.042,-0.054l0.042,-0.054l0.04,-0.055l0.04,-0.055l0.04,-0.056l0.038,-0.056l0.038,-0.056l0.038,-0.057l0.036,-0.057l0.036,-0.058l0.035,-0.058l0.034,-0.059l0.034,-0.059l0.032,-0.06l0.032,-0.06l0.032,-0.06l0.03,-0.061l0.03,-0.061l0.028,-0.061l0.029,-0.062l0.027,-0.062l0.026,-0.063l0.026,-0.063l0.025,-0.063l0.024,-0.064l0.023,-0.064l0.022,-0.064l0.022,-0.065l0.02,-0.065l0.02,-0.066l0.019,-0.065l0.018,-0.067l0.017,-0.066l0.017,-0.067l0.015,-0.067l0.015,-0.067l0.013,-0.067l0.013,-0.068l0.012,-0.068l0.011,-0.069l0.01,-0.069l0.009,-0.068l0.008,-0.07l0.007,-0.069l0.007,-0.07l0.005,-0.07l0.004,-0.07l0.004,-0.07l0.002,-0.071l0.002,-0.071l0,-0.071l-6,0Z" style="fill:#fff;"/><path d="M15,22l0,8" style="fill:none;stroke:#fff;stroke-width:1.5px;"/><path d="M11,5.75l0,5" style="fill:none;stroke:#fff;stroke-width:1.5px;"/><path d="M19,5.75l0,5" style="fill:none;stroke:#fff;stroke-width:1.5px;"/><path d="M22.091,10.503l0.09,0.008l0.089,0.014l0.089,0.019l0.087,0.024l0.086,0.029l0.084,0.035l0.081,0.04l0.079,0.044l0.076,0.049l0.073,0.054l0.07,0.058l0.066,0.062l0.062,0.066l0.058,0.07l0.053,0.073l0.05,0.076l0.044,0.079l0.04,0.081l0.035,0.084l0.029,0.086l0.024,0.087l0.019,0.089l0.014,0.089l0.008,0.09l0.003,0.091l0,2l-0.003,0.091l-0.008,0.09l-0.014,0.089l-0.019,0.089l-0.024,0.087l-0.029,0.086l-0.035,0.084l-0.04,0.081l-0.044,0.079l-0.05,0.076l-0.053,0.073l-0.058,0.07l-0.062,0.066l-0.066,0.062l-0.07,0.058l-0.073,0.053l-0.076,0.05l-0.079,0.044l-0.081,0.04l-0.084,0.034l-0.086,0.03l-0.087,0.024l-0.089,0.019l-0.089,0.014l-0.09,0.008l-0.091,0.003l-14,0l-0.091,-0.003l-0.09,-0.008l-0.089,-0.014l-0.089,-0.019l-0.087,-0.024l-0.086,-0.03l-0.084,-0.034l-0.081,-0.04l-0.079,-0.044l-0.076,-0.05l-0.073,-0.053l-0.07,-0.058l-0.066,-0.062l-0.062,-0.066l-0.058,-0.07l-0.053,-0.073l-0.05,-0.076l-0.044,-0.079l-0.04,-0.081l-0.035,-0.084l-0.029,-0.086l-0.024,-0.087l-0.019,-0.089l-0.014,-0.089l-0.008,-0.09l-0.003,-0.091l0,-2l0.003,-0.091l0.008,-0.09l0.014,-0.089l0.019,-0.089l0.024,-0.087l0.029,-0.086l0.035,-0.084l0.04,-0.081l0.044,-0.079l0.05,-0.076l0.053,-0.073l0.058,-0.07l0.062,-0.066l0.066,-0.062l0.07,-0.058l0.073,-0.054l0.076,-0.049l0.079,-0.044l0.081,-0.04l0.084,-0.035l0.086,-0.029l0.087,-0.024l0.089,-0.019l0.089,-0.014l0.09,-0.008l0.091,-0.003l14,0l0.091,0.003Zm-14.091,1.497l0,2l14,0l0,-2l-14,0Z" style="fill:#fff;"/></g></svg>