<svg width="14" height="14" viewBox="0 0 14 14" fill="none" xmlns="http://www.w3.org/2000/svg">
<g clip-path="url(#clip0_3447_10487)">
<path d="M13.45 8.77884L12.4265 7.90384C12.475 7.60697 12.5 7.30384 12.5 7.00072C12.5 6.69759 12.475 6.39447 12.4265 6.09759L13.45 5.22259C13.5271 5.15651 13.5824 5.06849 13.6084 4.97025C13.6343 4.872 13.6297 4.76818 13.5953 4.67259L13.5812 4.63197C13.2995 3.84451 12.8776 3.11452 12.3359 2.47728L12.3078 2.44447C12.2421 2.3672 12.1545 2.31166 12.0566 2.28517C11.9587 2.25867 11.855 2.26246 11.7593 2.29603L10.489 2.74759C10.0203 2.36322 9.49683 2.06009 8.9312 1.84759L8.68589 0.519466C8.66738 0.419532 8.61891 0.327595 8.5469 0.255869C8.4749 0.184143 8.38277 0.136024 8.28277 0.117904L8.24058 0.110091C7.42652 -0.0367836 6.57027 -0.0367836 5.7562 0.110091L5.71402 0.117904C5.61401 0.136024 5.52189 0.184143 5.44988 0.255869C5.37788 0.327595 5.3294 0.419532 5.31089 0.519466L5.06402 1.85384C4.5029 2.06639 3.98037 2.36935 3.51714 2.75072L2.23745 2.29603C2.14178 2.26219 2.03806 2.25826 1.9401 2.28478C1.84214 2.31129 1.75457 2.36699 1.68902 2.44447L1.66089 2.47728C1.11987 3.11497 0.698042 3.84484 0.415579 4.63197L0.401517 4.67259C0.331204 4.8679 0.389017 5.08665 0.546829 5.22259L1.58277 6.10697C1.53433 6.40072 1.51089 6.70072 1.51089 6.99915C1.51089 7.29915 1.53433 7.59915 1.58277 7.89134L0.546829 8.77572C0.469635 8.8418 0.414386 8.92982 0.388429 9.02806C0.362472 9.12631 0.367037 9.23013 0.401517 9.32572L0.415579 9.36634C0.698392 10.1538 1.11714 10.8804 1.66089 11.521L1.68902 11.5538C1.75473 11.6311 1.8423 11.6866 1.94021 11.7131C2.03811 11.7396 2.14175 11.7359 2.23745 11.7023L3.51714 11.2476C3.98277 11.6304 4.50308 11.9335 5.06402 12.1445L5.31089 13.4788C5.3294 13.5788 5.37788 13.6707 5.44988 13.7424C5.52189 13.8142 5.61401 13.8623 5.71402 13.8804L5.7562 13.8882C6.57775 14.0359 7.41904 14.0359 8.24058 13.8882L8.28277 13.8804C8.38277 13.8623 8.4749 13.8142 8.5469 13.7424C8.61891 13.6707 8.66738 13.5788 8.68589 13.4788L8.9312 12.1507C9.4966 11.9388 10.023 11.6347 10.489 11.2507L11.7593 11.7023C11.855 11.7361 11.9587 11.74 12.0567 11.7135C12.1546 11.687 12.2422 11.6313 12.3078 11.5538L12.3359 11.521C12.8796 10.8788 13.2984 10.1538 13.5812 9.36634L13.5953 9.32572C13.6656 9.13353 13.6078 8.91478 13.45 8.77884ZM11.3171 6.28197C11.3562 6.5179 11.3765 6.76009 11.3765 7.00228C11.3765 7.24447 11.3562 7.48665 11.3171 7.72259L11.214 8.34916L12.3812 9.34759C12.2043 9.75523 11.9809 10.1411 11.7156 10.4976L10.2656 9.98353L9.77495 10.3867C9.40152 10.6929 8.98589 10.9335 8.53589 11.1023L7.94058 11.3257L7.66089 12.8413C7.21959 12.8913 6.77406 12.8913 6.33277 12.8413L6.05308 11.3226L5.46245 11.096C5.01714 10.9273 4.60308 10.6867 4.23277 10.382L3.74214 9.97728L2.28277 10.496C2.01714 10.1382 1.79527 9.75228 1.61714 9.34603L2.79683 8.33822L2.69527 7.71322C2.65777 7.4804 2.63745 7.23978 2.63745 7.00228C2.63745 6.76322 2.6562 6.52415 2.69527 6.29134L2.79683 5.66634L1.61714 4.65853C1.7937 4.25072 2.01714 3.86634 2.28277 3.50853L3.74214 4.02728L4.23277 3.62259C4.60308 3.3179 5.01714 3.07728 5.46245 2.90853L6.05464 2.68509L6.33433 1.16634C6.77339 1.11634 7.22183 1.11634 7.66245 1.16634L7.94214 2.68197L8.53745 2.9054C8.98589 3.07415 9.40308 3.31478 9.77652 3.62103L10.2671 4.02415L11.7171 3.51009C11.9828 3.8679 12.2046 4.25384 12.3828 4.66009L11.2156 5.65853L11.3171 6.28197ZM6.99995 4.09603C5.4812 4.09603 4.24995 5.32728 4.24995 6.84603C4.24995 8.36478 5.4812 9.59603 6.99995 9.59603C8.5187 9.59603 9.74995 8.36478 9.74995 6.84603C9.74995 5.32728 8.5187 4.09603 6.99995 4.09603ZM8.23745 8.08353C8.07514 8.24631 7.88225 8.37538 7.66987 8.46334C7.4575 8.55129 7.22982 8.59639 6.99995 8.59603C6.53277 8.59603 6.0937 8.41322 5.76245 8.08353C5.59968 7.92122 5.4706 7.72833 5.38265 7.51595C5.29469 7.30357 5.2496 7.0759 5.24995 6.84603C5.24995 6.37884 5.43277 5.93978 5.76245 5.60853C6.0937 5.27728 6.53277 5.09603 6.99995 5.09603C7.46714 5.09603 7.9062 5.27728 8.23745 5.60853C8.40023 5.77084 8.52931 5.96373 8.61726 6.17611C8.70522 6.38849 8.75031 6.61616 8.74995 6.84603C8.74995 7.31322 8.56714 7.75228 8.23745 8.08353Z" fill="#5B45AD"/>
</g>
<defs>
<clipPath id="clip0_3447_10487">
<rect width="14" height="14" fill="white"/>
</clipPath>
</defs>
</svg>
