<svg width="36" height="36" viewBox="0 0 36 36" fill="none" xmlns="http://www.w3.org/2000/svg">
<g clip-path="url(#clip0_207_10042)">
<path d="M30.8562 0H9.32049C9.1437 0 8.99906 0.144643 8.99906 0.321429V2.57143C8.99906 2.74821 9.1437 2.89286 9.32049 2.89286H29.2491V30.5357C29.2491 30.7125 29.3937 30.8571 29.5705 30.8571H31.8205C31.9973 30.8571 32.1419 30.7125 32.1419 30.5357V1.28571C32.1419 0.574554 31.5674 0 30.8562 0ZM25.7133 5.14286H5.14192C4.43075 5.14286 3.8562 5.71741 3.8562 6.42857V27.7513C3.8562 28.0929 3.99281 28.4183 4.23388 28.6594L11.1968 35.6223C11.2852 35.7107 11.3857 35.783 11.4941 35.8433V35.9196H11.6629C11.8035 35.9719 11.9522 36 12.1049 36H25.7133C26.4245 36 26.9991 35.4254 26.9991 34.7143V6.42857C26.9991 5.71741 26.4245 5.14286 25.7133 5.14286ZM11.4901 31.8295L8.03076 28.3661H11.4901V31.8295ZM24.1062 33.1071H14.0616V27.4018C14.0616 26.5138 13.3424 25.7946 12.4544 25.7946H6.74906V8.03571H24.1062V33.1071Z" fill="#262626"/>
</g>
<defs>
<clipPath id="clip0_207_10042">
<rect width="36" height="36" fill="white"/>
</clipPath>
</defs>
</svg>
