<svg width="36" height="36" viewBox="0 0 36 36" fill="none" xmlns="http://www.w3.org/2000/svg">
<path d="M7.78212 27.6391C7.86248 27.6391 7.94283 27.6311 8.02319 27.619L14.7812 26.4337C14.8616 26.4177 14.9379 26.3815 14.9942 26.3212L32.0259 9.28954C32.0631 9.25237 32.0927 9.20822 32.1128 9.15961C32.133 9.111 32.1434 9.0589 32.1434 9.00628C32.1434 8.95366 32.133 8.90155 32.1128 8.85295C32.0927 8.80434 32.0631 8.76019 32.0259 8.72302L25.3482 2.04132C25.2719 1.96498 25.1714 1.9248 25.0629 1.9248C24.9544 1.9248 24.854 1.96498 24.7777 2.04132L7.74596 19.073C7.68569 19.1333 7.64953 19.2056 7.63346 19.286L6.44819 26.044C6.4091 26.2592 6.42307 26.4808 6.48888 26.6894C6.55469 26.898 6.67036 27.0875 6.82587 27.2413C7.09105 27.4985 7.42453 27.6391 7.78212 27.6391ZM10.4902 20.6319L25.0629 6.0632L28.008 9.00829L13.4352 23.577L9.86337 24.2078L10.4902 20.6319ZM32.7852 31.0141H3.21381C2.50265 31.0141 1.9281 31.5886 1.9281 32.2998V33.7462C1.9281 33.923 2.07274 34.0677 2.24953 34.0677H33.7495C33.9263 34.0677 34.071 33.923 34.071 33.7462V32.2998C34.071 31.5886 33.4964 31.0141 32.7852 31.0141Z" fill="#262626"/>
</svg>
