<svg width="32" height="32" viewBox="0 0 32 32" fill="none" xmlns="http://www.w3.org/2000/svg">
<path d="M18.4903 22.1604C18.4298 22.1006 18.3483 22.067 18.2632 22.067C18.1782 22.067 18.0966 22.1006 18.0362 22.1604L13.3675 26.8291C11.2059 28.9907 7.55767 29.2198 5.17106 26.8291C2.78043 24.4385 3.00945 20.7943 5.17106 18.6327L9.83981 13.964C9.96436 13.8394 9.96436 13.6345 9.83981 13.5099L8.2407 11.9108C8.18029 11.851 8.09871 11.8175 8.01369 11.8175C7.92868 11.8175 7.8471 11.851 7.78668 11.9108L3.11793 16.5796C-0.281173 19.9787 -0.281173 25.4791 3.11793 28.8742C6.51704 32.2693 12.0175 32.2733 15.4126 28.8742L20.0813 24.2055C20.2059 24.0809 20.2059 23.876 20.0813 23.7515L18.4903 22.1604ZM28.8804 3.11574C25.4813 -0.283371 19.9809 -0.283371 16.5858 3.11574L11.913 7.78449C11.8532 7.8449 11.8196 7.92648 11.8196 8.0115C11.8196 8.09651 11.8532 8.17809 11.913 8.2385L13.5081 9.8336C13.6327 9.95815 13.8376 9.95815 13.9621 9.8336L18.6309 5.16484C20.7925 3.00324 24.4407 2.77422 26.8273 5.16484C29.2179 7.55547 28.9889 11.1997 26.8273 13.3613L22.1586 18.03C22.0987 18.0904 22.0652 18.172 22.0652 18.257C22.0652 18.3421 22.0987 18.4236 22.1586 18.484L23.7577 20.0832C23.8822 20.2077 24.0871 20.2077 24.2117 20.0832L28.8804 15.4144C32.2755 12.0153 32.2755 6.51484 28.8804 3.11574ZM19.9407 10.384C19.8803 10.3242 19.7987 10.2907 19.7137 10.2907C19.6287 10.2907 19.5471 10.3242 19.4867 10.384L10.3862 19.4805C10.3264 19.5409 10.2929 19.6225 10.2929 19.7075C10.2929 19.7925 10.3264 19.8741 10.3862 19.9345L11.9773 21.5256C12.1019 21.6501 12.3068 21.6501 12.4313 21.5256L21.5278 12.4291C21.6523 12.3046 21.6523 12.0997 21.5278 11.9751L19.9407 10.384Z" fill="#262626"/>
</svg>
