<svg width="36" height="36" viewBox="0 0 36 36" fill="none" xmlns="http://www.w3.org/2000/svg">
<path d="M32.7863 1.93335C32.6336 1.93335 32.4769 1.96147 32.3202 2.02576L9.16131 11.3311H2.57203C2.21845 11.3311 1.92917 11.6284 1.92917 11.9981V24.0115C1.92917 24.3811 2.21845 24.6784 2.57203 24.6784H6.65819C6.50953 25.1445 6.42917 25.6387 6.42917 26.1409C6.42917 28.7887 8.59078 30.9423 11.2506 30.9423C13.4765 30.9423 15.3528 29.4316 15.9073 27.3905L32.3243 33.9878C32.481 34.0481 32.6377 34.0802 32.7903 34.0802C33.4693 34.0802 34.076 33.5097 34.076 32.7463V3.26728C34.072 2.50389 33.4693 1.93335 32.7863 1.93335ZM11.2506 28.0615C10.1859 28.0615 9.32203 27.2017 9.32203 26.1409C9.32203 25.6909 9.47872 25.261 9.76399 24.9195L13.1752 26.2896C13.0948 27.278 12.2631 28.0615 11.2506 28.0615ZM31.1792 30.4079L10.2381 21.9945L9.71979 21.7856H4.82203V14.224H9.71979L10.2381 14.015L31.1792 5.60165V30.4079Z" fill="#262626"/>
</svg>
