<svg width="36" height="36" viewBox="0 0 36 36" fill="none" xmlns="http://www.w3.org/2000/svg">
<path d="M18 2.25C9.30234 2.25 2.25 9.30234 2.25 18C2.25 26.6977 9.30234 33.75 18 33.75C26.6977 33.75 33.75 26.6977 33.75 18C33.75 9.30234 26.6977 2.25 18 2.25ZM18 31.0781C10.7789 31.0781 4.92188 25.2211 4.92188 18C4.92188 10.7789 10.7789 4.92188 18 4.92188C25.2211 4.92188 31.0781 10.7789 31.0781 18C31.0781 25.2211 25.2211 31.0781 18 31.0781Z" fill="#262626"/>
<path d="M16.312 11.8125C16.312 12.2601 16.4897 12.6893 16.8062 13.0057C17.1227 13.3222 17.5519 13.5 17.9995 13.5C18.447 13.5 18.8762 13.3222 19.1927 13.0057C19.5092 12.6893 19.687 12.2601 19.687 11.8125C19.687 11.3649 19.5092 10.9357 19.1927 10.6193C18.8762 10.3028 18.447 10.125 17.9995 10.125C17.5519 10.125 17.1227 10.3028 16.8062 10.6193C16.4897 10.9357 16.312 11.3649 16.312 11.8125ZM18.8432 15.75H17.1557C17.001 15.75 16.8745 15.8766 16.8745 16.0312V25.5938C16.8745 25.7484 17.001 25.875 17.1557 25.875H18.8432C18.9979 25.875 19.1245 25.7484 19.1245 25.5938V16.0312C19.1245 15.8766 18.9979 15.75 18.8432 15.75Z" fill="#262626"/>
</svg>
