<?xml version="1.0" encoding="UTF-8" standalone="no"?>
<svg width="22px" height="21px" viewBox="0 0 22 21" version="1.1" xmlns="http://www.w3.org/2000/svg" xmlns:xlink="http://www.w3.org/1999/xlink">
    <!-- Generator: Sketch 3.8.3 (29802) - http://www.bohemiancoding.com/sketch -->
    <title>Shape</title>
    <desc>Created with Sketch.</desc>
    <defs></defs>
    <g id="Page-1" stroke="none" stroke-width="1" fill="none" fill-rule="evenodd">
        <g id="Desktop-Portrait" transform="translate(-586.000000, -671.000000)" fill="#FFFFFF">
            <g id="Links" transform="translate(586.000000, 671.000000)">
                <path d="M20.1018776,5.36571535 C19.138478,3.71504349 17.8316879,2.40820427 16.1811635,1.44490291 C14.5303933,0.481552415 12.7282445,0 10.7734394,0 C8.81888001,0 7.01614155,0.481699814 5.36571535,1.44490291 C3.71504349,2.40815514 2.40830254,3.71504349 1.44490291,5.36571535 C0.481650681,7.01633808 0,8.81883088 0,10.7731446 C0,13.1207188 0.684913852,15.2317176 2.05508549,17.1066816 C3.42510973,18.9817929 5.19497822,20.2792969 7.36454357,20.9993408 C7.61708713,21.0462137 7.80403815,21.0132454 7.92559316,20.9012714 C8.0471973,20.7891499 8.10792568,20.6487278 8.10792568,20.4805947 C8.10792568,20.4525398 8.10551816,20.2001436 8.10085053,19.7231114 C8.09603549,19.2460793 8.09377538,18.8299228 8.09377538,18.4748387 L7.77111904,18.5306538 C7.56539922,18.5683388 7.30587878,18.584307 6.99255772,18.5797868 C6.67938405,18.575414 6.35427107,18.5425931 6.01766097,18.48157 C5.68090347,18.4210873 5.36768067,18.2808126 5.07774691,18.0610407 C4.78796055,17.8412689 4.58224073,17.5535952 4.46063658,17.198462 L4.3203619,16.8756582 C4.22686182,16.6607506 4.07965939,16.4220134 3.87855807,16.1603311 C3.67745675,15.8984031 3.47409531,15.7208365 3.26837549,15.6273364 L3.17015865,15.5570271 C3.10471351,15.5103016 3.04398514,15.4539461 2.98782613,15.3885501 C2.93171626,15.3231541 2.88970756,15.257709 2.86165262,15.1921655 C2.83354855,15.126573 2.85683759,15.0727724 2.93176539,15.0305672 C3.0066932,14.9883619 3.14210371,14.9678735 3.33858653,14.9678735 L3.61903763,15.0097839 C3.80608691,15.0472724 4.03745415,15.1592464 4.31343415,15.346394 C4.58926674,15.5333942 4.81601548,15.7765042 4.9937295,16.0756258 C5.20893199,16.4591579 5.46820676,16.7514009 5.77229083,16.9525022 C6.07612922,17.1536036 6.3824734,17.2539823 6.69102857,17.2539823 C6.99958373,17.2539823 7.26608106,17.230595 7.49061882,17.184066 C7.71491091,17.1372914 7.92534749,17.0669821 8.12183031,16.9735312 C8.20599512,16.3466925 8.43515138,15.8651401 8.80910255,15.52853 C8.27610789,15.4725184 7.79691386,15.388157 7.37127479,15.2759864 C6.94588138,15.1636684 6.50628853,14.981385 6.05279106,14.7286449 C5.59904791,14.4762488 5.22264009,14.1628295 4.92346933,13.7889274 C4.62424943,13.4148288 4.37868276,12.9236955 4.18711324,12.3159696 C3.99544545,11.707998 3.89958699,11.0066737 3.89958699,10.2118002 C3.89958699,9.08002184 4.26906706,8.11691701 5.0078798,7.32194527 C4.66178703,6.47106018 4.69446047,5.51719235 5.10599838,4.46044005 C5.37721247,4.37617697 5.77941511,4.43941113 6.31240976,4.64974945 C6.84550268,4.86018604 7.23581514,5.04045497 7.4837402,5.18991752 C7.73166525,5.33933094 7.93030993,5.46594665 8.07996901,5.56863459 C8.94986856,5.3255737 9.84757738,5.20401869 10.7733411,5.20401869 C11.6991049,5.20401869 12.5970103,5.3255737 13.4669589,5.56863459 L14.0000027,5.23212276 C14.3645204,5.007585 14.7949745,4.80181605 15.2903333,4.61476676 C15.7859868,4.42781574 16.1649987,4.37632437 16.4269758,4.46058745 C16.8476524,5.51738889 16.8851409,6.47120758 16.5389499,7.32209267 C17.2777135,8.11706441 17.647341,9.08041491 17.647341,10.2119476 C17.647341,11.0068211 17.5511386,11.7103564 17.3597656,12.3229956 C17.1681469,12.9357331 16.9204675,13.4263751 16.6166291,13.7959534 C16.3124468,14.1654826 15.9336315,14.4764453 15.480134,14.7287923 C15.0265382,14.9813359 14.586798,15.1636193 14.1614046,15.2759373 C13.7358147,15.3882553 13.2566206,15.4726658 12.723626,15.5287756 C13.2097477,15.9494523 13.4528578,16.6134846 13.4528578,17.5205778 L13.4528578,20.4802016 C13.4528578,20.6483347 13.511326,20.7887077 13.6283608,20.9008783 C13.7452482,21.0128524 13.9298408,21.0458206 14.1823844,20.9988986 C16.3522445,20.2789529 18.122113,18.9813998 19.4920881,17.1062885 C20.8619158,15.2313245 21.5470753,13.1203257 21.5470753,10.7727515 C21.546584,8.81868348 21.0646877,7.01633808 20.1018776,5.36571535 L20.1018776,5.36571535 Z" id="Shape"></path>
            </g>
        </g>
    </g>
</svg>