<?xml version="1.0" encoding="UTF-8" standalone="no"?>
<svg width="127px" height="23px" viewBox="0 0 127 23" version="1.1" xmlns="http://www.w3.org/2000/svg" xmlns:xlink="http://www.w3.org/1999/xlink">
    <!-- Generator: Sketch 3.8.3 (29802) - http://www.bohemiancoding.com/sketch -->
    <title>Logo</title>
    <desc>Created with Sketch.</desc>
    <defs></defs>
    <g id="Page-1" stroke="none" stroke-width="1" fill="none" fill-rule="evenodd">
        <g id="Desktop-Portrait" transform="translate(-705.000000, -50.000000)" fill="#FFFFFF">
            <g id="Logo" transform="translate(705.000000, 50.000000)">
                <path d="M16.3293066,1.55495113 L16.2135615,3.97886119 C14.707184,3.33881874 13.2014666,3.01846881 11.6957491,3.01846881 C9.28245546,3.01846881 7.36636023,3.72205934 5.9474567,5.12793227 C4.52854643,6.53510661 3.81925966,8.43231158 3.81925966,10.8211706 C3.81925966,13.229363 4.52361681,15.1265612 5.93298435,16.5140869 C7.34235188,17.9016125 9.27291947,18.5947179 11.7246871,18.5947179 C13.2688785,18.5947179 14.745988,18.302543 16.1556855,17.7181797 L16.2424927,20.228567 C14.8521972,20.6910733 13.2692085,20.9216724 11.49319,20.9216724 C8.19172216,20.9216724 5.59659135,20.0267936 3.70712417,18.2370294 C1.81766373,16.4485733 0.872933505,14.0233551 0.872933505,10.9639844 C0.872933505,7.86629563 1.84167208,5.39390442 3.77947247,3.54648873 C5.71694288,1.69907976 8.31734003,0.775368562 11.5799972,0.775368562 C13.3366137,0.775368562 14.9196091,1.03479338 16.3293066,1.55495113 L16.3293066,1.55495113 Z" id="Fill-8"></path>
                <path d="M34.839865,20.8587817 L31.2200929,20.8587817 L22.3883472,11.0792873 L22.3883472,20.8587817 L19.5893374,20.8587817 L19.5893374,0.838259223 L22.3883472,0.838259223 L22.3883472,9.63673314 L30.6992228,0.838259223 L34.0874979,0.838259223 L25.0525399,10.1844018 L34.839865,20.8587817 L34.839865,20.8587817 Z" id="Fill-9"></path>
                <path d="M35.8750256,20.8587817 L35.8750256,1.08982187 L46.5028449,1.08982187 L46.9027035,2.74594261 L37.6217761,2.74594261 L37.6217761,9.95773379 L45.4926759,9.95773379 L45.4926759,11.5719274 L37.6217761,11.5719274 L37.6217761,19.1816974 L47.3236072,19.1816974 L46.9447938,20.8587817 L35.8750256,20.8587817 L35.8750256,20.8587817 Z" id="Fill-10"></path>
                <path d="M113.723794,0.660416667 L125.404069,0.660416667 L125.404069,2.91581492 L116.472094,2.91581492 L116.352603,8.78582495 C116.870401,8.68624837 117.363298,8.61156706 117.831308,8.56177877 C118.299318,8.51199048 118.762342,8.4870967 119.220394,8.4870967 C121.401121,8.4870967 123.12377,9.06961096 124.388393,10.2346569 C125.653015,11.3997029 126.285317,12.977968 126.285317,14.9694996 C126.285317,17.170142 125.528546,18.9127061 124.014982,20.1972439 C122.501418,21.4817818 120.445193,22.1240411 117.846244,22.1240411 C117.109377,22.1240411 116.357586,22.0543386 115.590846,21.9149313 C114.824106,21.7755241 114.067336,21.5713952 113.320511,21.3025384 L113.290638,18.5542386 C113.927928,18.9226719 114.634912,19.2039715 115.411609,19.3981459 C116.188306,19.5923202 117.009801,19.6894059 117.876117,19.6894059 C119.519131,19.6894059 120.828543,19.2637224 121.804393,18.4123427 C122.780244,17.5609629 123.268162,16.4332751 123.268162,15.0292453 C123.268162,13.7347497 122.802648,12.6991689 121.871607,11.9224715 C120.940566,11.1457742 119.693388,10.7574314 118.130036,10.7574314 C117.522619,10.7574314 116.830572,10.8121977 116.053875,10.9217319 C115.277177,11.0312661 114.435768,11.2005438 113.529621,11.4295699 L113.723794,0.660416667 Z" id="5"></path>
                <path d="M50.0160779,13.6787679 C50.0160779,15.3217873 50.6013967,16.7224143 51.7746608,17.8819571 C52.9466185,19.0415066 54.3579592,19.621932 56.0060633,19.621932 C57.6554807,19.621932 59.0602419,19.0415066 60.2243067,17.8819571 C61.3870516,16.7224143 61.969744,15.3217873 61.969744,13.6787679 C61.969744,12.0357486 61.3870516,10.6338067 60.2243067,9.47426393 C59.0602419,8.31504314 57.6554807,7.73526839 56.0060633,7.73526839 C54.3579592,7.73526839 52.9466185,8.31504314 51.7746608,9.47426393 C50.6013967,10.6338067 50.0160779,12.0357486 50.0160779,13.6787679 L50.0160779,13.6787679 Z M61.969744,18.0300168 C61.2147437,19.0637783 60.3295326,19.8525311 59.3114709,20.3975835 C58.2934091,20.9426359 57.1898534,21.2151621 56.0021169,21.2151621 C53.8344627,21.2151621 52.0179971,20.4919229 50.5514136,19.0454377 C49.0861433,17.5989525 48.3535081,15.8104964 48.3535081,13.6787679 C48.3535081,11.5470328 49.0835101,9.76513072 50.544834,8.33273302 C52.0061579,6.90065732 53.8252567,6.18396541 56.0021169,6.18396541 C57.2464094,6.18396541 58.3749567,6.45649161 59.3890721,7.00154401 C60.4018742,7.5465964 61.2620937,8.34059519 61.969744,9.38254754 L61.969744,0.691514347 L63.548133,0.502842364 L63.548133,20.8587817 L61.969744,21.0474537 L61.969744,18.0300168 L61.969744,18.0300168 Z" id="Fill-11"></path>
                <path d="M66.714117,21.0893808 L66.714117,6.49841872 L68.3766868,6.30974674 L68.3766868,20.8587817 L66.714117,21.0893808 L66.714117,21.0893808 Z M66.3142585,1.96374379 L67.5230401,0.48187881 L68.7765453,1.80913674 L67.5230401,3.290995 L66.3142585,1.96374379 L66.3142585,1.96374379 Z" id="Fill-12"></path>
                <path d="M77.7680997,20.8587817 C77.4853063,20.9216724 77.2130321,20.9688387 76.953917,21.0002874 C76.6947952,21.0317293 76.4527722,21.0474537 76.2265415,21.0474537 C74.7744236,21.0474537 73.7471558,20.643907 73.1434182,19.8354987 C72.5396874,19.0284052 72.2384752,17.5491632 72.2384752,15.3977793 L72.2384752,8.07068525 L70.1550017,8.07068525 L70.6179958,6.49841872 L72.2384752,6.49841872 L72.2384752,3.08922164 L73.8589546,2.117036 L73.8589546,6.49841872 L77.626043,6.49841872 L77.626043,8.07068525 L73.8589546,8.07068525 L73.8589546,15.5943135 C73.8589546,17.1416854 74.0404685,18.1675847 74.402183,18.6733329 C74.7638976,19.1803893 75.4018328,19.4332601 76.3146686,19.4332601 C76.5119681,19.4332601 76.730306,19.4162276 76.9696958,19.3821626 C77.2103989,19.3480977 77.4761003,19.3022395 77.7680997,19.2445881 L77.7680997,20.8587817 L77.7680997,20.8587817 Z" id="Fill-13"></path>
                <path d="M80.3316661,13.6787679 C80.3316661,15.3217873 80.9169849,16.7224143 82.0902558,17.8819571 C83.2622067,19.0415066 84.6735542,19.621932 86.3216516,19.621932 C87.9710689,19.621932 89.3758368,19.0415066 90.5398949,17.8819571 C91.7026466,16.7224143 92.2853322,15.3217873 92.2853322,13.6787679 C92.2853322,12.0357486 91.7026466,10.6338067 90.5398949,9.47426393 C89.3758368,8.31504314 87.9710689,7.73526839 86.3216516,7.73526839 C84.6735542,7.73526839 83.2622067,8.31504314 82.0902558,9.47426393 C80.9169849,10.6338067 80.3316661,12.0357486 80.3316661,13.6787679 L80.3316661,13.6787679 Z M78.6690964,13.6787679 C78.6690964,11.5470328 79.3990983,9.76513072 80.8617422,8.33273302 C82.3230661,6.90065732 84.1434781,6.18396541 86.3216516,6.18396541 C88.490619,6.18396541 90.3044515,6.90065732 91.7618357,8.33273302 C93.2192132,9.76513072 93.947902,11.5470328 93.947902,13.6787679 C93.947902,15.8196666 93.2192132,17.6107457 91.7618357,19.0532998 C90.3044515,20.4945391 88.490619,21.2151621 86.3216516,21.2151621 C84.1526841,21.2151621 82.3349053,20.4919229 80.8683217,19.0454377 C79.4017315,17.5989525 78.6690964,15.8104964 78.6690964,13.6787679 L78.6690964,13.6787679 Z" id="Fill-14"></path>
                <path d="M96.2523533,21.0474537 L96.2523533,6.49841872 L97.8728327,6.30974674 L97.8728327,9.4179206 C98.4568316,8.29080591 99.1710547,7.44570972 100.015495,6.88231673 C100.858616,6.31892374 101.835901,6.03722054 102.948662,6.03722054 L103.344581,6.03722054 L102.680341,7.63045062 C101.04013,7.79030358 99.8287151,8.50306441 99.0460968,9.7690618 C98.2634785,11.0360453 97.8728327,12.9266962 97.8728327,15.4410146 L97.8728327,20.8587817 L96.2523533,21.0474537 L96.2523533,21.0474537 Z" id="Fill-15"></path>
                <path d="M106.02126,2.13210963 L104.976893,2.13210963 L104.976893,5.42862677 L104.450763,5.42862677 L104.450763,2.13210963 L103.405084,2.13210963 L103.405084,1.70235343 L106.02126,1.70235343 L106.02126,2.13210963 L106.02126,2.13210963 Z" id="Fill-16"></path>
                <path d="M110.538089,4.86017439 L110.033004,4.86017439 L110.033004,1.93378975 C110.033004,1.75494549 110.04747,1.56169171 110.076408,1.35402171 C110.029058,1.54727549 109.977755,1.71891501 109.919886,1.86959097 L108.733462,4.86017439 L108.270468,4.86017439 L107.089305,1.82110982 C107.049847,1.72088055 107.00907,1.56889646 106.965667,1.36450014 C106.986712,1.70122512 106.997231,1.89448561 106.997231,1.94492559 L106.997231,4.86017439 L106.534237,4.86017439 L106.534237,1.13390105 L107.326061,1.13390105 L108.430937,4.02228295 C108.482233,4.15527574 108.512484,4.31446458 108.52301,4.5005136 C108.548002,4.25681313 108.57694,4.09631616 108.609818,4.01704374 L109.756784,1.13390105 L110.538089,1.13390105 L110.538089,4.86017439 L110.538089,4.86017439 Z" id="Fill-17"></path>
            </g>
        </g>
    </g>
</svg>